<svg width="50" height="50" viewBox="0 0 50 50" fill="none" xmlns="http://www.w3.org/2000/svg">
<path d="M34.9668 10.1868C34.1149 9.385 33.0247 9 31.9259 9C30.689 9 29.4399 9.48767 28.5086 10.4202L28.1089 10.8199L27.7092 10.419C26.7779 9.48767 25.5287 9 24.2918 9C23.1931 9 22.1028 9.385 21.2509 10.1868C19.3772 11.9505 19.3442 14.9009 21.1507 16.7074L28.1089 23.6656L35.0671 16.7074C36.8735 14.9009 36.8405 11.9505 34.9668 10.1868Z" fill="url(#paint0_linear)"/>
<path d="M41.7948 27.2108C40.7253 26.4861 39.4652 26.6914 38.3493 27.3355C37.2334 27.9796 30.8264 33.4577 30.8264 33.4577L24.5197 33.4589C24.2264 33.4589 23.9086 33.1289 23.9086 32.8368C23.9086 32.4933 24.208 32.2257 24.5197 32.2257H28.3783C29.7289 32.2257 31.2408 31.3457 31.2408 29.7812C31.2408 28.119 29.7289 27.3367 28.3783 27.3367C26.0353 27.3367 25.5794 27.3465 25.5794 27.3465C24.6407 27.3465 23.6886 27.2903 22.9552 26.898C21.9775 26.3968 20.8506 26.1133 19.6479 26.1133C17.6288 26.1133 15.8211 26.9187 14.5817 28.1886L8 34.6689L15.3334 42.0023L17.7779 39.5578H30.1554C31.3874 39.5578 32.5767 39.1056 33.497 38.2879L41.8779 28.8865C42.39 28.4319 42.3606 27.5959 41.7948 27.2108Z" fill="url(#paint1_linear)"/>
<defs>
<linearGradient id="paint0_linear" x1="16.6452" y1="5.29801" x2="36.2401" y2="16.8211" gradientUnits="userSpaceOnUse">
<stop stop-color="#00BAAF"/>
<stop offset="0.934573" stop-color="#6D69FB"/>
<stop offset="1" stop-color="#6D69FB"/>
</linearGradient>
<linearGradient id="paint1_linear" x1="1.44157" y1="22.1025" x2="25.5761" y2="49.1614" gradientUnits="userSpaceOnUse">
<stop stop-color="#00BAAF"/>
<stop offset="0.934573" stop-color="#6D69FB"/>
<stop offset="1" stop-color="#6D69FB"/>
</linearGradient>
</defs>
</svg>
