<svg width="50" height="50" viewBox="0 0 50 50" fill="none" xmlns="http://www.w3.org/2000/svg">
<path d="M22.4287 28.0918H21.4727V37.4495H22.4287V28.0918Z" fill="url(#paint0_linear)"/>
<path d="M27.5283 28.0918H26.5723V37.4495H27.5283V28.0918Z" fill="url(#paint1_linear)"/>
<path d="M34.6974 35.6971H32.148C31.8839 35.6971 31.6699 35.4831 31.6699 35.219V28.0918H32.626V34.741H34.6973V35.6971H34.6974Z" fill="url(#paint2_linear)"/>
<path d="M16.8522 35.6971H14.3027V34.741H16.3741V28.0918H17.3302V35.2191C17.3302 35.4831 17.1162 35.6971 16.8522 35.6971Z" fill="url(#paint3_linear)"/>
<path d="M21.9508 40.0013C22.8308 40.0013 23.5442 39.2879 23.5442 38.4079C23.5442 37.5278 22.8308 36.8145 21.9508 36.8145C21.0708 36.8145 20.3574 37.5278 20.3574 38.4079C20.3574 39.2879 21.0708 40.0013 21.9508 40.0013Z" fill="url(#paint4_linear)"/>
<path d="M27.0504 40.0013C27.9305 40.0013 28.6438 39.2879 28.6438 38.4079C28.6438 37.5278 27.9305 36.8145 27.0504 36.8145C26.1704 36.8145 25.457 37.5278 25.457 38.4079C25.457 39.2879 26.1704 40.0013 27.0504 40.0013Z" fill="url(#paint5_linear)"/>
<path d="M35.654 36.8138C36.534 36.8138 37.2474 36.1004 37.2474 35.2204C37.2474 34.3403 36.534 33.627 35.654 33.627C34.7739 33.627 34.0605 34.3403 34.0605 35.2204C34.0605 36.1004 34.7739 36.8138 35.654 36.8138Z" fill="url(#paint6_linear)"/>
<path d="M35.3789 19.4922C35.3368 14.7948 31.5159 11 26.809 11C26.7548 11 26.7006 11.0006 26.6465 11.0013L33.0251 28.7294H34.3203C36.9048 28.7294 38.9998 26.6344 38.9998 24.0499C38.9997 21.83 37.4529 19.9721 35.3789 19.4922Z" fill="url(#paint7_linear)"/>
<path d="M33.9443 19.4928C33.9086 14.8503 30.6676 11.0886 26.6465 11.002C23.4827 11.0613 20.7382 12.8344 19.3029 15.4309C18.9957 15.2983 18.6674 15.2066 18.3239 15.162C18.1703 15.1422 18.0135 15.132 17.8542 15.132C15.9988 15.132 14.4679 16.515 14.2334 18.3061C11.8197 18.7847 10 20.9135 10 23.4674C10 26.3744 12.3563 28.7301 15.2627 28.7301H16.4806C16.4807 28.7301 33.0252 28.7301 33.0252 28.7301C35.2688 28.7301 37.0878 26.6351 37.0878 24.0506C37.0878 21.8307 35.7448 19.9728 33.9443 19.4928Z" fill="url(#paint8_linear)"/>
<path d="M13.3454 36.8138C14.2254 36.8138 14.9388 36.1004 14.9388 35.2204C14.9388 34.3403 14.2254 33.627 13.3454 33.627C12.4653 33.627 11.752 34.3403 11.752 35.2204C11.752 36.1004 12.4653 36.8138 13.3454 36.8138Z" fill="url(#paint9_linear)"/>
<defs>
<linearGradient id="paint0_linear" x1="21.2895" y1="25.7297" x2="22.8061" y2="25.8103" gradientUnits="userSpaceOnUse">
<stop stop-color="#00BAAF"/>
<stop offset="0.934573" stop-color="#6D69FB"/>
<stop offset="1" stop-color="#6D69FB"/>
</linearGradient>
<linearGradient id="paint1_linear" x1="26.3892" y1="25.7297" x2="27.9057" y2="25.8103" gradientUnits="userSpaceOnUse">
<stop stop-color="#00BAAF"/>
<stop offset="0.934573" stop-color="#6D69FB"/>
<stop offset="1" stop-color="#6D69FB"/>
</linearGradient>
<linearGradient id="paint2_linear" x1="31.0901" y1="26.172" x2="35.7082" y2="27.1284" gradientUnits="userSpaceOnUse">
<stop stop-color="#00BAAF"/>
<stop offset="0.934573" stop-color="#6D69FB"/>
<stop offset="1" stop-color="#6D69FB"/>
</linearGradient>
<linearGradient id="paint3_linear" x1="13.7229" y1="26.172" x2="18.3409" y2="27.1284" gradientUnits="userSpaceOnUse">
<stop stop-color="#00BAAF"/>
<stop offset="0.934573" stop-color="#6D69FB"/>
<stop offset="1" stop-color="#6D69FB"/>
</linearGradient>
<linearGradient id="paint4_linear" x1="19.747" y1="36.01" x2="23.7368" y2="38.0857" gradientUnits="userSpaceOnUse">
<stop stop-color="#00BAAF"/>
<stop offset="0.934573" stop-color="#6D69FB"/>
<stop offset="1" stop-color="#6D69FB"/>
</linearGradient>
<linearGradient id="paint5_linear" x1="24.8466" y1="36.01" x2="28.8364" y2="38.0857" gradientUnits="userSpaceOnUse">
<stop stop-color="#00BAAF"/>
<stop offset="0.934573" stop-color="#6D69FB"/>
<stop offset="1" stop-color="#6D69FB"/>
</linearGradient>
<linearGradient id="paint6_linear" x1="33.4502" y1="32.8225" x2="37.4399" y2="34.8982" gradientUnits="userSpaceOnUse">
<stop stop-color="#00BAAF"/>
<stop offset="0.934573" stop-color="#6D69FB"/>
<stop offset="1" stop-color="#6D69FB"/>
</linearGradient>
<linearGradient id="paint7_linear" x1="24.2804" y1="6.52461" x2="41.6499" y2="12.821" gradientUnits="userSpaceOnUse">
<stop stop-color="#00BAAF"/>
<stop offset="0.934573" stop-color="#6D69FB"/>
<stop offset="1" stop-color="#6D69FB"/>
</linearGradient>
<linearGradient id="paint8_linear" x1="4.81178" y1="6.52689" x2="31.2176" y2="27.5175" gradientUnits="userSpaceOnUse">
<stop stop-color="#00BAAF"/>
<stop offset="0.934573" stop-color="#6D69FB"/>
<stop offset="1" stop-color="#6D69FB"/>
</linearGradient>
<linearGradient id="paint9_linear" x1="11.1416" y1="32.8225" x2="15.1313" y2="34.8982" gradientUnits="userSpaceOnUse">
<stop stop-color="#00BAAF"/>
<stop offset="0.934573" stop-color="#6D69FB"/>
<stop offset="1" stop-color="#6D69FB"/>
</linearGradient>
</defs>
</svg>
