<svg width="55" height="50" viewBox="0 0 55 50" fill="none" xmlns="http://www.w3.org/2000/svg">
<path d="M13.9346 17.9582C15.7146 17.8421 17.3091 18.8319 19.0509 18.383C19.3341 18.308 20.7927 19.2072 19.4856 20.18C18.8852 20.6247 18.7663 21.1897 18.6402 21.9274C18.4335 23.141 19.3285 24.8686 17.3035 25.445C16.907 25.5583 17.2851 25.8882 17.3884 26.0851C17.8571 26.9758 17.792 27.7985 17.7269 28.8252C17.6518 30.0345 17.3813 31.0357 16.9933 32.1119C16.8602 32.4857 16.8404 33.3042 17.455 33.3113C19.2463 33.3283 19.6159 34.7033 20.297 35.8928C20.7658 36.7099 21.5446 37.7464 22.55 36.7424C23.9732 35.3207 25.5535 34.4668 27.4978 34.9412C30.7689 35.7399 31.78 32.1954 34.2907 31.6148C33.5968 29.5898 37.7304 28.4811 35.3117 26.0567C34.8133 25.5554 35.3698 24.6817 35.7705 24.1479C37.0846 22.3863 37.593 19.8996 40.343 19.4068C41.1106 19.2695 41.7138 18.308 42.436 17.784C43.1469 17.2643 43.0392 16.5506 42.892 15.8964C42.681 14.9334 41.9758 15.5027 41.4178 15.4928C40.285 15.4786 39.0969 15.7534 38.1014 14.8117C37.8281 14.5497 37.0875 14.4591 36.7547 14.6417C35.0016 15.6132 33.5246 14.5341 32.0859 13.9521C31.4005 13.6746 30.7916 13.4522 30.0482 13.3064C27.1863 12.7428 24.2805 13.1633 21.3888 12.8546C19.1203 12.6111 16.8801 11.8931 14.528 12.0135C13.1303 12.0815 13.0028 12.5643 13 13.7199C12.9972 15.2747 14.46 16.4345 13.9346 17.9582Z" fill="url(#paint0_linear)"/>
<circle cx="37.5" cy="20.5" r="1.375" fill="white" stroke="black" stroke-width="0.25"/>
<defs>
<linearGradient id="paint0_linear" x1="7.25399" y1="5.64987" x2="41.7139" y2="27.0297" gradientUnits="userSpaceOnUse">
<stop stop-color="#00BAAF"/>
<stop offset="0.934573" stop-color="#6D69FB"/>
<stop offset="1" stop-color="#6D69FB"/>
</linearGradient>
</defs>
</svg>
