<svg width="474" height="474" viewBox="0 0 474 474" fill="none" xmlns="http://www.w3.org/2000/svg">
<mask id="mask0" mask-type="alpha" maskUnits="userSpaceOnUse" x="0" y="0" width="474" height="474">
<circle cx="236.84" cy="236.84" r="236.84" fill="#C4C4C4"/>
</mask>
<g mask="url(#mask0)">
<path d="M592 0H-119V474H592V0Z" fill="#F4F4F4"/>
<path d="M-119 237H592V0H236.5V474H-119V237Z" fill="#FFB515"/>
<path d="M58.75 0V237V0ZM-119 118.5H236.5H-119ZM414.25 237V474V237ZM236.5 355.5H592H236.5ZM-59.75 237V474V237ZM19.25 237V474V237ZM98.25 237V474V237ZM177.25 237V474V237ZM295.75 0V237V0ZM374.75 0V237V0ZM453.75 0V237V0ZM532.75 0V237Z" fill="black"/>
<path fill-rule="evenodd" clip-rule="evenodd" d="M78.5 138.25V237H39V138.25H-119V98.75H39V0H78.5V98.75H236.5V138.25H78.5ZM315.5 0V237H276V0H315.5ZM394.5 0V237H355V0H394.5ZM434 237V335.75H592V375.25H434V474H394.5V375.25H236.5V335.75H394.5V237H434ZM473.5 0V237H434V0H473.5ZM513 237V0H552.5V237H513ZM-40 237V474H-79.5V237H-40ZM39 237V474H-0.500006V237H39ZM118 237V474H78.5V237H118ZM197 237V474H157.5V237H197Z" fill="#F20017"/>
</g>
</svg>
