<svg width="39" height="39" viewBox="0 0 39 39" fill="none" xmlns="http://www.w3.org/2000/svg">
<path d="M10.8926 19.25C11.4598 19.25 11.9733 19.0224 12.3527 18.6569L14.434 19.6975C14.4236 19.7823 14.4082 19.8656 14.4082 19.9531C14.4082 21.1162 15.3545 22.0625 16.5176 22.0625C17.6807 22.0625 18.627 21.1162 18.627 19.9531C18.627 19.6285 18.5471 19.3245 18.4155 19.0495L21.239 16.226C21.514 16.3577 21.8179 16.4375 22.1426 16.4375C23.3057 16.4375 24.252 15.4912 24.252 14.3281C24.252 14.1091 24.2089 13.902 24.1467 13.7034L26.5999 11.8639C26.9346 12.0875 27.3358 12.2188 27.7676 12.2188C28.9307 12.2188 29.877 11.2725 29.877 10.1094C29.877 8.94629 28.9307 8 27.7676 8C26.6045 8 25.6582 8.94629 25.6582 10.1094C25.6582 10.3284 25.7012 10.5355 25.7635 10.7341L23.3102 12.5736C22.9755 12.35 22.5743 12.2188 22.1426 12.2188C20.9795 12.2188 20.0332 13.165 20.0332 14.3281C20.0332 14.6528 20.113 14.9567 20.2447 15.2318L17.4212 18.0552C17.1462 17.9236 16.8422 17.8438 16.5176 17.8438C15.9503 17.8438 15.4369 18.0714 15.0575 18.4368L12.9761 17.3962C12.9866 17.3115 13.002 17.2282 13.002 17.1406C13.002 15.9775 12.0557 15.0313 10.8926 15.0313C9.72949 15.0313 8.7832 15.9775 8.7832 17.1406C8.7832 18.3037 9.72949 19.25 10.8926 19.25Z" fill="url(#paint0_linear)"/>
<path d="M30.627 30.5938H29.877V15.7344C29.877 15.3458 29.5624 15.0312 29.1738 15.0312H26.3613C25.9728 15.0312 25.6582 15.3458 25.6582 15.7344V30.5938H24.252V19.9531C24.252 19.5646 23.9374 19.25 23.5488 19.25H20.7363C20.3478 19.25 20.0332 19.5646 20.0332 19.9531V30.5938H18.627V25.5781C18.627 25.1896 18.3124 24.875 17.9238 24.875H15.1113C14.7228 24.875 14.4082 25.1896 14.4082 25.5781V30.5938H13.002V22.7656C13.002 22.3771 12.6874 22.0625 12.2988 22.0625H9.48633C9.09778 22.0625 8.7832 22.3771 8.7832 22.7656V30.5938H8.0332C7.64465 30.5938 7.33008 30.9083 7.33008 31.2969C7.33008 31.6854 7.64465 32 8.0332 32H30.627C31.0155 32 31.3301 31.6854 31.3301 31.2969C31.3301 30.9083 31.0155 30.5938 30.627 30.5938Z" fill="url(#paint1_linear)"/>
<defs>
<linearGradient id="paint0_linear" x1="4.74304" y1="4.45024" x2="25.5985" y2="20.7254" gradientUnits="userSpaceOnUse">
<stop stop-color="#00BAAF"/>
<stop offset="0.934573" stop-color="#6D69FB"/>
<stop offset="1" stop-color="#6D69FB"/>
</linearGradient>
<linearGradient id="paint1_linear" x1="2.73327" y1="10.7479" x2="27.502" y2="28.9734" gradientUnits="userSpaceOnUse">
<stop stop-color="#00BAAF"/>
<stop offset="0.934573" stop-color="#6D69FB"/>
<stop offset="1" stop-color="#6D69FB"/>
</linearGradient>
</defs>
</svg>
