<svg width="50" height="50" viewBox="0 0 50 50" fill="none" xmlns="http://www.w3.org/2000/svg">
<path d="M14.963 24.5499C15.867 26.1775 16.6791 27.3646 16.4401 29.2672C16.2089 31.1097 16.3039 33.045 15.5107 34.7382C14.9487 35.9398 15.8749 35.9908 16.3451 36.4551C18.1989 38.2976 20.5816 37.5547 22.6887 38.1355C24.2719 38.5725 26.5991 40.3349 27.0392 36.3422C27.1183 35.6249 28.0856 35.421 28.8281 35.3918C30.0155 35.3354 31.1316 35.6413 32.2366 36.1001C33.804 36.7464 36.4462 35.4574 37.0826 33.806C37.3502 33.1087 37.0637 33.005 36.5713 32.7209C35.2605 31.9727 35.3396 30.782 35.661 29.2617C35.9365 27.9381 36.1549 26.0082 34.7158 25.4001C33.3955 24.8412 34.2346 24.2986 34.5322 23.9709C35.9555 22.3742 36.7913 20.4826 37.6478 18.3998C38.5186 16.2878 37.6304 16.2478 36.5507 15.8854C32.558 14.5418 28.8867 12.4736 25.5447 9.61879C24.2719 8.52823 23.1779 8.87597 23.0845 10.6875C22.9911 12.4554 22.3848 13.0689 20.9805 13.0817C20.4248 13.0908 19.8771 13.2819 19.6253 13.9392C18.8148 16.0639 17.6717 15.1062 16.6744 14.2796C16.1519 13.8427 15.7846 13.2364 15.096 13.7771C14.3408 14.367 14.8047 14.9587 15.0944 15.5978C15.935 17.4439 15.5472 17.7534 13.7186 17.6351C13.3403 17.6078 13.0284 17.4457 12.7387 17.26C12.2526 16.9505 11.8236 16.5955 11.2347 16.7794C10.7107 16.9269 10.193 17.1217 9.66262 17.2091C8.94862 17.3274 7.97974 16.9214 8.00032 18.3743C8.01774 19.6196 8.32962 20.5208 9.58188 20.8795C11.6526 21.473 13.5287 21.9646 14.963 24.5499Z" fill="#6D69FB"/>
</svg>
