<svg width="55" height="50" viewBox="0 0 55 50" fill="none" xmlns="http://www.w3.org/2000/svg">
<path d="M36.6116 39.8707C37.0463 40.1619 37.6375 39.9367 37.7667 39.4358L38.4127 36.9117C38.4636 36.7137 38.3148 36.5234 38.1073 36.5234H33.7612C33.4988 36.5234 33.3539 36.8224 33.5144 37.0244C34.6069 38.399 35.8129 39.3348 36.6116 39.8707Z" fill="url(#paint0_linear)"/>
<path d="M8.2814 24.7887C9.38948 26.9788 10.4193 29.3592 10.0512 31.6813C10.0199 31.8871 10.1804 32.0735 10.3918 32.0735H11.9189C12.0285 32.0735 12.1303 32.023 12.193 31.9376C14.045 29.4524 16.5509 28.6758 16.5509 28.6758C18.814 28.0001 21.2534 27.4021 22.8196 27.4021C25.7405 27.4021 26.4375 29.7785 26.5941 30.6872C26.6293 30.8892 26.8055 31.0367 27.013 31.0367C27.201 31.0367 27.3811 30.959 27.5064 30.8193L28.8651 29.3281C29.0021 29.1806 29.2488 29.2544 29.2801 29.4485C29.6991 32.0541 31.7665 34.7412 32.158 34.9509C32.1933 34.9703 32.2324 34.9781 32.2716 34.9781H38.3445C38.4697 34.9781 38.5715 34.8849 38.5833 34.7645C38.7987 32.4812 42.3304 29.1845 43.6812 27.9962C44.014 27.705 44.202 27.2895 44.202 26.8507V23.9733C44.202 23.9344 44.1942 23.8995 44.1785 23.8646L40.7329 17.0303C40.7094 16.9798 40.6663 16.941 40.6154 16.9177C37.7924 15.6401 37.9451 12.4521 37.9999 11.8735C38.0038 11.8152 37.9882 11.7531 37.9529 11.7065L37.1228 10.6348C37.0445 10.5338 36.8957 10.5105 36.79 10.5882L36.4102 10.86C36.4102 9.20579 35.7172 7.78845 35.3296 7.12055C35.2278 6.94581 34.9693 6.96523 34.8949 7.15162L34.104 9.1786C34.0923 9.20579 34.0883 9.23685 34.0883 9.26403C34.0844 10.9454 33.8025 12.0754 33.501 12.8016C33.2309 13.4539 32.4282 13.6947 31.833 13.3102C30.6623 12.553 28.7633 11.3221 28.1133 10.9027C27.9919 10.825 27.9685 10.662 28.0585 10.5493L29.887 8.34762C30.0162 8.19229 29.9027 7.95542 29.6991 7.95542H24.006C23.9433 7.95542 23.8846 7.97872 23.8415 8.02143L21.9739 9.76884C21.876 9.86203 21.872 10.0174 21.9699 10.1106L22.4633 10.6037C20.8736 11.1279 19.8047 10.064 19.421 9.58633C19.3309 9.4776 19.1665 9.46595 19.0646 9.56303L14.9808 13.4656C14.9455 13.5005 14.9181 13.5432 14.9103 13.5937C14.4796 16.0595 9.69097 17.737 8.19135 18.203C7.91335 18.2884 7.70191 18.5136 7.63535 18.7932L6.93448 21.69C6.89141 21.8725 6.91099 22.0628 6.9893 22.2298C7.37301 23.0413 7.83112 23.8995 8.2814 24.7887Z" fill="url(#paint1_linear)"/>
<defs>
<linearGradient id="paint0_linear" x1="32.4943" y1="35.6459" x2="37.5863" y2="39.4374" gradientUnits="userSpaceOnUse">
<stop stop-color="#00BAAF"/>
<stop offset="0.934573" stop-color="#6D69FB"/>
<stop offset="1" stop-color="#6D69FB"/>
</linearGradient>
<linearGradient id="paint1_linear" x1="-0.230166" y1="-0.0624253" x2="39.8299" y2="27.7155" gradientUnits="userSpaceOnUse">
<stop stop-color="#00BAAF"/>
<stop offset="0.934573" stop-color="#6D69FB"/>
<stop offset="1" stop-color="#6D69FB"/>
</linearGradient>
</defs>
</svg>
