<svg width="37" height="37" viewBox="0 0 37 37" fill="none" xmlns="http://www.w3.org/2000/svg">
<path d="M18.1643 6.53906C11.7449 6.53906 6.53906 11.8764 6.53906 18.4604C6.53906 23.7264 9.8701 28.194 14.4917 29.7717C15.073 29.8816 15.2852 29.5135 15.2852 29.1973C15.2852 28.9138 15.275 28.1643 15.2692 27.1699C12.0356 27.8897 11.3525 25.5713 11.3525 25.5713C10.8249 24.194 10.0619 23.8274 10.0619 23.8274C9.00537 23.0882 10.1404 23.1031 10.1404 23.1031C11.3074 23.1877 11.9208 24.332 11.9208 24.332C12.9584 26.1532 14.6428 25.6277 15.3056 25.322C15.4102 24.5517 15.711 24.0263 16.0439 23.7279C13.4627 23.4266 10.7479 22.404 10.7479 17.837C10.7479 16.5354 11.2014 15.4712 11.9455 14.637C11.8248 14.3357 11.4266 13.1231 12.0588 11.483C12.0588 11.483 13.0355 11.1624 15.2562 12.7046C16.1834 12.4404 17.1775 12.3083 18.1672 12.3038C19.154 12.3098 20.1495 12.4404 21.0782 12.706C23.2974 11.1639 24.2726 11.4845 24.2726 11.4845C24.9063 13.1261 24.5081 14.3372 24.3889 14.6385C25.1345 15.4726 25.5835 16.5368 25.5835 17.8385C25.5835 22.4174 22.8658 23.4251 20.276 23.7205C20.6931 24.0886 21.0651 24.8159 21.0651 25.9276C21.0651 27.5216 21.0506 28.807 21.0506 29.1973C21.0506 29.5164 21.2599 29.8875 21.8499 29.7702C26.4643 28.191 29.7924 23.725 29.7924 18.4604C29.7924 11.8764 24.5866 6.53906 18.1643 6.53906Z" fill="white"/>
</svg>
