<svg width="50" height="50" viewBox="0 0 50 50" fill="none" xmlns="http://www.w3.org/2000/svg">
<path d="M39.5073 20.6865C40.155 20.6865 40.675 20.1267 40.675 19.4791V15.5931C40.675 14.9454 40.1821 14.2342 39.5735 14.0124L26.2746 9.16639C25.6662 8.94466 24.6715 8.94454 24.0628 9.16603L10.7183 14.0128C10.1098 14.2343 9.58789 14.9454 9.58789 15.5931V19.4791C9.58789 20.1267 10.1668 20.6865 10.8144 20.6865H11.472V38.1141H10.8046C10.1543 38.1141 9.58789 38.6701 9.58789 39.3205V40.8513C9.58789 41.5017 10.1544 42 10.8046 42H39.5366C40.187 42 40.675 41.5018 40.675 40.8513V39.3205C40.675 38.6701 40.1869 38.1141 39.5366 38.1141H38.6732V20.6865H39.5073ZM27.1333 20.6865V38.1141H23.2474V20.6865H27.1333ZM15.3578 20.6865H19.3615V38.1141H15.3578V20.6865ZM34.7873 38.1141H31.0191V20.6865H34.7873V38.1141Z" fill="url(#paint0_linear)"/>
<defs>
<linearGradient id="paint0_linear" x1="3.63367" y1="0.669905" x2="43.5096" y2="20.2129" gradientUnits="userSpaceOnUse">
<stop stop-color="#00BAAF"/>
<stop offset="0.934573" stop-color="#6D69FB"/>
<stop offset="1" stop-color="#6D69FB"/>
</linearGradient>
</defs>
</svg>
