<svg width="55" height="50" viewBox="0 0 55 50" fill="none" xmlns="http://www.w3.org/2000/svg">
<g clip-path="url(#clip0)">
<path d="M41.5458 29.2801C40.3718 28.2785 38.9816 27.6272 37.5846 27.0018C37.0633 26.7706 36.0439 26.7254 36.2916 25.9852C36.7253 24.688 35.9796 24.9371 35.2872 24.959C33.2813 25.0219 31.8788 23.9738 31.2562 22.2237C30.7144 20.7104 29.8606 19.6021 28.4594 19.0753C26.3084 18.268 27.8957 16.4495 27.3141 15.1961C27.0555 14.6324 28.391 14.7309 28.8945 14.3136C29.1436 14.107 29.5171 13.9537 29.8373 13.9455C30.8539 13.9168 30.5502 13.2135 30.3723 12.7852C30.1616 12.2817 30.9347 11.3375 29.6964 11.2582C29.0081 11.2117 28.012 11.2609 27.6986 10.8491C26.5014 9.28098 25.2343 10.3701 23.9262 10.3441C22.3349 10.3154 21.6863 12.8126 19.9021 11.5619C19.3602 12.9494 18.6856 13.2641 17.7552 11.8493C17.7182 11.7959 17.2804 11.8753 17.2503 11.9601C16.8247 13.2956 15.6658 13.0808 14.6779 13.2094C14.318 13.2573 13.8117 13.5788 13.898 13.6883C14.8913 14.9622 13.326 16.1854 13.9513 17.5551C14.5917 18.9549 16.1789 20.0728 17.1832 19.2778C19.549 17.4073 21.6918 17.9943 22.4936 20.9307C22.8795 22.3551 23.8523 23.1241 24.8526 23.8493C26.6519 25.1601 28.1105 26.8418 30.5255 27.478C32.1607 27.9145 33.4346 29.7631 35.0341 30.7961C36.0535 31.4529 36.3176 32.8609 36.2492 33.9323C36.2136 34.574 35.3283 35.3225 34.2788 35.6399C32.355 36.2215 30.479 35.9067 28.5853 35.8383C27.9901 35.8178 27.6206 35.9232 27.5208 36.517C27.4263 37.0917 27.7287 37.3435 28.2692 37.5692C29.6088 38.1234 30.9374 38.7309 32.1962 39.4438C32.7614 39.7613 33.2567 40.2429 33.8806 39.8557C34.5032 39.4671 34.4799 38.8075 34.183 38.0687C34.2802 37.4434 34.2487 36.2762 35.0834 36.4062C36.9319 36.699 36.8964 35.1159 37.7474 34.3797C39.1732 33.1414 39.4359 32.4039 37.7228 31.3708C37.5901 31.2928 37.6681 30.7086 37.783 30.4048C38.2058 29.2595 39.4387 29.2595 40.6893 30.4021C41.056 30.7373 41.2941 31.535 41.9276 30.8782C42.5201 30.268 42.0371 29.7015 41.5458 29.2801Z" fill="url(#paint0_linear)"/>
<path d="M19.5292 27.2341C18.6808 27.5652 16.1084 27.7198 17.7395 30.0569C17.9625 30.3743 17.7696 30.9805 17.7696 31.655C17.6163 32.4103 17.2948 33.7239 18.7109 33.6404C19.6523 33.5857 21.1821 33.2245 20.9098 31.4087C20.799 30.7013 21.2806 29.9022 21.1766 29.1921C21.0398 28.2534 20.8345 26.725 19.5292 27.2341Z" fill="url(#paint1_linear)"/>
</g>
<defs>
<linearGradient id="paint0_linear" x1="8.35883" y1="2.42726" x2="44.7202" y2="20.3371" gradientUnits="userSpaceOnUse">
<stop stop-color="#00BAAF"/>
<stop offset="0.934573" stop-color="#6D69FB"/>
<stop offset="1" stop-color="#6D69FB"/>
</linearGradient>
<linearGradient id="paint1_linear" x1="16.4462" y1="25.4892" x2="22.1991" y2="27.3197" gradientUnits="userSpaceOnUse">
<stop stop-color="#00BAAF"/>
<stop offset="0.934573" stop-color="#6D69FB"/>
<stop offset="1" stop-color="#6D69FB"/>
</linearGradient>
<clipPath id="clip0">
<rect width="30" height="30" fill="white" transform="translate(13 10)"/>
</clipPath>
</defs>
</svg>
