<svg width="50" height="50" viewBox="0 0 50 50" fill="none" xmlns="http://www.w3.org/2000/svg">
<path d="M14.5248 36.0701C14.4585 36.1038 14.4465 36.0639 14.4434 36.0117C14.4374 35.8951 14.5339 35.8798 14.6062 35.8399C14.6515 35.8153 14.7027 35.8061 14.7389 35.7723C14.7691 35.7416 14.7811 35.6925 14.8022 35.6496C14.7027 35.7048 14.6032 35.7631 14.5007 35.8153C14.4525 35.8399 14.3952 35.8429 14.3409 35.8583C14.365 35.7355 14.3831 35.6066 14.4223 35.4869C14.4314 35.4593 14.5128 35.447 14.561 35.4501C14.6123 35.4501 14.6605 35.4777 14.7088 35.493C14.6605 35.4531 14.6123 35.3856 14.561 35.3825C14.3862 35.3764 14.4676 35.2905 14.5007 35.2168C14.5459 35.1186 14.6967 35.0664 14.6213 34.9099C14.6093 34.8853 14.6726 34.8239 14.7027 34.7779C14.7329 34.8915 14.763 35.005 14.7932 35.1186C14.7992 35.1462 14.6937 35.1063 14.76 35.1738C14.8565 35.269 14.95 35.3641 15.0464 35.4593C15.0525 35.4531 15.0615 35.4439 15.0615 35.4409C15.0253 35.3795 14.9892 35.3212 14.95 35.2628C14.9228 35.2229 14.8866 35.1861 14.8565 35.1462C14.9078 35.1278 14.956 35.1094 15.0072 35.094C15.0314 35.0879 15.0585 35.0879 15.0826 35.0848C15.0766 35.0725 15.0736 35.048 15.0645 35.048C15.0404 35.0418 15.0103 35.0326 14.9892 35.0418C14.9319 35.0633 14.8625 35.1002 14.8354 35.0173C14.7992 34.9129 14.748 34.7902 14.7781 34.6981C14.8113 34.5968 14.8565 34.7226 14.9017 34.7411C14.9047 34.7441 14.9078 34.7472 14.9108 34.7533C14.8083 34.4986 14.9319 34.5876 15.0464 34.6613C15.0585 34.6367 15.0887 34.6091 15.0826 34.5907C15.0344 34.4648 15.0314 34.4679 15.2002 34.4495C15.2153 34.4495 15.2273 34.4433 15.2394 34.4403C15.2273 34.4311 15.2153 34.4249 15.2032 34.4157C15.1399 34.3758 15.0766 34.339 15.0133 34.2991C15.0977 34.1886 15.161 34.029 15.2726 33.986C15.3751 33.9461 15.3479 34.118 15.3751 34.1978C15.3841 34.2285 15.4414 34.2776 15.4565 34.2715C15.5349 34.2346 15.4716 34.1917 15.4474 34.1548C15.3902 34.0597 15.3148 33.9645 15.3721 33.8479C15.3932 33.8019 15.4927 33.7466 15.5138 33.762C15.8334 33.9829 15.5228 33.676 15.5861 33.6729C15.8394 33.6607 15.7067 33.2402 15.954 33.2709C16.3369 33.32 15.9932 33.0836 16.0715 32.9916C16.2193 32.8197 16.2826 32.5741 16.5328 32.4974C16.4122 32.1598 16.8163 32.1322 16.8826 31.8835C16.9489 31.6441 17.2022 31.6595 17.4102 31.6656C17.5308 31.6687 17.6424 31.6656 17.7208 31.5613C17.8022 31.4508 17.8474 31.3495 18.0373 31.4293C18.1489 31.4753 18.0012 31.3065 18.0765 31.2144C18.3208 30.9167 18.5981 30.6957 18.9599 30.5699C19.0413 30.5423 19.1589 30.487 19.18 30.4195C19.3097 29.9959 19.7921 29.9069 19.973 29.5417C20.184 29.1089 20.6845 29.0567 20.9649 28.7375C21.3086 28.3446 21.6192 27.9242 21.8122 27.4116C22.0172 26.8652 22.0895 26.3036 22.189 25.7388C22.1951 25.7112 22.2524 25.6744 22.2825 25.6744C22.7076 25.6713 22.8765 25.3644 23.0905 25.0513C23.389 24.6124 23.377 24.1551 23.3468 23.6701C23.3317 23.4154 23.8744 22.7677 24.1126 22.737C24.2664 22.7156 24.2272 22.691 24.3207 22.5314C24.4232 22.3595 24.6523 22.4332 24.8272 22.4363C24.9146 22.4363 25.0322 22.4915 25.0774 22.5621C25.1046 22.602 25.0081 22.5713 24.9689 22.559C24.8272 22.5161 24.6644 22.4209 24.5528 22.5652C24.4533 22.6941 24.399 22.8874 24.4985 23.0378C24.6041 23.1913 24.7428 23.3601 24.9719 23.2005C24.993 23.1852 25.0593 23.1944 25.0624 23.2005C25.0804 23.3509 25.2101 23.486 25.1257 23.6517C24.9809 23.9494 25.2222 24.1735 25.2855 24.4282C25.3005 24.4835 25.4 24.5694 25.5146 24.4405C25.7015 24.2318 25.9277 24.0568 26.1538 23.8911C26.2141 23.8451 26.4432 23.974 26.4071 23.8819C26.3076 23.6302 26.5669 23.7346 26.588 23.6333C26.7357 23.6763 26.7719 23.5074 26.8804 23.4798C26.8985 23.4767 26.9287 23.5136 26.9528 23.532C26.8442 23.6149 26.7447 23.7162 26.6241 23.7683C26.5849 23.7837 26.5457 23.7775 26.5337 23.8297C26.5216 23.8819 26.5156 23.9371 26.5035 23.9924C26.5367 23.9617 26.5669 23.9157 26.606 23.9003C26.6603 23.8819 26.7206 23.888 26.7779 23.8819C26.7297 23.9464 26.6814 24.0108 26.6272 24.0691C26.603 24.0967 26.5608 24.106 26.5277 24.1244C26.5608 24.1336 26.597 24.1366 26.6211 24.1551C26.6392 24.1673 26.6573 24.2072 26.6513 24.2287C26.6362 24.2778 26.6121 24.3269 26.5819 24.3668C26.5608 24.3945 26.5186 24.4037 26.4854 24.4221C26.5005 24.4313 26.5156 24.4528 26.5307 24.4528C26.5699 24.4528 26.591 24.4528 26.6332 24.4098C26.7086 24.3331 26.8412 24.3116 26.9467 24.2686C27.001 24.2471 27.0553 24.2226 27.1096 24.2011C27.0432 24.198 26.989 24.1305 26.9075 24.1919C26.8653 24.2226 26.7779 24.198 26.7146 24.1888C26.7055 24.1888 26.6875 24.1244 26.6995 24.109C26.7447 24.0538 26.799 24.0077 26.8503 23.9556C27.0221 24.1827 26.9317 23.885 26.992 23.8788C27.004 23.8788 27.0101 23.8359 27.0221 23.8144C26.995 23.8174 26.9709 23.8205 26.9437 23.8205C26.9106 23.8205 26.8744 23.8205 26.8412 23.8205C26.8533 23.7898 26.8623 23.7591 26.8744 23.7284C26.9166 23.621 26.9709 23.7591 27.0282 23.7192C27.1276 23.6456 27.0432 23.7775 27.0764 23.7745C27.1246 23.7714 27.1699 23.7591 27.2181 23.7499C27.2543 23.7438 27.2905 23.7407 27.3236 23.7376C27.3236 23.753 27.3297 23.7683 27.3236 23.7806C27.3146 23.8205 27.2995 23.8573 27.2874 23.8972C27.3357 23.8758 27.3869 23.8543 27.4322 23.8297C27.4653 23.8113 27.4925 23.7867 27.5226 23.7653C27.5015 23.796 27.4774 23.8266 27.4653 23.8604C27.3598 24.1182 27.206 24.3177 26.9106 24.3607C26.8623 24.3668 26.8201 24.4129 26.7749 24.4436C26.8472 24.4466 26.9377 24.4743 26.989 24.4436C27.1488 24.3423 27.3869 24.4405 27.4985 24.2103C27.5256 24.1551 27.6432 24.1459 27.5226 24.0691C27.5739 24.0476 27.6251 24.0292 27.6764 24.0077C27.6613 24.0875 27.6643 24.2257 27.6342 24.2349C27.4714 24.2809 27.4593 24.4466 27.3598 24.5387C27.3116 24.5817 27.2513 24.6032 27.194 24.6369C27.2121 24.6032 27.2302 24.5694 27.2452 24.5357C27.2482 24.5264 27.2392 24.505 27.2302 24.5019C27.2181 24.4988 27.197 24.5019 27.191 24.5111C27.0673 24.6799 26.8955 24.8487 27.0975 25.0636C27.4683 25.4564 27.396 25.7296 27.0704 26.1747C26.8322 26.5031 26.5367 26.8407 26.4583 27.2827C26.4553 27.3042 26.3196 27.2857 26.2623 27.3164C26.0754 27.4177 26.0995 27.6387 26.0302 27.8014C25.8613 28.2035 25.7407 28.6362 25.3578 28.8971C25.1588 29.0322 24.8724 29.0444 24.7548 29.2961C24.6041 29.6153 24.6131 29.956 24.7789 30.2568C24.8483 30.3827 24.788 30.3458 24.7337 30.3735C24.6915 30.3949 24.6101 30.352 24.6071 30.444C24.6553 30.441 24.7156 30.4195 24.7548 30.441C24.8362 30.487 25.0141 30.2445 25.0081 30.5269C25.0744 30.4318 25.1468 30.4594 25.2433 30.4901C25.388 30.5361 25.4332 30.6589 25.4332 30.7663C25.4362 30.9014 25.3458 31.0426 25.2161 31.0794C25.1227 31.107 25.1166 30.9842 25.1136 30.9014C25.1136 30.8553 25.1046 30.8093 25.0985 30.7633C25.0804 30.8124 25.0533 30.8615 25.0503 30.9136C25.0473 30.9812 25.0684 31.0518 25.0774 31.1193C24.987 31.0855 24.8694 31.0794 24.8091 31.0149C24.6493 30.84 24.5016 31.0241 24.3508 31.0027C24.3026 30.9965 24.2513 31.0057 24.2031 31.0088C24.2513 30.9842 24.2965 30.9597 24.3478 30.9382C24.4232 30.9044 24.5016 30.8768 24.5769 30.8461C24.4473 30.8001 24.3207 30.7234 24.191 30.7141C24.0825 30.708 24.0222 30.8062 24.0523 30.9351C24.0614 30.972 24.0493 31.0487 24.0342 31.0518C23.9619 31.0671 23.8865 31.064 23.8111 31.0671C23.8051 31.0671 23.796 31.0548 23.79 31.0456C23.6574 30.8185 23.4192 30.7448 23.2111 30.6313C23.3136 30.7755 23.4765 30.84 23.585 30.9934C23.7327 31.1991 23.6151 31.2329 23.4915 31.3096C23.3438 31.3986 23.193 31.4753 23.0513 31.5674C22.792 31.7393 22.5388 32.0125 22.2825 31.5674C22.2735 31.5521 22.2463 31.5521 22.2282 31.5429C22.2343 31.5613 22.2373 31.5828 22.2524 31.595C22.4785 31.816 22.4544 31.9848 22.2373 32.2365C22.0262 32.4821 21.9358 32.8534 21.9961 33.1819C22.0745 33.6177 21.9328 33.9645 21.6735 34.2561C21.4624 34.4955 21.5499 34.7687 21.4895 35.0204C21.4292 35.2843 21.2333 35.4562 21.1579 35.6956C21.1489 35.7263 21.1308 35.757 21.1157 35.7846C21.381 35.8552 21.1669 35.9534 21.1277 36.0394C21.1097 36.0793 21.0855 36.1161 21.0614 36.1529C21.1157 36.1192 21.17 36.0885 21.2212 36.0516C21.2664 36.0179 21.3056 35.978 21.3478 35.9411C21.3509 35.9596 21.3629 35.978 21.3599 35.9964C21.3539 36.0609 21.4262 36.1345 21.2936 36.1775C21.0795 36.2481 20.7599 36.199 20.6634 36.3985C20.4554 36.8251 20.1599 37.1505 19.8494 37.4881C19.7529 37.5955 19.6835 37.8472 19.5298 37.9515C19.3217 38.0897 19.0655 38.2585 18.8454 38.237C18.6765 38.2216 18.5801 38.3536 18.4112 38.3137C18.2092 38.2646 18.1519 38.1296 18.0645 37.9914C17.9198 37.7612 17.8022 38.3076 17.7087 38.0283C17.6424 37.8318 17.5791 37.9301 17.558 37.9914C17.5157 38.1111 17.4494 38.0774 17.3831 38.0528C17.2534 38.0006 17.4072 37.9853 17.3982 37.9485C17.3891 37.8994 17.371 37.8503 17.359 37.8011C17.3379 37.8288 17.3198 37.8595 17.2956 37.8779C17.2745 37.8963 17.2595 38.0191 17.2263 37.9239C17.0544 37.442 16.7138 37.7305 16.4454 37.7459C16.3459 37.752 16.3218 37.6845 16.2645 37.6538C16.1982 37.6201 16.2464 37.5771 16.2645 37.531C16.3097 37.3929 16.0444 37.4021 16.1228 37.2395C15.9781 37.3377 15.7399 37.0553 15.6675 37.307C15.6012 37.5341 15.4474 37.4911 15.3208 37.5065C15.1007 37.531 14.8806 37.4359 14.6515 37.4881C14.5851 37.5034 14.4344 37.5126 14.4163 37.3868C14.4073 37.3254 14.4645 37.2333 14.5188 37.1842C14.6183 37.0921 14.5882 36.908 14.751 36.865C14.766 36.8619 14.7721 36.822 14.7811 36.8006C14.76 36.8098 14.7329 36.8159 14.7148 36.8312C14.6424 36.9018 14.5791 36.9816 14.5037 37.0492C14.4465 37.0983 14.3801 37.1351 14.3168 37.1781C14.3108 37.1597 14.2987 37.1412 14.2987 37.1228C14.3078 37.0246 14.3138 36.9264 14.4374 36.9018C14.4585 36.8988 14.4796 36.8804 14.4977 36.8681C14.2897 36.8742 14.4555 36.7207 14.4103 36.6563C14.3892 36.6993 14.365 36.7422 14.347 36.7883C14.2957 36.9049 14.2203 37.0706 14.0997 37.0062C14.0213 36.9663 14.0063 36.7576 14.0002 36.6256C13.9942 36.4844 14.1088 36.4936 14.2264 36.4813C14.3831 36.466 14.5339 36.3985 14.6846 36.3432C14.7178 36.331 14.7359 36.2757 14.76 36.2389C14.7178 36.2327 14.6756 36.2174 14.6334 36.2205C14.5339 36.2143 14.4193 36.2358 14.5248 36.0701C14.5761 36.0915 14.6123 36.0424 14.6605 36.0363C14.6123 36.0424 14.5761 36.0854 14.5248 36.0701Z" fill="url(#paint0_linear)"/>
<path d="M30.4819 13.2683C30.7684 13.2622 30.7503 13.4617 30.7654 13.6704C30.7774 13.8208 30.8739 13.962 30.8437 14.1277C30.7834 14.45 30.9131 14.7201 31.0819 14.981C31.1061 15.0148 31.1091 15.0639 31.1241 15.1038C31.091 15.0823 31.0488 15.0669 31.0246 15.0393C30.9583 14.9564 30.9613 14.981 30.9342 15.0669C30.904 15.1621 30.9161 15.2296 30.9794 15.2849C31.0759 15.3677 31.1573 15.4874 31.3111 15.4567C31.3292 15.4537 31.3442 15.4291 31.3593 15.4168C31.3261 15.4015 31.29 15.3923 31.2598 15.3708C31.2086 15.334 31.1633 15.2941 31.1181 15.2511C31.1121 15.245 31.1241 15.2173 31.1302 15.202C31.1724 15.2327 31.2176 15.2603 31.2598 15.2941C31.7724 15.6931 32.3482 15.9724 32.9512 16.1995C32.9844 16.2118 33.0266 16.221 33.0447 16.2456C33.3733 16.6507 33.7834 16.3837 33.9673 16.1934C34.2869 15.865 34.5974 15.5212 34.9894 15.3094C35.1311 15.2327 35.4597 15.1007 35.6165 15.4261C35.6346 15.4629 35.6738 15.5028 35.713 15.5089C36.0869 15.5857 36.0748 15.7422 35.8698 16.0276C35.6256 16.3683 35.5472 16.7673 35.5472 17.2001C35.5442 17.6237 35.3271 18.0165 34.9532 18.17C34.4557 18.3756 34.6728 18.7869 34.6065 19.1123C34.5974 19.1583 34.7572 19.2719 34.6186 19.3885C34.5643 19.4345 34.5311 19.5021 34.4859 19.5604C34.4708 19.4745 34.4196 19.367 34.4527 19.3026C34.5492 19.1031 34.4678 19.0693 34.2929 19.0233C33.7924 18.8913 33.3311 19.054 32.9754 19.3455C32.7311 19.545 32.505 19.8919 32.7161 20.3062C32.8759 20.6193 32.7342 21.4848 32.4055 21.7488C32.1342 21.9667 32.1643 22.3473 31.9895 22.4793C31.706 22.6972 31.4859 22.9489 31.3231 23.2343C31.0458 23.7162 30.8347 24.2533 30.4156 24.6217C30.1141 24.8887 29.7794 25.1526 29.3724 25.2478C29.2186 25.2846 29.2217 25.125 29.2126 25.0145C29.1885 24.7199 29.0769 24.5787 28.7785 24.7598C28.7453 24.7782 28.6759 24.7905 28.6609 24.7721C28.6096 24.7137 28.5584 24.6493 28.6066 24.5541C28.6428 24.4805 28.6579 24.373 28.5584 24.3516C28.5101 24.3424 28.4378 24.4314 28.3835 24.4835C28.3413 24.5265 28.4136 24.6524 28.293 24.6339C28.2478 24.6278 28.1966 24.5633 28.1754 24.5142C28.1423 24.4375 28.1543 24.3608 28.2297 24.2963C28.8026 23.8083 29.1734 23.1607 29.3061 22.4394C29.4056 21.9023 29.297 21.3283 28.8056 20.9324C28.6367 20.7942 28.4347 20.8495 28.2538 20.7758C28.0036 20.6715 27.8076 20.5211 27.6448 20.3124C27.5393 20.1773 27.4157 20.0822 27.2378 20.0576C26.8941 20.0116 26.6046 19.8643 26.5232 19.4867C26.4267 19.0447 26.8428 18.968 27.0539 18.7348C27.2951 18.4647 27.678 18.6826 27.9131 18.3879C28.088 18.17 28.2689 17.9766 28.2388 17.6851C28.1996 17.3014 28.5161 16.976 28.3955 16.574C28.3684 16.485 28.489 16.5157 28.5614 16.5525C28.5915 16.5678 28.6488 16.6538 28.688 16.5525C28.7061 16.5064 28.7543 16.4389 28.7393 16.4144C28.694 16.3438 28.6609 16.4144 28.6277 16.4481C28.6217 16.4543 28.6066 16.4481 28.5975 16.4481C28.6187 16.4052 28.6367 16.3591 28.6579 16.3192C28.694 16.2578 28.7332 16.1995 28.7694 16.1381C28.697 16.0921 28.6428 16.1044 28.6187 16.1934C28.6096 16.1842 28.5945 16.175 28.5945 16.1627C28.5885 16.0246 28.4408 15.8527 28.6759 15.7637C28.7453 15.736 28.8176 15.7084 28.887 15.6808C28.8388 15.6869 28.7785 15.7146 28.7423 15.6931C28.7001 15.6716 28.6759 15.6102 28.6548 15.5642C28.5523 15.337 28.6006 15.07 28.4528 14.849C28.4046 14.7784 28.4739 14.6802 28.5764 14.7017C28.6488 14.717 28.682 14.6925 28.7121 14.6464C28.7212 14.6311 28.7212 14.5851 28.7151 14.582C28.6699 14.5636 28.6156 14.5298 28.5795 14.5421C28.5131 14.5636 28.4528 14.6188 28.4076 14.5145C28.3111 14.2904 28.2146 14.0694 28.1182 13.8454C28.2056 13.9313 28.293 14.0142 28.3775 14.1032C28.4016 14.1308 28.4197 14.1646 28.4378 14.1983C28.4378 14.1646 28.4378 14.1339 28.4408 14.1001C28.4558 13.9835 28.5372 13.9313 28.6367 13.8975C28.7151 13.873 28.7935 13.8484 28.8749 13.8208C28.7935 13.784 28.7151 13.741 28.6307 13.7134C28.5704 13.6919 28.5433 13.6581 28.5674 13.6029C28.5855 13.5661 28.6277 13.5384 28.6609 13.5077C28.5463 13.4893 28.4257 13.4709 28.3352 13.563C28.1272 13.7686 28.0156 13.7441 27.9403 13.4402C27.8528 13.075 27.6689 12.7527 27.4428 12.455C27.3976 12.3967 27.4006 12.2954 27.3855 12.2156C27.3825 12.2064 27.4006 12.1941 27.4096 12.1849C27.4368 12.2831 27.5755 12.1726 27.6086 12.3076C27.6358 12.4273 27.7322 12.5286 27.8046 12.633C27.8076 12.6391 27.9192 12.811 27.9162 12.6115C27.9162 12.5655 27.9192 12.5194 27.9162 12.4734C27.9131 12.4243 27.895 12.3721 27.8981 12.323C27.9101 12.1511 27.9644 11.9485 27.6719 12.0345C27.6358 12.0437 27.6056 12.0928 27.5845 12.0314C27.5724 11.9915 27.5875 11.9424 27.5996 11.8994C27.6026 11.8933 27.6569 11.9056 27.69 11.9056C27.8378 11.9086 27.9312 11.8012 28.0398 11.7245C28.0247 11.7061 28.0096 11.6907 27.9945 11.6723C27.9523 11.7276 27.9162 11.7736 27.8287 11.7705C27.7714 11.7675 27.7202 11.9209 27.6478 11.8012C27.6327 11.7797 27.7202 11.6938 27.7624 11.6355C27.8076 11.5741 27.8528 11.5127 27.8981 11.4513C27.8649 11.4421 27.8287 11.436 27.7956 11.4268C27.7925 11.4728 27.8076 11.5434 27.7835 11.5618C27.675 11.6447 27.6358 11.4789 27.5393 11.4759C27.488 11.4759 27.6267 11.393 27.5242 11.3838C27.5001 11.3807 27.4398 11.4482 27.4458 11.4697C27.4579 11.5219 27.5001 11.5679 27.5332 11.614C27.5483 11.6355 27.5724 11.6539 27.5935 11.6754C27.5604 11.6846 27.5031 11.7122 27.4941 11.6999C27.3312 11.5096 27.0297 11.4759 26.9544 11.1904C26.9423 11.1444 26.8941 11.1045 26.8609 11.0646C26.8699 11.129 26.8609 11.2058 26.8941 11.2518C27.0448 11.4667 27.2106 11.6723 27.3674 11.8841C27.4126 11.9455 27.4398 12.0191 27.3493 12.059C27.2709 12.0928 27.1443 12.145 27.1142 12.0283C26.9423 11.347 26.4328 10.8866 26.071 10.331C25.9865 10.2021 25.9021 10.0763 25.8087 9.95964C25.7544 9.88904 25.7906 9.83686 25.8207 9.78162C25.8448 9.73558 25.9684 9.81845 25.9323 9.69875C25.9202 9.66191 25.875 9.63429 25.8478 9.6036C25.7996 9.65885 25.67 9.55756 25.673 9.70182C25.673 9.71102 25.6609 9.71716 25.6549 9.72637C25.6398 9.70795 25.6217 9.69261 25.6066 9.67112C25.5011 9.50231 25.3865 9.33964 25.3021 9.16162C25.278 9.10944 24.9162 9.02043 25.3051 8.91608C25.4529 8.87618 25.4167 8.62449 25.3232 8.46796C25.0579 8.02598 24.7835 7.59014 24.4006 7.24024C24.3222 7.16965 24.3946 7.09598 24.4217 7.10519C24.6599 7.1942 24.8559 7.04074 25.07 7.00084C25.082 6.99777 25.1001 7.00391 25.1122 7.00698C25.1061 7.02539 25.1031 7.04688 25.0971 7.06529C24.9946 7.35687 25.0519 7.59321 25.2388 7.8541C25.3504 8.00757 25.5886 8.13034 25.5343 8.39123C25.5313 8.40657 25.5765 8.44954 25.5886 8.44647C25.6277 8.43113 25.6609 8.40043 25.6971 8.37588C25.5433 8.17945 25.8117 8.15182 25.8328 8.02598C25.8358 8.01677 25.8599 8.00143 25.8599 8.00143C25.8991 8.04133 25.9383 8.0843 25.9775 8.12727C25.9534 8.14875 25.9323 8.17331 25.9051 8.18865C25.8659 8.20707 25.7845 8.18558 25.8056 8.26539C25.8207 8.32984 25.8539 8.40657 25.9021 8.44034C25.9534 8.4741 26.089 8.4741 26.0921 8.46489C26.1644 8.16103 26.3544 8.38509 26.4297 8.41578C26.7162 8.53241 26.9875 8.69202 27.2619 8.84241C27.289 8.85776 27.3041 8.90073 27.3222 8.93142C27.289 8.9437 27.2498 8.97439 27.2257 8.96519C27.1805 8.94984 27.1413 8.90994 27.0991 8.87924C27.0931 8.89152 27.084 8.9038 27.084 8.91301C27.087 8.94677 27.2287 8.94984 27.1081 9.01736C27.2619 9.06954 27.2348 9.23835 27.3162 9.3335C27.3403 9.36112 27.4247 9.33657 27.482 9.3335C27.491 9.3335 27.4971 9.32122 27.5061 9.31508C27.4699 9.30281 27.4277 9.29667 27.3976 9.27518C27.3704 9.25677 27.3554 9.21994 27.3343 9.18924C27.3554 9.18924 27.3855 9.17697 27.4006 9.18617C27.479 9.24756 27.494 9.16469 27.5363 9.134C27.6056 9.08489 27.684 9.05113 27.7564 9.00816C27.6147 9.12479 27.7805 9.2537 27.7473 9.38261C27.7322 9.43786 27.7986 9.533 27.8498 9.58518C28.0277 9.76627 28.2177 9.93508 28.1091 10.2359C28.094 10.2819 28.1393 10.3494 28.1453 10.4078C28.1574 10.4968 28.3654 10.6195 28.1001 10.6686C28.0579 10.6779 28.0156 10.7914 28.0066 10.862C27.9885 11.0001 28.0428 11.126 28.1574 11.2058C28.3865 11.3654 28.3986 11.7214 28.697 11.8104C28.5101 11.8442 28.89 12.145 28.5614 12.1081C28.5704 12.1419 28.5825 12.1726 28.5855 12.2064C28.5885 12.2401 28.5825 12.277 28.5764 12.3107C28.5764 12.3138 28.5463 12.3199 28.5403 12.3169C28.5131 12.277 28.486 12.2371 28.4619 12.1972C28.4709 12.3414 28.4769 12.4887 28.4981 12.6299C28.5011 12.6483 28.5764 12.6606 28.6187 12.6668C28.6518 12.6698 28.685 12.6606 28.7182 12.6545C28.691 12.6698 28.6669 12.6974 28.6398 12.7036C28.5011 12.7373 28.5493 12.8325 28.5764 12.9123C28.6398 13.1026 28.7121 13.2929 28.7815 13.4801C28.7875 13.4924 28.7875 13.5077 28.7875 13.5231C28.8146 13.3328 28.9382 13.4095 29.0408 13.431C29.0287 13.3604 29.1011 13.3604 29.1161 13.3788C29.2789 13.5968 29.7613 13.5077 29.6679 13.9773C29.6498 14.0756 29.6619 14.2075 29.7794 14.2536C29.9 14.3027 30.0176 14.2628 30.1201 14.183C30.2287 14.094 30.0598 14.0449 30.087 13.9804C30.2015 13.7165 29.8548 13.5446 29.9664 13.2714C30.0719 13.0197 30.0478 12.7742 29.8247 12.5716C29.7825 12.5317 29.7764 12.4488 29.7644 12.3813C29.7613 12.3721 29.8548 12.3383 29.8578 12.3383C29.9242 12.4673 30.1232 12.3905 30.1684 12.5532C30.2166 12.7251 30.2618 12.897 30.3312 13.0596C30.3644 13.1364 30.4035 13.0381 30.4397 13.0228C30.5272 12.989 30.6357 12.8939 30.7081 12.989C30.7804 13.0842 30.6236 13.0504 30.5995 13.1087C30.5724 13.1701 30.5332 13.2254 30.5 13.2837L30.4819 13.2683Z" fill="url(#paint1_linear)"/>
<path d="M17.0275 38.9956C16.937 38.9956 16.8677 38.9742 16.8315 39.0018C16.7923 39.0325 16.7803 39.1031 16.7561 39.1553C16.7983 39.1307 16.8496 39.0724 16.8797 39.0816C17.0184 39.1307 17.2265 39.1675 17.2627 39.2688C17.3079 39.3916 17.124 39.4683 17.0124 39.5635C16.7742 39.763 16.322 39.5512 16.2315 39.9962C16.2285 40.0054 16.135 39.9962 16.0838 39.9962C16.0868 39.9441 16.0687 39.8827 16.0928 39.8428C16.2104 39.6463 16.2496 39.3455 16.3672 39.2381C16.6174 39.011 16.3913 38.879 16.3732 38.7102C16.3551 38.5322 16.5089 38.523 16.5963 38.4861C16.6898 38.4462 16.7772 38.5383 16.8375 38.6273C16.8948 38.7133 16.9581 38.7931 17.0245 38.8759C17.0516 38.9097 17.0908 38.9404 17.1209 38.9711C17.0787 38.9803 17.0365 38.9956 17.0275 38.9956Z" fill="url(#paint2_linear)"/>
<path d="M14.5248 36.0703C14.5429 36.0672 14.564 36.0642 14.5821 36.055C14.6544 36.0181 14.7238 35.9782 14.7931 35.9414C14.7931 35.9537 14.7931 35.9752 14.7871 35.9752C14.6996 36.0089 14.6122 36.0366 14.5248 36.0703C14.5248 36.0703 14.5218 36.0672 14.5248 36.0703Z" fill="url(#paint3_linear)"/>
<path d="M30.4797 13.2695C30.4797 13.3125 30.4797 13.3585 30.4767 13.4015C30.4646 13.3954 30.4496 13.3923 30.4375 13.3862C30.4526 13.3493 30.4677 13.3094 30.4797 13.2726C30.4827 13.2726 30.4797 13.2695 30.4797 13.2695Z" fill="url(#paint4_linear)"/>
<defs>
<linearGradient id="paint0_linear" x1="11.3805" y1="18.4035" x2="29.5085" y2="26.5141" gradientUnits="userSpaceOnUse">
<stop stop-color="#00BAAF"/>
<stop offset="0.934573" stop-color="#6D69FB"/>
<stop offset="1" stop-color="#6D69FB"/>
</linearGradient>
<linearGradient id="paint1_linear" x1="22.1345" y1="2.3924" x2="38.8233" y2="7.9323" gradientUnits="userSpaceOnUse">
<stop stop-color="#00BAAF"/>
<stop offset="0.934573" stop-color="#6D69FB"/>
<stop offset="1" stop-color="#6D69FB"/>
</linearGradient>
<linearGradient id="paint2_linear" x1="15.8522" y1="38.0919" x2="17.4767" y2="38.7517" gradientUnits="userSpaceOnUse">
<stop stop-color="#00BAAF"/>
<stop offset="0.934573" stop-color="#6D69FB"/>
<stop offset="1" stop-color="#6D69FB"/>
</linearGradient>
<linearGradient id="paint3_linear" x1="14.4718" y1="35.9089" x2="14.6682" y2="36.1226" gradientUnits="userSpaceOnUse">
<stop stop-color="#00BAAF"/>
<stop offset="0.934573" stop-color="#6D69FB"/>
<stop offset="1" stop-color="#6D69FB"/>
</linearGradient>
<linearGradient id="paint4_linear" x1="30.4292" y1="13.2362" x2="30.4965" y2="13.2478" gradientUnits="userSpaceOnUse">
<stop stop-color="#00BAAF"/>
<stop offset="0.934573" stop-color="#6D69FB"/>
<stop offset="1" stop-color="#6D69FB"/>
</linearGradient>
</defs>
</svg>
