<svg width="50" height="50" viewBox="0 0 50 50" fill="none" xmlns="http://www.w3.org/2000/svg">
<path d="M41 25.6448V29.2729C41 31.1921 39.422 32.7476 37.4753 32.7476H26.4793C25.8755 32.7476 25.3904 33.2446 25.4186 33.8457C25.4469 34.415 25.9464 34.8403 26.5095 34.8403H29.11C29.697 34.8403 30.1719 35.3093 30.1719 35.8872V38.5032C30.1719 40.4348 28.5836 42 26.6252 42H23.5403C21.5811 42 19.9927 40.4348 19.9927 38.5032V29.2871H12.5247C10.578 29.2871 9 27.7314 9 25.8123V22.7266C9 20.8074 10.578 19.2517 12.5247 19.2517H19.9927V19.2512H23.2114C23.8139 19.2512 24.2995 18.7561 24.272 18.155C24.2451 17.592 23.7535 17.158 23.1812 17.158H21.0546C20.4685 17.158 19.9927 16.6895 19.9927 16.1116V13.4968C19.9927 11.5652 21.5811 10 23.5403 10H26.6252C28.5803 10 30.1663 11.5593 30.1719 13.4871V22.1699H37.4753C39.422 22.1699 41 23.7263 41 25.6448Z" fill="url(#paint0_linear)"/>
<path d="M30.172 13.4871V22.1699V23.6045C30.172 24.761 29.2217 25.6978 28.0486 25.6978H21.0546C20.4685 25.6978 19.9927 26.167 19.9927 26.7441V29.2871H12.5247C10.578 29.2871 9 27.731 9 25.8123V22.7266C9 20.8079 10.578 19.2517 12.5247 19.2517H19.9927V19.2512H23.2114C23.8139 19.2512 24.2995 18.7561 24.272 18.155C24.2451 17.592 23.7535 17.158 23.1812 17.158H21.0546C20.4685 17.158 19.9927 16.6895 19.9927 16.1116V13.4968C19.9927 11.5652 21.5811 10 23.5403 10H26.6252C28.5803 10 30.1663 11.5593 30.172 13.4871Z" fill="url(#paint1_linear)"/>
<path fill-rule="evenodd" clip-rule="evenodd" d="M22.2924 15.9644C22.8785 15.9644 23.3538 15.4959 23.3538 14.9182C23.3538 14.3403 22.8785 13.8711 22.2924 13.8711C21.7055 13.8711 21.2305 14.3403 21.2305 14.9182C21.2305 15.4959 21.7055 15.9644 22.2924 15.9644ZM28.1143 38.3685C28.7005 38.3685 29.1755 37.9 29.1755 37.3222C29.1755 36.7443 28.7005 36.276 28.1143 36.276C27.5282 36.276 27.0529 36.7443 27.0529 37.3222C27.0529 37.9 27.5282 38.3685 28.1143 38.3685Z" fill="white"/>
<defs>
<linearGradient id="paint0_linear" x1="2.87092" y1="1.92233" x2="42.9336" y2="22.7651" gradientUnits="userSpaceOnUse">
<stop stop-color="#00BAAF"/>
<stop offset="0.934573" stop-color="#6D69FB"/>
<stop offset="1" stop-color="#6D69FB"/>
</linearGradient>
<linearGradient id="paint1_linear" x1="4.94486" y1="5.13141" x2="30.3422" y2="19.6357" gradientUnits="userSpaceOnUse">
<stop stop-color="#00BAAF"/>
<stop offset="0.934573" stop-color="#6D69FB"/>
<stop offset="1" stop-color="#6D69FB"/>
</linearGradient>
</defs>
</svg>
