<svg width="55" height="50" viewBox="0 0 55 50" fill="none" xmlns="http://www.w3.org/2000/svg">
<path d="M41.4854 30.159C40.222 29.7369 40.2327 29.12 40.1709 28.0071C40.0446 25.8001 39.4706 23.6159 37.679 22.1078C37.0002 21.5393 36.4558 20.8215 35.8187 20.3309C34.5217 19.3282 34.2502 17.1804 32.9921 16.843C31.3913 16.4129 30.4558 15.4411 29.3402 14.5298C28.7649 14.0621 28.0754 14.0943 27.3859 14.0244C25.2864 13.8067 23.2245 15.1266 21.3388 14.7072C19.0592 14.1992 18.8105 15.6911 18.4543 16.8538C17.582 19.6979 16.2137 22.0527 13 23.6522C15.6035 23.663 16.1371 25.4237 16.8643 26.8606C17.4732 28.0608 17.7016 29.5138 19.5484 29.2262C20.914 29.0178 22.3885 29.9144 23.6775 28.7315C24.0512 28.3888 24.7729 28.0165 25.1466 28.1563C27.0754 28.874 28.8832 29.9211 31.062 29.8915C29.4759 31.1093 28.0391 30.5098 26.5633 29.8942C25.9746 29.6482 25.441 29.0582 24.6627 29.4143C22.6278 30.3431 20.617 31.1805 18.2608 31.1536C16.3213 31.1308 17.332 32.8808 17.1371 33.8647C17.0081 34.5071 16.8885 35.3714 18.0108 35.2276C19.7568 35.0004 21.5565 34.9077 23.2138 34.3794C26.9437 33.1939 30.9397 33.1778 34.3805 34.1415C37.3389 34.9722 40.0647 35.0098 42.9962 34.991C43.0069 34.2948 42.9411 33.6402 42.9908 32.9749C43.0742 31.7934 42.5916 30.5286 41.4854 30.159Z" fill="url(#paint0_linear)"/>
<defs>
<linearGradient id="paint0_linear" x1="7.25399" y1="8.63758" x2="38.2482" y2="31.4091" gradientUnits="userSpaceOnUse">
<stop stop-color="#00BAAF"/>
<stop offset="0.934573" stop-color="#6D69FB"/>
<stop offset="1" stop-color="#6D69FB"/>
</linearGradient>
</defs>
</svg>
