<svg width="50" height="50" viewBox="0 0 50 50" fill="none" xmlns="http://www.w3.org/2000/svg">
<path d="M25.0771 14.5486C26.8683 14.5486 28.3203 13.3065 28.3203 11.7743C28.3203 10.2421 26.8683 9 25.0771 9C23.286 9 21.834 10.2421 21.834 11.7743C21.834 13.3065 23.286 14.5486 25.0771 14.5486Z" fill="url(#paint0_linear)"/>
<path d="M26.2084 15.8715C25.4004 15.7312 24.5217 15.7373 23.7281 15.8974C18.3363 16.4378 16.5855 21.7765 17.0799 25.8471C17.2943 27.6069 20.5374 27.6254 20.3208 25.8471C20.141 24.3636 20.2179 22.1249 21.1397 20.5337C21.1397 22.4677 21.1397 24.4018 21.1397 26.3352C21.1397 26.4035 21.1476 26.4676 21.1512 26.5334C21.1491 26.5648 21.1404 26.5913 21.1404 26.6233C21.1404 31.227 21.1311 35.8288 20.9087 40.4288C20.8102 42.4736 24.5167 42.4656 24.6146 40.4288C24.7887 36.8235 24.8326 33.2164 24.8427 29.6087C25.0183 29.6185 25.1938 29.6185 25.3694 29.6099C25.3802 33.2176 25.4227 36.8247 25.5954 40.4288C25.6939 42.4656 29.4005 42.4736 29.3012 40.4288C29.0788 35.8288 29.0709 31.227 29.0709 26.6233C29.0709 26.4805 29.0486 26.3506 29.0148 26.2256C29.0098 24.227 28.9205 22.2264 28.9479 20.229C30.0517 21.8276 30.1525 24.2657 29.961 25.8458C29.7437 27.6229 32.9876 27.6051 33.202 25.8458C33.7079 21.6909 31.873 16.2138 26.2084 15.8715Z" fill="url(#paint1_linear)"/>
<defs>
<linearGradient id="paint0_linear" x1="20.5916" y1="7.59939" x2="28.1241" y2="12.1805" gradientUnits="userSpaceOnUse">
<stop stop-color="#00BAAF"/>
<stop offset="0.934573" stop-color="#6D69FB"/>
<stop offset="1" stop-color="#6D69FB"/>
</linearGradient>
<linearGradient id="paint1_linear" x1="13.8814" y1="9.16094" x2="37.33" y2="16.7458" gradientUnits="userSpaceOnUse">
<stop stop-color="#00BAAF"/>
<stop offset="0.934573" stop-color="#6D69FB"/>
<stop offset="1" stop-color="#6D69FB"/>
</linearGradient>
</defs>
</svg>
