<svg width="50" height="50" viewBox="0 0 50 50" fill="none" xmlns="http://www.w3.org/2000/svg">
<path d="M24.5939 16.3702C25.9132 16.3702 26.9827 15.3919 26.9827 14.1851C26.9827 12.9783 25.9132 12 24.5939 12C23.2746 12 22.2051 12.9783 22.2051 14.1851C22.2051 15.3919 23.2746 16.3702 24.5939 16.3702Z" fill="url(#paint0_linear)"/>
<path d="M25.4272 17.4128C24.8319 17.3022 24.1848 17.3071 23.6002 17.4331C19.6288 17.8588 18.3392 22.0636 18.7034 25.2697C18.8613 26.6558 21.2501 26.6703 21.0906 25.2697C20.958 24.1013 21.0148 22.338 21.6937 21.0848C21.6937 22.6081 21.6937 24.1314 21.6937 25.6542C21.6937 25.708 21.6995 25.7584 21.7022 25.8103C21.7006 25.835 21.6942 25.8559 21.6942 25.8811C21.6942 29.507 21.6874 33.1315 21.5236 36.7545C21.451 38.3651 24.1811 38.3588 24.2532 36.7545C24.3814 33.915 24.4138 31.0739 24.4212 28.2324C24.5505 28.2402 24.6798 28.2402 24.8092 28.2334C24.8171 31.0749 24.8484 33.9159 24.9756 36.7545C25.0482 38.3588 27.7783 38.3651 27.7052 36.7545C27.5414 33.1315 27.5356 29.507 27.5356 25.8811C27.5356 25.7686 27.5191 25.6663 27.4942 25.5679C27.4905 23.9937 27.4248 22.418 27.4449 20.8448C28.258 22.1039 28.3322 24.0242 28.1912 25.2687C28.0311 26.6684 30.4204 26.6543 30.5784 25.2687C30.951 21.9962 29.5994 17.6823 25.4272 17.4128Z" fill="url(#paint1_linear)"/>
<path d="M13.5451 16.3702C14.8644 16.3702 15.9339 15.3919 15.9339 14.1851C15.9339 12.9783 14.8644 12 13.5451 12C12.2258 12 11.1562 12.9783 11.1562 14.1851C11.1562 15.3919 12.2258 16.3702 13.5451 16.3702Z" fill="url(#paint2_linear)"/>
<path d="M14.3783 17.4128C13.7831 17.3022 13.136 17.3071 12.5514 17.4331C8.57994 17.8588 7.29041 22.0636 7.65453 25.2697C7.81247 26.6558 10.2013 26.6703 10.0417 25.2697C9.90922 24.1013 9.96593 22.338 10.6449 21.0848C10.6449 22.6081 10.6449 24.1314 10.6449 25.6542C10.6449 25.708 10.6507 25.7584 10.6534 25.8103C10.6518 25.835 10.6454 25.8559 10.6454 25.8811C10.6454 29.507 10.6385 33.1315 10.4747 36.7545C10.4021 38.3651 13.1323 38.3588 13.2043 36.7545C13.3326 33.915 13.3649 31.0739 13.3724 28.2324C13.5017 28.2402 13.631 28.2402 13.7603 28.2334C13.7683 31.0749 13.7995 33.9159 13.9267 36.7545C13.9994 38.3588 16.7295 38.3651 16.6563 36.7545C16.4926 33.1315 16.4867 29.507 16.4867 25.8811C16.4867 25.7686 16.4703 25.6663 16.4454 25.5679C16.4417 23.9937 16.376 22.418 16.3961 20.8448C17.2091 22.1039 17.2833 24.0242 17.1424 25.2687C16.9823 26.6684 19.3716 26.6543 19.5296 25.2687C19.9022 21.9962 18.5506 17.6823 14.3783 17.4128Z" fill="url(#paint3_linear)"/>
<path d="M35.6427 16.3702C36.962 16.3702 38.0315 15.3919 38.0315 14.1851C38.0315 12.9783 36.962 12 35.6427 12C34.3234 12 33.2539 12.9783 33.2539 14.1851C33.2539 15.3919 34.3234 16.3702 35.6427 16.3702Z" fill="url(#paint4_linear)"/>
<path d="M36.476 17.4128C35.8808 17.3022 35.2336 17.3071 34.649 17.4331C30.6776 17.8588 29.3881 22.0636 29.7522 25.2697C29.9101 26.6558 32.2989 26.6703 32.1394 25.2697C32.0069 24.1013 32.0636 22.338 32.7425 21.0848C32.7425 22.6081 32.7425 24.1314 32.7425 25.6542C32.7425 25.708 32.7484 25.7584 32.751 25.8103C32.7494 25.835 32.7431 25.8559 32.7431 25.8811C32.7431 29.507 32.7362 33.1315 32.5724 36.7545C32.4998 38.3651 35.2299 38.3588 35.302 36.7545C35.4303 33.915 35.4626 31.0739 35.47 28.2324C35.5993 28.2402 35.7287 28.2402 35.858 28.2334C35.8659 31.0749 35.8972 33.9159 36.0244 36.7545C36.097 38.3588 38.8271 38.3651 38.754 36.7545C38.5902 33.1315 38.5844 29.507 38.5844 25.8811C38.5844 25.7686 38.568 25.6663 38.543 25.5679C38.5393 23.9937 38.4736 22.418 38.4938 20.8448C39.3068 22.1039 39.381 24.0242 39.24 25.2687C39.08 26.6684 41.4693 26.6543 41.6272 25.2687C41.9998 21.9962 40.6483 17.6823 36.476 17.4128Z" fill="url(#paint5_linear)"/>
<defs>
<linearGradient id="paint0_linear" x1="21.29" y1="10.8969" x2="27.0326" y2="14.163" gradientUnits="userSpaceOnUse">
<stop stop-color="#00BAAF"/>
<stop offset="0.934573" stop-color="#6D69FB"/>
<stop offset="1" stop-color="#6D69FB"/>
</linearGradient>
<linearGradient id="paint1_linear" x1="16.3475" y1="12.1274" x2="33.8266" y2="17.4148" gradientUnits="userSpaceOnUse">
<stop stop-color="#00BAAF"/>
<stop offset="0.934573" stop-color="#6D69FB"/>
<stop offset="1" stop-color="#6D69FB"/>
</linearGradient>
<linearGradient id="paint2_linear" x1="10.2412" y1="10.8969" x2="15.9838" y2="14.163" gradientUnits="userSpaceOnUse">
<stop stop-color="#00BAAF"/>
<stop offset="0.934573" stop-color="#6D69FB"/>
<stop offset="1" stop-color="#6D69FB"/>
</linearGradient>
<linearGradient id="paint3_linear" x1="5.29865" y1="12.1274" x2="22.7778" y2="17.4148" gradientUnits="userSpaceOnUse">
<stop stop-color="#00BAAF"/>
<stop offset="0.934573" stop-color="#6D69FB"/>
<stop offset="1" stop-color="#6D69FB"/>
</linearGradient>
<linearGradient id="paint4_linear" x1="32.3388" y1="10.8969" x2="38.0815" y2="14.163" gradientUnits="userSpaceOnUse">
<stop stop-color="#00BAAF"/>
<stop offset="0.934573" stop-color="#6D69FB"/>
<stop offset="1" stop-color="#6D69FB"/>
</linearGradient>
<linearGradient id="paint5_linear" x1="27.3963" y1="12.1274" x2="44.8754" y2="17.4148" gradientUnits="userSpaceOnUse">
<stop stop-color="#00BAAF"/>
<stop offset="0.934573" stop-color="#6D69FB"/>
<stop offset="1" stop-color="#6D69FB"/>
</linearGradient>
</defs>
</svg>
