<svg width="37" height="37" viewBox="0 0 37 37" fill="none" xmlns="http://www.w3.org/2000/svg">
<path d="M12.1761 21.3175C12.1761 22.4696 11.245 23.4007 10.0929 23.4007C8.94087 23.4007 8.00977 22.4696 8.00977 21.3175C8.00977 20.1655 8.94087 19.2344 10.0929 19.2344H12.1761V21.3175Z" fill="white"/>
<path d="M13.2168 21.3175C13.2168 20.1655 14.1479 19.2344 15.2999 19.2344C16.452 19.2344 17.3831 20.1655 17.3831 21.3175V26.5254C17.3831 27.6774 16.452 28.6085 15.2999 28.6085C14.1479 28.6085 13.2168 27.6774 13.2168 26.5254V21.3175Z" fill="white"/>
<path d="M15.2999 12.9515C14.1479 12.9515 13.2168 12.0203 13.2168 10.8683C13.2168 9.71626 14.1479 8.78516 15.2999 8.78516C16.452 8.78516 17.3831 9.71626 17.3831 10.8683V12.9515H15.2999Z" fill="white"/>
<path d="M15.3009 14.0078C16.453 14.0078 17.3841 14.9389 17.3841 16.091C17.3841 17.243 16.453 18.1741 15.3009 18.1741H10.0773C8.92524 18.1741 7.99414 17.243 7.99414 16.091C7.99414 14.9389 8.92524 14.0078 10.0773 14.0078H15.3009Z" fill="white"/>
<path d="M23.6504 16.091C23.6504 14.9389 24.5815 14.0078 25.7335 14.0078C26.8856 14.0078 27.8167 14.9389 27.8167 16.091C27.8167 17.243 26.8856 18.1741 25.7335 18.1741H23.6504V16.091Z" fill="white"/>
<path d="M22.6077 16.092C22.6077 17.244 21.6766 18.1751 20.5246 18.1751C19.3725 18.1751 18.4414 17.244 18.4414 16.092V10.8683C18.4414 9.71626 19.3725 8.78516 20.5246 8.78516C21.6766 8.78516 22.6077 9.71626 22.6077 10.8683V16.092Z" fill="white"/>
<path d="M20.5246 24.4414C21.6766 24.4414 22.6077 25.3725 22.6077 26.5246C22.6077 27.6766 21.6766 28.6077 20.5246 28.6077C19.3725 28.6077 18.4414 27.6766 18.4414 26.5246V24.4414H20.5246Z" fill="white"/>
<path d="M20.5246 23.4007C19.3725 23.4007 18.4414 22.4696 18.4414 21.3175C18.4414 20.1655 19.3725 19.2344 20.5246 19.2344H25.7482C26.9003 19.2344 27.8314 20.1655 27.8314 21.3175C27.8314 22.4696 26.9003 23.4007 25.7482 23.4007H20.5246Z" fill="white"/>
</svg>
