<svg width="55" height="50" viewBox="0 0 55 50" fill="none" xmlns="http://www.w3.org/2000/svg">
<g clip-path="url(#clip0)">
<path d="M21.9456 22.366C20.2749 23.4848 19.7816 25.0969 21.1225 26.7962C22.1963 28.1575 22.9621 29.9386 24.2581 30.8816C25.9887 32.1435 26.5297 33.701 26.9399 35.523C27.2737 37.0138 27.6131 38.5032 27.9469 40.0008C30.4625 39.1464 31.1139 38.1557 30.6137 35.6783C30.4843 35.0433 30.4911 34.5827 30.9571 34.2039C31.9083 33.4312 32.7954 32.337 33.8924 32.0331C36.2404 31.379 35.6408 29.5611 35.3832 28.2788C35.2033 27.3794 34.4934 26.2279 32.9453 25.9867C32.0787 25.8491 30.5538 25.6324 30.2772 24.1703C30.021 22.8307 31.3428 22.719 31.9533 22.0567C34.4225 19.3735 34.8109 18.4864 32.4289 16.3715C31.6998 15.7215 31.4423 14.8766 32.4057 14.074C32.8268 13.7278 33.1538 13.2713 33.4904 12.8366C33.8066 12.4224 34.4484 12.0108 33.9265 11.4194C33.3719 10.7885 32.9644 11.7138 32.4766 11.6933C31.9887 11.6729 31.4668 13.2114 31.0484 11.7219C30.5456 9.95177 29.2715 9.81277 27.8393 10.1357C25.6671 10.6263 23.2701 12.6036 23.3205 13.8614C23.3832 15.3713 23.2483 16.8743 23.4623 18.3965C23.6653 19.89 23.4691 21.344 21.9456 22.366Z" fill="url(#paint0_linear)"/>
</g>
<defs>
<linearGradient id="paint0_linear" x1="17.4222" y1="2.42453" x2="40.1539" y2="8.45315" gradientUnits="userSpaceOnUse">
<stop stop-color="#00BAAF"/>
<stop offset="0.934573" stop-color="#6D69FB"/>
<stop offset="1" stop-color="#6D69FB"/>
</linearGradient>
<clipPath id="clip0">
<rect width="30" height="30" fill="white" transform="translate(13 10)"/>
</clipPath>
</defs>
</svg>
