<svg width="37" height="37" viewBox="0 0 37 37" fill="none" xmlns="http://www.w3.org/2000/svg">
<path d="M30.8184 9.97071C30.221 10.2461 29.6009 10.4634 28.9646 10.6207C29.6658 9.92797 30.1929 9.06149 30.4903 8.09435C30.5752 7.81824 30.2868 7.57949 30.047 7.72732C29.1618 8.27326 28.2083 8.68281 27.2128 8.94474C27.1551 8.95994 27.0955 8.96764 27.0357 8.96764C26.8544 8.96764 26.6781 8.89764 26.5395 8.7706C25.4804 7.80011 24.1183 7.26562 22.7041 7.26562C22.0922 7.26562 21.4744 7.36479 20.8678 7.5604C18.9882 8.16652 17.538 9.77851 17.083 11.7673C16.9123 12.5133 16.8661 13.26 16.9456 13.9865C16.9547 14.07 16.9167 14.1283 16.8933 14.1556C16.8522 14.2035 16.7939 14.231 16.7334 14.231C16.7267 14.231 16.7197 14.2307 16.7128 14.23C12.5986 13.8326 8.88863 11.7717 6.26621 8.42709C6.13248 8.25649 5.87604 8.27742 5.76945 8.46751C5.25591 9.38354 4.98453 10.4312 4.98453 11.4974C4.98453 13.1312 5.61586 14.671 6.71249 15.7934C6.25133 15.6797 5.80498 15.5007 5.39036 15.2613C5.18977 15.1454 4.94297 15.2943 4.94015 15.5329C4.91143 17.9601 6.2782 20.1198 8.32567 21.0924C8.28444 21.0934 8.2432 21.0939 8.20191 21.0939C7.87736 21.0939 7.54874 21.0613 7.22531 20.997C6.99941 20.9522 6.80964 21.175 6.87978 21.4027C7.54435 23.5599 9.33079 25.15 11.4686 25.5111C9.69434 26.7494 7.62819 27.4026 5.47774 27.4026L4.80734 27.4022C4.60078 27.4022 4.42608 27.5422 4.37345 27.7502C4.32159 27.9551 4.4171 28.1712 4.59324 28.2778C7.01646 29.744 9.78048 30.519 12.5877 30.519C15.0449 30.519 17.3435 30.0119 19.4195 29.0121C21.3227 28.0954 23.0045 26.7851 24.4182 25.1175C25.7352 23.5641 26.765 21.7708 27.479 19.7876C28.1596 17.8971 28.5194 15.8799 28.5194 13.9541V13.8623C28.5193 13.5531 28.6538 13.2621 28.8885 13.0641C29.779 12.3123 30.5545 11.4274 31.1933 10.4338C31.362 10.1715 31.096 9.84271 30.8184 9.97071Z" fill="white"/>
</svg>
