<svg width="50" height="50" viewBox="0 0 50 50" fill="none" xmlns="http://www.w3.org/2000/svg">
<path d="M37.8857 19.6068C35.7119 14.5125 30.6604 11 24.9453 11C17.1726 11 11 17.4125 11 25.0547C11 32.7623 17.2371 39 24.9453 39C32.5959 39 39 32.8187 39 25.0547C39 23.1726 38.6251 21.3397 37.8857 19.6068ZM36.6353 20.8768C35.1985 19.7396 33.3418 18.9461 31.564 18.4412C31.0594 16.6616 30.2676 14.8046 29.1209 13.3639C32.6116 14.6145 35.384 17.3864 36.6353 20.8768ZM31.627 24.2349C32.0748 24.2402 32.4375 24.6056 32.4375 25.0547C32.4375 25.5037 32.0748 25.8691 31.627 25.8745C31.6238 25.8743 31.6207 25.8736 31.6176 25.8735C31.6038 25.8726 31.5904 25.8731 31.5768 25.873C31.1435 25.8517 30.7972 25.4937 30.7969 25.0552C30.7969 25.0551 30.7969 25.0549 30.7969 25.0547C30.7969 25.0545 30.7969 25.0544 30.7969 25.0541C30.7972 24.6213 31.1346 24.2668 31.56 24.2373C31.562 24.2373 31.5639 24.2375 31.5658 24.2375C31.583 24.2375 31.6002 24.237 31.6176 24.2359C31.6207 24.2357 31.6238 24.2351 31.627 24.2349ZM25.7656 12.7768C27.3377 13.296 28.7735 15.2671 29.7047 18.0023C28.4466 17.7618 27.1224 17.6172 25.7656 17.5756V12.7768ZM25.7656 19.2169C27.3191 19.2674 28.8212 19.4609 30.213 19.7851C30.4337 20.7278 30.5975 21.7312 30.6939 22.7742C30.0445 23.038 29.5326 23.5711 29.2973 24.2344H25.7656V19.2169ZM25.7656 25.875H29.2973C29.5326 26.5384 30.0446 27.0715 30.6941 27.3353C30.6022 28.3362 30.4484 29.3057 30.2376 30.2243C29.2823 30.4415 28.2712 30.6001 27.2261 30.6946C26.9624 30.0449 26.4291 29.5327 25.7656 29.2973V25.875ZM20.7657 13.3785C20.2142 14.0843 19.713 14.9366 19.277 15.9237C19.2523 15.923 19.2279 15.9219 19.2031 15.9219C17.6392 15.9219 16.4556 17.375 16.8023 18.9213C15.4505 19.4327 14.296 20.076 13.3814 20.8109C14.6277 17.365 17.3465 14.6281 20.7657 13.3785ZM20.0234 18.3828C20.0234 18.8351 19.6554 19.2031 19.2031 19.2031C18.7508 19.2031 18.3828 18.8351 18.3828 18.3828C18.3828 17.9305 18.7508 17.5625 19.2031 17.5625C19.6554 17.5625 20.0234 17.9305 20.0234 18.3828ZM17.7091 20.3365C17.7825 20.3927 17.8589 20.4451 17.9384 20.493C17.7379 21.666 17.6131 22.9536 17.5752 24.2344H12.7742C13.2654 22.7128 15.0835 21.2607 17.7091 20.3365ZM17.5749 25.875C17.6148 27.2342 17.7533 28.5354 17.9775 29.7547C15.2339 28.8513 13.2863 27.4445 12.7746 25.875H17.5749ZM13.3688 29.2253C14.7978 30.3469 16.6306 31.1072 18.3969 31.5942C18.9576 33.6318 19.776 35.3593 20.7764 36.6318C17.3404 35.3907 14.6104 32.6611 13.3688 29.2253ZM24.125 37.2205C22.1771 36.567 20.884 33.9602 20.2409 32.0167C21.0013 32.1577 21.7877 32.2645 22.5915 32.3352C22.8195 33.0812 23.3932 33.6775 24.125 33.937V37.2205ZM24.125 29.2973C23.4615 29.5327 22.9283 30.0448 22.6646 30.6944C21.6453 30.6018 20.6689 30.4479 19.7527 30.242C19.4471 28.8785 19.2646 27.4043 19.2165 25.875H24.125V29.2973ZM24.125 24.2344H19.2165C19.2531 23.063 19.3666 21.8896 19.5472 20.8192C20.3734 20.703 21.0693 20.1756 21.42 19.4508C22.2998 19.324 23.2055 19.2466 24.125 19.2173V24.2344ZM24.125 17.5761C23.2658 17.6018 22.4173 17.6675 21.5876 17.7734C21.4611 17.2785 21.1837 16.8437 20.8082 16.5197C21.7066 14.5181 22.8893 13.1922 24.125 12.7791V17.5761ZM24.9453 32.4375C24.4963 32.4375 24.1309 32.0748 24.1255 31.627C24.1257 31.6239 24.1264 31.6208 24.1265 31.6176C24.1274 31.604 24.1268 31.5907 24.127 31.5773C24.148 31.1435 24.5064 30.7969 24.9453 30.7969C25.3842 30.7969 25.7426 31.1435 25.7636 31.5773C25.7638 31.5908 25.7632 31.6041 25.7641 31.6176C25.7643 31.6208 25.7649 31.6239 25.7651 31.627C25.7598 32.0748 25.3944 32.4375 24.9453 32.4375ZM25.7656 37.2253V33.937C26.4975 33.6775 27.0711 33.0813 27.2991 32.3352C28.1328 32.2621 28.9485 32.1501 29.737 32.002C29.0737 33.9617 27.73 36.5875 25.7656 37.2253ZM29.1534 36.631C30.3062 35.1863 31.0874 33.3398 31.5841 31.5752C33.3447 31.0866 35.198 30.3195 36.636 29.1935C35.389 32.6436 32.6296 35.3858 29.1534 36.631ZM32.0152 29.7311C32.1571 28.9787 32.2643 28.2017 32.3348 27.4086C33.0811 27.1807 33.6774 26.596 33.937 25.8641H37.2198C36.5705 27.7805 33.9486 29.0883 32.0152 29.7311ZM33.937 24.2344C33.6774 23.5024 33.0811 22.9287 32.3349 22.7008C32.262 21.8789 32.1497 21.0737 32.0007 20.2941C33.959 20.9632 36.5661 22.2933 37.2198 24.2344H33.937Z" fill="url(#paint0_linear)"/>
<defs>
<linearGradient id="paint0_linear" x1="5.63706" y1="3.93204" x2="40.6919" y2="22.1694" gradientUnits="userSpaceOnUse">
<stop stop-color="#00BAAF"/>
<stop offset="0.934573" stop-color="#6D69FB"/>
<stop offset="1" stop-color="#6D69FB"/>
</linearGradient>
</defs>
</svg>
