<svg width="476" height="94" viewBox="0 0 476 94" fill="none" xmlns="http://www.w3.org/2000/svg">
<path d="M475.995 62.4708C476.031 63.4766 475.864 64.4793 475.504 65.4193C475.208 66.0983 474.753 66.6965 474.178 67.1638C473.624 67.5789 472.988 67.8719 472.312 68.0237C471.621 68.1915 470.912 68.2741 470.201 68.2694H446.875C446.264 68.2758 445.654 68.2098 445.058 68.0729C444.474 67.939 443.923 67.6883 443.438 67.3358C442.939 66.9356 442.543 66.4216 442.284 65.837C441.968 65.0575 441.818 64.2208 441.842 63.38V51.8811C440.475 54.4027 438.872 56.7885 437.054 59.0064C435.345 60.9634 433.427 62.7266 431.333 64.2645C429.458 65.6399 427.411 66.7633 425.244 67.606C423.317 68.3873 421.259 68.7958 419.179 68.81C417.952 68.8424 416.729 68.6509 415.57 68.2449C414.635 67.9301 413.792 67.3901 413.115 66.6724C412.519 65.9638 412.106 65.1203 411.912 64.2153C411.82 63.8353 411.755 63.4494 411.715 63.0605C411.371 63.9451 411.249 65.0999 411.101 65.5176C410.805 66.1966 410.35 66.7948 409.775 67.2621C409.221 67.6772 408.585 67.9702 407.909 68.122C407.218 68.2898 406.509 68.3723 405.798 68.3677H375.524C371.967 68.4401 368.41 68.21 364.892 67.6798C363.069 67.4122 361.33 66.7315 359.81 65.6896C359.519 66.3152 359.085 66.8635 358.544 67.2904C358.002 67.7172 357.367 68.0105 356.691 68.1466C356 68.3144 355.291 68.3969 354.58 68.3923H323.594C322.983 68.3986 322.373 68.3326 321.777 68.1957C321.193 68.0619 320.641 67.8112 320.156 67.4586C319.666 67.0619 319.285 66.5458 319.051 65.9598C318.756 65.1752 318.614 64.341 318.634 63.5028V62.6674H321.359C323.55 62.7415 325.73 62.3304 327.743 61.4635C329.33 60.7712 330.747 59.7397 331.893 58.4413C332.906 57.2845 333.667 55.9288 334.127 54.4609C334.555 53.1263 334.778 51.7346 334.79 50.3331C334.812 49.1276 334.612 47.9282 334.201 46.795C333.809 45.7779 333.28 44.819 332.629 43.9449C331.967 43.0316 331.191 42.206 330.321 41.4878C329.437 40.7753 328.504 40.0382 327.571 39.2519L321.654 34.4362L310.212 62.4463H312.668C312.703 63.4521 312.536 64.4547 312.177 65.3947C311.88 66.0737 311.425 66.6719 310.851 67.1392C310.296 67.5543 309.66 67.8474 308.985 67.9992C308.293 68.167 307.584 68.2495 306.873 68.2449H283.67C283.059 68.2512 282.449 68.1852 281.853 68.0483C281.271 67.9095 280.72 67.6592 280.233 67.3112C279.734 66.911 279.338 66.3971 279.079 65.8124C278.763 65.0329 278.613 64.1962 278.637 63.3554V30.1609H252.046V65.7878C252.141 70.4473 251.721 75.1029 250.794 79.67C250.196 82.8191 248.849 85.7775 246.865 88.2942C245.071 90.4326 242.675 91.982 239.99 92.7414C236.708 93.6192 233.32 94.0327 229.923 93.9699C229.256 94.0504 228.579 93.9722 227.948 93.7417C227.316 93.5111 226.748 93.1348 226.29 92.6432C225.503 91.3185 225.151 89.7804 225.283 88.2451V87.336H229.923C232.165 87.374 234.405 87.168 236.602 86.7217C238.399 86.3384 240.005 85.339 241.144 83.8961C242.532 81.9878 243.433 79.7698 243.771 77.4342C244.387 73.5839 244.658 69.6863 244.582 65.7878V64.5593C244.403 64.8373 244.239 65.1244 244.091 65.4193C243.803 66.1034 243.347 66.7036 242.765 67.1638C242.215 67.5863 241.577 67.8802 240.899 68.0237C240.207 68.1915 239.498 68.2741 238.787 68.2694H215.609C214.989 68.277 214.371 68.211 213.767 68.0729C213.192 67.9341 212.65 67.6837 212.171 67.3358C211.674 66.9405 211.285 66.4247 211.042 65.837C210.747 65.0523 210.605 64.2182 210.625 63.38V28.4901C208.146 28.6427 205.738 29.3839 203.602 30.6523C200.621 32.3014 197.973 34.4929 195.794 37.1143C193.105 40.3373 190.965 43.9815 189.46 47.9007C187.638 52.7426 186.754 57.8877 186.857 63.0605V68.2694H184.402C183.466 68.3587 182.522 68.2471 181.633 67.942C180.744 67.6369 179.93 67.1454 179.246 66.5004C179.016 66.2523 178.826 65.9706 178.681 65.665C178.396 66.2477 177.985 66.7597 177.478 67.1638C176.928 67.5863 176.29 67.8802 175.612 68.0237C174.921 68.1915 174.211 68.2741 173.5 68.2694H142.416C138.851 68.3417 135.286 68.1116 131.76 67.5815C129.666 67.3236 127.689 66.471 126.063 65.1244C126.077 65.2387 126.077 65.3542 126.063 65.4684C125.767 66.1475 125.312 66.7456 124.738 67.2129C124.183 67.628 123.547 67.9211 122.872 68.0729C122.18 68.2392 121.471 68.3217 120.76 68.3186H79.0196C78.4082 68.3261 77.7982 68.2601 77.2026 68.122C76.6183 67.9882 76.0671 67.7375 75.5821 67.3849C75.0917 66.9882 74.7112 66.4721 74.4772 65.8861C74.1711 65.1044 74.029 64.2681 74.0598 63.4291V62.5937H81.5976C83.5106 62.6517 85.4058 62.2114 87.0976 61.316C88.5406 60.529 89.7969 59.4395 90.7805 58.1219C91.5967 56.8809 92.2178 55.5219 92.622 54.0924C93.0542 52.8173 93.2861 51.4828 93.3095 50.1366V28.4901C90.7931 28.65 88.3478 29.39 86.1645 30.6523C83.0973 32.2903 80.3587 34.481 78.0865 37.1143C75.2831 40.3088 73.0416 43.956 71.4572 47.9007C69.5524 52.7222 68.634 57.8773 68.7563 63.0605V93.1346H67.3322C65.0095 93.3372 62.6819 92.8043 60.6783 91.6112C59.9078 90.9171 59.3141 90.0488 58.9468 89.0787C58.5795 88.1085 58.4492 87.0645 58.5668 86.0337C58.5957 82.745 58.8418 79.4619 59.3034 76.2056C59.819 72.5692 60.4574 68.8345 61.2185 65.0999V30.1609H38.7769V38.4411C38.7769 48.4822 36.2234 55.9679 31.1163 60.8984C26.0092 65.8288 18.0949 68.2858 7.37338 68.2694C6.0888 68.3186 4.80637 68.1269 3.59219 67.7043C2.71923 67.3783 1.94238 66.8375 1.33329 66.1318C0.750133 65.4248 0.360895 64.578 0.203847 63.6748C0.0423013 62.7338 -0.0235102 61.7789 0.00742144 60.8246V40.849C-0.0365711 38.1206 0.302294 35.3995 1.0141 32.7654C1.58973 30.6247 2.69607 28.664 4.23057 27.0651C5.87019 25.4925 7.88028 24.36 10.0742 23.7726C12.9216 22.9976 15.8649 22.6336 18.8152 22.6916C19.475 22.6584 20.1348 22.7588 20.755 22.9867C21.3752 23.2147 21.943 23.5656 22.4245 24.0184C23.4031 25.2921 23.8597 26.8913 23.7012 28.4901V29.3255H18.7906C17.0764 29.2956 15.364 29.4521 13.6835 29.7924C12.3816 30.0445 11.17 30.638 10.1724 31.5123C9.175 32.4811 8.46172 33.7047 8.10997 35.0504C7.59273 36.9389 7.34475 38.8911 7.37338 40.849V61.66C10.9692 61.7223 14.5583 61.326 18.054 60.4807C20.7854 59.8246 23.3145 58.5085 25.42 56.6477C27.477 54.6926 28.977 52.2248 29.7659 49.4977C30.7853 45.9036 31.2571 42.1761 31.1654 38.4411V30.1609C30.3379 30.2196 29.5077 30.0936 28.7349 29.7919C27.9621 29.4902 27.2659 29.0204 26.6967 28.4164C25.6997 27.2374 25.1671 25.7346 25.199 24.1903C25.1729 22.6322 25.7041 21.1159 26.6967 19.9151C27.2603 19.3025 27.955 18.8252 28.7288 18.5189C29.5026 18.2125 30.3355 18.0851 31.1654 18.1461C31.9815 18.0668 32.805 18.164 33.5802 18.4311C34.3555 18.6981 35.0643 19.1288 35.6586 19.694C36.6769 20.7109 37.2882 22.0655 37.3774 23.5024H67.0131C67.4343 23.5336 67.8324 23.7068 68.1425 23.9938C68.307 24.1388 68.4398 24.3162 68.5328 24.5149C68.6257 24.7136 68.6767 24.9293 68.6827 25.1486V40.161C70.1696 37.5255 71.9308 35.0547 73.9371 32.7899C75.7863 30.6572 77.8516 28.7222 80.0999 27.0159C82.1167 25.4563 84.3289 24.1677 86.6802 23.183C88.7855 22.3227 91.0355 21.8724 93.3095 21.8562C94.5393 21.8189 95.7648 22.0191 96.9188 22.4459C97.8537 22.7606 98.6969 23.3007 99.3741 24.0184C99.9694 24.7269 100.382 25.5704 100.577 26.4754C100.8 27.442 100.908 28.4318 100.896 29.4238V50.2348C100.894 52.5595 100.443 54.8619 99.5706 57.0162C98.5617 59.387 96.7784 61.3448 94.5126 62.5691H124.247C123.903 61.7847 123.664 60.9587 123.534 60.1121C123.193 57.3 123.046 54.4677 123.093 51.6354V48.2938C123.033 44.2676 123.353 40.2447 124.05 36.2789C124.548 33.2695 125.993 30.4977 128.175 28.3673C130.832 26.0949 134.058 24.5913 137.505 24.0184C142.838 23.0164 148.261 22.5718 153.686 22.6916C154.769 22.556 155.869 22.6815 156.894 23.0576C157.919 23.4337 158.84 24.0495 159.579 24.8537C160.647 26.3764 161.198 28.2026 161.15 30.0626C161.229 33.6227 160.824 37.1769 159.947 40.6279C159.299 43.1507 157.994 45.4567 156.166 47.311C154.323 49.0413 152.051 50.2461 149.585 50.8C146.42 51.5114 143.18 51.8414 139.936 51.7828C138.8 51.8862 137.665 51.5718 136.744 50.8982C135.99 49.883 135.655 48.6157 135.811 47.3601V45.5665H142.342C144.019 45.5811 145.692 45.3997 147.327 45.0259C148.703 44.6985 149.936 43.9308 150.838 42.8392C151.906 41.3964 152.591 39.7054 152.826 37.9251C153.297 35.0425 153.502 32.1228 153.44 29.2027C149.413 29.1507 145.387 29.3476 141.385 29.7924C138.885 29.947 136.478 30.7981 134.436 32.2494C132.717 33.7311 131.585 35.7792 131.244 38.0234C130.687 41.376 130.44 44.773 130.508 48.1709V51.6354C130.48 53.5726 130.579 55.5095 130.802 57.4339C130.883 58.6606 131.396 59.8188 132.251 60.7018C133.229 61.5532 134.467 62.047 135.762 62.1023C137.923 62.3282 140.096 62.4267 142.269 62.3971H177.772C177.734 61.8163 177.734 61.2335 177.772 60.6526C177.75 59.2768 177.865 57.9022 178.116 56.5494C178.423 55.1844 178.859 53.8516 179.418 52.569V25.1732C179.414 24.957 179.456 24.7426 179.541 24.5437C179.625 24.3448 179.751 24.1659 179.909 24.0184C180.058 23.8627 180.237 23.7389 180.435 23.6545C180.634 23.57 180.847 23.5266 181.063 23.5269H185.212C185.646 23.5333 186.061 23.7088 186.368 24.0161C186.675 24.3235 186.851 24.7385 186.857 25.1732V40.0873C188.356 37.4777 190.09 35.0105 192.038 32.7162C193.818 30.5768 195.836 28.6478 198.053 26.9668C200.003 25.4584 202.141 24.2111 204.413 23.2567C206.377 22.4124 208.487 21.9616 210.625 21.9299C211.854 21.8926 213.08 22.0928 214.234 22.5196C215.118 22.852 215.909 23.3912 216.542 24.0921C217.147 24.7943 217.561 25.6404 217.745 26.5491C217.977 27.5146 218.092 28.5045 218.089 29.4975V62.4708H244.582V30.1609H233.827C233.732 29.2175 233.853 28.2647 234.18 27.3749C234.508 26.4851 235.034 25.6817 235.718 25.0257C236.819 24.0604 238.232 23.5278 239.696 23.5269H245.073C245.377 20.3573 246.13 17.2468 247.307 14.2885C248.235 12.0066 249.7 9.98333 251.579 8.39165C253.472 6.89164 255.68 5.84145 258.037 5.32037C260.91 4.71388 263.841 4.42549 266.778 4.46041C267.445 4.37992 268.122 4.45813 268.753 4.68867C269.385 4.91921 269.953 5.29559 270.412 5.7872C271.198 7.11189 271.55 8.65 271.418 10.1853V11.0944H266.778C264.905 11.0781 263.034 11.2013 261.18 11.4629C259.671 11.6652 258.237 12.2393 257.006 13.1337C255.743 14.1207 254.754 15.4149 254.133 16.893C253.274 19.0126 252.736 21.2485 252.537 23.5269H284.456C284.898 23.5307 285.321 23.707 285.635 24.0184C285.945 24.3302 286.144 24.7363 286.199 25.1732V62.4708H302.822L316.031 29.9152L314.706 28.8341C314.06 28.2522 313.553 27.5331 313.222 26.7295C312.89 25.926 312.743 25.0584 312.79 24.1903C312.751 22.63 313.284 21.1092 314.288 19.9151C314.851 19.3011 315.545 18.8228 316.319 18.5163C317.093 18.2099 317.927 18.0833 318.757 18.1461C319.594 18.0882 320.433 18.2169 321.214 18.5228C321.995 18.8287 322.699 19.3043 323.275 19.9151C324.286 21.1069 324.827 22.6272 324.797 24.1903C324.802 24.8182 324.736 25.4446 324.6 26.0577L324.232 27.4091L329.437 31.4877L333.832 35.0504C335.355 36.2873 336.753 37.6697 338.007 39.1782C339.258 40.6716 340.306 42.3239 341.125 44.0923C341.952 45.9729 342.371 48.0081 342.352 50.0629C342.35 52.3875 341.899 54.6899 341.027 56.8443C340.051 59.1891 338.323 61.1425 336.116 62.3971H357.649C357.284 61.6206 357.044 60.7914 356.937 59.9401C356.585 57.2111 356.429 54.4604 356.47 51.7091C356.47 41.6598 358.779 34.1659 363.345 29.2518C367.912 24.3378 374.64 21.8807 383.479 21.8807C385.145 21.821 386.809 22.0624 388.39 22.5933C389.539 22.9918 390.558 23.697 391.336 24.6326C392.059 25.5337 392.556 26.5954 392.785 27.7285C393.037 28.9986 393.16 30.291 393.153 31.586C393.163 32.9023 393.064 34.2172 392.858 35.5172C392.708 36.6224 392.332 37.6846 391.753 38.6377C391.15 39.5477 390.298 40.2643 389.298 40.7016C388.029 41.2509 386.653 41.5111 385.271 41.4633V28.4901C382.048 28.4305 378.832 28.8276 375.72 29.6695C373.211 30.3402 370.924 31.6625 369.091 33.5025C367.232 35.5185 365.907 37.9681 365.236 40.6279C364.323 44.2486 363.902 47.9758 363.984 51.7091C363.956 53.6463 364.055 55.5832 364.278 57.5076C364.383 58.7284 364.893 59.8789 365.727 60.7755C366.715 61.627 367.96 62.1205 369.263 62.176C371.416 62.4013 373.58 62.4998 375.745 62.4708H411.912C411.912 62.0777 411.912 61.66 411.912 61.2423V40.849C411.861 38.1218 412.191 35.4009 412.894 32.7654C413.39 30.6459 414.412 28.6856 415.865 27.0651C417.502 25.4836 419.512 24.3425 421.708 23.7481C424.556 22.9731 427.499 22.609 430.449 22.667C432.358 22.5471 434.259 23.0098 435.9 23.9938C436.569 24.5182 437.095 25.2028 437.43 25.9843C437.764 26.7659 437.897 27.6192 437.815 28.4656V29.301H430.449C428.735 29.271 427.023 29.4276 425.342 29.7678C424.041 30.021 422.829 30.6144 421.831 31.4877C420.826 32.4543 420.104 33.6779 419.744 35.0258C419.261 36.9193 419.046 38.8712 419.106 40.8244V62.0286C420.617 61.9996 422.113 61.7086 423.525 61.1686C425.271 60.5036 426.922 59.6114 428.436 58.515C430.23 57.2074 431.877 55.708 433.347 54.0432C435.061 52.1183 436.507 49.9692 437.643 47.655C439.009 45.018 440.064 42.231 440.786 39.3502C441.607 35.8979 442.003 32.3581 441.965 28.8096V23.5269H444.936C449.085 23.5269 451.148 25.984 451.148 31.07C451.149 32.5174 450.984 33.9601 450.656 35.3698C450.3 36.7236 449.857 38.0531 449.331 39.3502V62.4708H475.995Z" fill="white"/>
<path d="M277.459 5.17182C277.423 3.89728 277.765 2.6406 278.441 1.55998C278.923 1.00577 279.533 0.577416 280.217 0.311983C280.902 0.0465506 281.641 -0.0479616 282.37 0.0366262C283.118 -0.0579626 283.878 0.031324 284.584 0.296758C285.29 0.562192 285.92 0.995777 286.421 1.55998C287.152 2.62011 287.53 3.88409 287.502 5.17182C287.548 6.46186 287.168 7.73125 286.421 8.78365C285.9 9.31715 285.265 9.72494 284.563 9.9761C283.861 10.2273 283.111 10.3152 282.37 10.2333C281.628 10.3369 280.872 10.2591 280.166 10.0067C279.461 9.75425 278.827 9.33461 278.319 8.78365C277.671 7.69542 277.371 6.43525 277.459 5.17182Z" fill="white"/>
</svg>
