<?xml version="1.0" encoding="utf-8"?>
<!-- Generator: Adobe Illustrator 21.0.0, SVG Export Plug-In . SVG Version: 6.00 Build 0)  -->
<svg version="1.1" id="Calque_1" xmlns="http://www.w3.org/2000/svg" xmlns:xlink="http://www.w3.org/1999/xlink" x="0px" y="0px"
	 viewBox="0 0 400 75.3" style="enable-background:new 0 0 400 75.3;" xml:space="preserve">
<style type="text/css">
	.st0{fill:#FFFFFF;}
</style>
<path class="st0" d="M400,48.8c0,0.8-0.1,1.7-0.4,2.5c-0.2,0.6-0.6,1.1-1.1,1.5c-0.5,0.3-1,0.6-1.6,0.7c-0.6,0.1-1.2,0.2-1.8,0.2
	h-19.6c-0.5,0-1-0.1-1.5-0.2c-0.5-0.1-1-0.3-1.4-0.6s-0.8-0.8-1-1.3c-0.3-0.7-0.4-1.4-0.4-2.1v-9.7c-1.1,2.1-2.5,4.1-4,6
	c-1.4,1.6-3,3.1-4.8,4.4c-1.6,1.2-3.3,2.1-5.1,2.8c-1.6,0.7-3.3,1-5.1,1c-1,0-2.1-0.1-3-0.5c-0.8-0.3-1.5-0.7-2.1-1.3
	c-0.5-0.6-0.8-1.3-1-2.1c-0.1-0.3-0.1-0.6-0.2-1c-0.3,0.7-0.4,1.7-0.5,2.1c-0.2,0.6-0.6,1.1-1.1,1.5c-0.5,0.3-1,0.6-1.6,0.7
	c-0.6,0.1-1.2,0.2-1.8,0.2h-25.4c-3,0.1-6-0.1-8.9-0.6c-1.5-0.2-3-0.8-4.3-1.7c-0.2,0.5-0.6,1-1.1,1.3c-0.5,0.4-1,0.6-1.6,0.7
	c-0.6,0.1-1.2,0.2-1.8,0.2h-26c-0.5,0-1-0.1-1.5-0.2c-0.5-0.1-1-0.3-1.4-0.6s-0.7-0.8-0.9-1.3c-0.2-0.7-0.4-1.4-0.4-2.1v-0.7h2.3
	c1.8,0.1,3.7-0.3,5.4-1c1.3-0.6,2.5-1.4,3.5-2.5c0.9-1,1.5-2.1,1.9-3.3c0.4-1.1,0.5-2.3,0.6-3.5c0-1-0.1-2-0.5-3
	c-0.3-0.9-0.8-1.7-1.3-2.4c-0.6-0.8-1.2-1.5-1.9-2.1c-0.7-0.6-1.5-1.2-2.3-1.9l-5-4l-9.6,23.5h2.1c0,0.8-0.1,1.7-0.4,2.5
	c-0.2,0.6-0.6,1.1-1.1,1.5c-0.5,0.3-1,0.6-1.6,0.7c-0.6,0.1-1.2,0.2-1.8,0.2h-19.5c-0.5,0-1-0.1-1.5-0.2c-0.5-0.1-1-0.3-1.4-0.6
	s-0.8-0.8-1-1.3c-0.3-0.7-0.4-1.4-0.4-2.1V21.6h-22.3v29.9c0.1,3.9-0.3,7.8-1.1,11.7c-0.5,2.6-1.6,5.1-3.3,7.2
	c-1.5,1.8-3.5,3.1-5.8,3.7c-2.8,0.7-5.6,1.1-8.5,1c-0.6,0.1-1.1,0-1.7-0.2c-0.5-0.2-1-0.5-1.4-0.9c-0.7-1.1-1-2.4-0.8-3.7v-0.8h3.9
	c1.9,0,3.8-0.1,5.6-0.5c1.5-0.3,2.9-1.2,3.8-2.4c1.2-1.6,1.9-3.5,2.2-5.4c0.5-3.2,0.7-6.5,0.7-9.8v-1c-0.2,0.2-0.3,0.5-0.4,0.7
	c-0.2,0.6-0.6,1.1-1.1,1.5s-1,0.6-1.6,0.7c-0.6,0.1-1.2,0.2-1.8,0.2H181c-0.5,0-1,0-1.5-0.2c-0.5-0.1-0.9-0.3-1.3-0.6
	c-0.4-0.3-0.7-0.8-0.9-1.3c-0.2-0.7-0.4-1.4-0.4-2.1V20.2c-2.1,0.1-4.1,0.8-5.9,1.8c-2.5,1.4-4.7,3.2-6.6,5.4
	c-2.3,2.7-4.1,5.8-5.3,9.1c-1.5,4.1-2.3,8.4-2.2,12.7v4.4H155c-0.8,0.1-1.6,0-2.3-0.3s-1.4-0.7-2-1.2c-0.2-0.2-0.4-0.4-0.5-0.7
	c-0.2,0.5-0.6,0.9-1,1.3c-0.5,0.4-1,0.6-1.6,0.7c-0.6,0.1-1.2,0.2-1.8,0.2h-26.1c-3,0.1-6-0.1-9-0.6c-1.8-0.2-3.4-0.9-4.8-2.1
	c0,0.1,0,0.2,0,0.3c-0.2,0.6-0.6,1.1-1.1,1.5c-0.5,0.3-1,0.6-1.6,0.7c-0.6,0.1-1.2,0.2-1.8,0.2h-35c-0.5,0-1,0-1.5-0.2
	c-0.5-0.1-1-0.3-1.4-0.6s-0.7-0.8-0.9-1.3c-0.3-0.7-0.4-1.4-0.4-2.1v-0.7h6.3c1.6,0,3.2-0.3,4.6-1.1c1.2-0.7,2.3-1.6,3.1-2.7
	c0.7-1,1.2-2.2,1.5-3.4c0.4-1.1,0.6-2.2,0.6-3.3v-18c-2.1,0.1-4.2,0.8-6,1.8c-2.6,1.4-4.9,3.2-6.8,5.4c-2.4,2.7-4.2,5.7-5.6,9.1
	c-1.6,4.1-2.4,8.4-2.3,12.7v25.3h-1.2c-2,0.2-3.9-0.3-5.6-1.3c-0.6-0.6-1.1-1.3-1.5-2.1c-0.3-0.8-0.4-1.7-0.3-2.6
	c0-2.8,0.2-5.5,0.6-8.3c0.4-3.1,1-6.2,1.6-9.3V21.6H32.6v7c0,8.4-2.1,14.7-6.4,18.9c-4.3,4.1-10.9,6.2-20,6.2
	c-1.1,0-2.2-0.1-3.2-0.5c-0.7-0.3-1.4-0.7-1.9-1.3s-0.8-1.3-0.9-2.1C0,49,0,48.2,0,47.4V30.6c0-2.3,0.2-4.6,0.8-6.8
	C1.3,22,2.3,20.4,3.6,19c1.4-1.3,3.1-2.3,4.9-2.8c2.4-0.7,4.9-1,7.3-0.9c0.6,0,1.1,0.1,1.6,0.2c0.5,0.2,1,0.5,1.4,0.9
	c0.8,1.1,1.2,2.4,1.1,3.8v0.7h-4.1c-1.4,0-2.9,0.1-4.3,0.4c-1.1,0.2-2.1,0.7-3,1.4c-0.8,0.8-1.4,1.8-1.7,3c-0.4,1.6-0.6,3.2-0.6,4.9
	v17.5c3,0.1,6-0.3,9-1c2.3-0.6,4.4-1.7,6.2-3.2c1.7-1.6,3-3.7,3.7-6c0.9-3,1.3-6.2,1.2-9.3v-7c-0.7,0-1.4-0.1-2-0.3
	c-0.6-0.3-1.2-0.6-1.7-1.2c-0.8-1-1.3-2.3-1.3-3.6s0.4-2.6,1.3-3.6c0.5-0.5,1.1-0.9,1.7-1.2c0.7-0.3,1.4-0.4,2-0.3
	c0.7-0.1,1.4,0,2,0.2c0.7,0.2,1.2,0.6,1.7,1.1c0.9,0.9,1.4,2,1.4,3.2h24.9c0.4,0,0.7,0.2,0.9,0.4c0.1,0.1,0.2,0.3,0.3,0.4
	c0.1,0.2,0.1,0.3,0.1,0.5V30c1.2-2.2,2.7-4.3,4.4-6.2c1.6-1.8,3.3-3.4,5.2-4.9c1.7-1.3,3.6-2.4,5.5-3.2c1.8-0.7,3.7-1.1,5.6-1.1
	c1,0,2.1,0.1,3,0.5c0.8,0.3,1.5,0.7,2.1,1.3c0.5,0.6,0.8,1.3,1,2.1c0.2,0.8,0.3,1.6,0.3,2.5v17.5c0,2-0.4,3.9-1.1,5.7
	c-0.8,2-2.3,3.6-4.3,4.7h25c-0.3-0.7-0.5-1.4-0.6-2.1c-0.3-2.4-0.4-4.7-0.4-7.1v-2.8c-0.1-3.4,0.2-6.8,0.8-10.1
	c0.4-2.5,1.6-4.9,3.5-6.6c2.2-1.9,4.9-3.2,7.8-3.7c4.5-0.8,9-1.2,13.6-1.1c0.9-0.1,1.8,0,2.7,0.3s1.6,0.8,2.3,1.5
	c0.9,1.3,1.4,2.8,1.3,4.4c0.1,3-0.3,6-1,8.9c-0.5,2.1-1.6,4.1-3.2,5.6c-1.5,1.5-3.5,2.5-5.5,2.9c-2.7,0.6-5.4,0.9-8.1,0.8
	c-1,0.1-1.9-0.2-2.7-0.7c-0.6-0.9-0.9-1.9-0.8-3v-1.5h5.5c1.4,0,2.8-0.1,4.2-0.5c1.2-0.3,2.2-0.9,3-1.8c0.9-1.2,1.5-2.6,1.7-4.1
	c0.4-2.4,0.6-4.9,0.5-7.3c-3.4,0-6.8,0.1-10.1,0.5c-2.1,0.1-4.1,0.8-5.8,2.1c-1.4,1.2-2.4,3-2.7,4.9c-0.5,2.8-0.7,5.7-0.6,8.5v2.9
	c0,1.6,0.1,3.3,0.2,4.9c0.1,1,0.5,2,1.2,2.7c0.8,0.7,1.9,1.1,3,1.2c1.8,0.2,3.6,0.3,5.5,0.2h29.8c0-0.5,0-1,0-1.5
	c0-1.2,0.1-2.3,0.3-3.4c0.3-1.1,0.6-2.3,1.1-3.3v-23c0-0.2,0-0.4,0.1-0.5c0.1-0.2,0.2-0.3,0.3-0.4s0.3-0.2,0.4-0.3
	c0.2-0.1,0.3-0.1,0.5-0.1h3.5c0.4,0,0.7,0.2,1,0.4c0.3,0.3,0.4,0.6,0.4,1V30c1.3-2.2,2.7-4.3,4.4-6.2c1.5-1.8,3.2-3.4,5.1-4.8
	c1.6-1.3,3.4-2.3,5.3-3.1c1.7-0.7,3.4-1.1,5.2-1.1c1,0,2.1,0.1,3,0.5c0.7,0.3,1.4,0.7,1.9,1.3c0.5,0.6,0.9,1.3,1,2.1
	c0.2,0.8,0.3,1.6,0.3,2.5v27.7h22.3V21.6h-9c-0.1-0.8,0-1.6,0.3-2.3c0.3-0.7,0.7-1.4,1.3-2c0.9-0.8,2.1-1.3,3.3-1.3h4.5
	c0.3-2.7,0.9-5.3,1.9-7.8c0.8-1.9,2-3.6,3.6-5c1.6-1.3,3.4-2.1,5.4-2.6c2.4-0.5,4.9-0.8,7.3-0.7c0.6-0.1,1.1,0,1.7,0.2
	c0.5,0.2,1,0.5,1.4,0.9c0.7,1.1,1,2.4,0.8,3.7v0.8h-3.9c-1.6,0-3.1,0.1-4.7,0.3c-1.3,0.2-2.5,0.7-3.5,1.4c-1.1,0.8-1.9,1.9-2.4,3.2
	c-0.7,1.8-1.2,3.7-1.3,5.6H239c0.4,0,0.7,0.2,1,0.4c0.3,0.3,0.4,0.6,0.5,1v31.3h14l11.1-27.4l-1.1-0.9c-0.5-0.5-1-1.1-1.2-1.8
	c-0.3-0.7-0.4-1.4-0.4-2.1c0-1.3,0.4-2.6,1.3-3.6c0.5-0.5,1.1-0.9,1.7-1.2c0.7-0.3,1.4-0.4,2-0.3c0.7,0,1.4,0.1,2.1,0.3
	c0.7,0.3,1.2,0.7,1.7,1.2c0.8,1,1.3,2.3,1.3,3.6c0,0.5-0.1,1.1-0.2,1.6l-0.3,1.1l4.4,3.4l3.7,3c1.3,1,2.5,2.2,3.5,3.5
	c1.1,1.3,1.9,2.6,2.6,4.1c0.7,1.6,1,3.3,1,5c0,2-0.4,3.9-1.1,5.7c-0.8,2-2.3,3.6-4.1,4.7h18.1c-0.3-0.7-0.5-1.3-0.6-2.1
	c-0.3-2.3-0.4-4.6-0.4-6.9c0-8.4,1.9-14.7,5.8-18.9c3.8-4.1,9.5-6.2,16.9-6.2c1.4-0.1,2.8,0.2,4.1,0.6c1,0.3,1.8,0.9,2.5,1.7
	c0.6,0.8,1,1.6,1.2,2.6c0.2,1.1,0.3,2.2,0.3,3.2c0,1.1-0.1,2.2-0.2,3.3c-0.1,0.9-0.4,1.8-0.9,2.6c-0.5,0.8-1.2,1.4-2.1,1.7
	c-1.1,0.5-2.2,0.7-3.4,0.6V20.2c-2.7-0.1-5.4,0.3-8,1c-2.1,0.6-4,1.7-5.6,3.2c-1.6,1.7-2.7,3.8-3.2,6c-0.8,3-1.1,6.2-1.1,9.3
	c0,1.6,0.1,3.3,0.2,4.9c0.1,1,0.5,2,1.2,2.7c0.8,0.7,1.9,1.1,3,1.2c1.8,0.2,3.6,0.3,5.4,0.2h30.4c0-0.3,0-0.7,0-1V30.6
	c0-2.3,0.2-4.6,0.8-6.8c0.4-1.8,1.3-3.4,2.5-4.8c1.4-1.3,3.1-2.3,4.9-2.8c2.4-0.7,4.9-1,7.3-0.9c1.6-0.1,3.2,0.3,4.6,1.1
	c0.6,0.4,1,1,1.3,1.7s0.4,1.4,0.3,2.1v0.7h-6.2c-1.4,0-2.9,0.1-4.3,0.4c-1.1,0.2-2.1,0.7-3,1.4c-0.8,0.8-1.5,1.8-1.8,3
	c-0.4,1.6-0.6,3.2-0.5,4.9v17.8c1.3,0,2.5-0.3,3.7-0.7c1.5-0.6,2.9-1.3,4.1-2.2c1.5-1.1,2.9-2.4,4.1-3.8c1.4-1.6,2.7-3.4,3.6-5.4
	c1.1-2.2,2-4.6,2.6-7c0.7-2.9,1-5.9,1-8.9V16h2.5c3.5,0,5.2,2.1,5.2,6.3c0,1.2-0.1,2.4-0.4,3.6c-0.3,1.1-0.7,2.3-1.1,3.3v19.4H400
	V48.8z"/>
<path class="st0" d="M232.5,5.2c0-1.3,0.3-2.5,1-3.6c0.5-0.6,1.1-1,1.8-1.2c0.7-0.3,1.4-0.4,2.2-0.3c0.7-0.1,1.5,0,2.2,0.3
	s1.3,0.7,1.8,1.3c0.7,1.1,1.1,2.3,1.1,3.6s-0.3,2.6-1.1,3.6c-0.5,0.5-1.2,0.9-1.9,1.2c-0.7,0.3-1.5,0.3-2.2,0.3
	c-0.7,0.1-1.5,0-2.2-0.2c-0.7-0.3-1.3-0.7-1.8-1.2C232.7,7.7,232.4,6.4,232.5,5.2z"/>
</svg>
