<?xml version="1.0" encoding="utf-8"?>
<!-- Generator: Adobe Illustrator 23.0.3, SVG Export Plug-In . SVG Version: 6.00 Build 0)  -->
<svg version="1.1"
	 id="Calque_1" xmlns:cc="http://creativecommons.org/ns#" xmlns:dc="http://purl.org/dc/elements/1.1/" xmlns:rdf="http://www.w3.org/1999/02/22-rdf-syntax-ns#" xmlns:svg="http://www.w3.org/2000/svg"
	 xmlns="http://www.w3.org/2000/svg" xmlns:xlink="http://www.w3.org/1999/xlink" x="0px" y="0px" viewBox="0 0 318 53"
	 style="enable-background:new 0 0 318 53;" xml:space="preserve">
<style type="text/css">
	.st0{fill:#373C42;}
</style>
<g>
	<path class="st0" d="M8.5,40.6V7.5h6.3v10.6c1.2-1.2,2.5-2,3.7-2.5c1.2-0.5,2.7-0.7,4.5-0.7c2.5,0,4.8,0.6,6.8,1.7
		c2,1.1,3.6,2.7,4.8,4.7c1.1,2,1.7,4.2,1.7,6.7c0,3.4-1,6.3-3.1,8.8c-2.4,2.9-5.7,4.4-9.8,4.4c-2,0-3.6-0.3-5-0.9
		c-1.4-0.6-2.8-1.5-4.1-2.9v3.2H8.5z M22,20.4c-2.2,0-4,0.7-5.4,2.2c-1.4,1.5-2.1,3.3-2.1,5.6c0,2.2,0.7,4.1,2.2,5.5
		c1.5,1.4,3.3,2.1,5.6,2.1c2.3,0,4.1-0.7,5.5-2.1c1.4-1.4,2.1-3.2,2.1-5.5c0-2.3-0.7-4.2-2.2-5.6C26.3,21.1,24.4,20.4,22,20.4z
		 M68.6,30.9H48.2c0.4,1.5,1.2,2.7,2.5,3.6c1.3,0.9,2.9,1.3,4.8,1.3c1.3,0,2.4-0.2,3.3-0.6c0.9-0.4,1.7-1,2.5-1.9h6.9
		c-0.4,1.1-1.1,2.3-2.1,3.5c-2.7,3-6.2,4.5-10.5,4.5c-1.9,0-3.8-0.3-5.6-1c-1.7-0.6-3.2-1.5-4.5-2.7c-1.3-1.2-2.3-2.6-3-4.1
		c-0.7-1.6-1.1-3.3-1.1-5.1c0-2.4,0.6-4.6,1.8-6.6c1.2-2,3-3.6,5-4.8c2.2-1.2,4.6-1.8,7-1.7c2.6,0,4.9,0.6,7,1.7
		c2,1.1,3.7,2.8,4.9,4.8c1.2,2,1.8,4.3,1.8,6.9C68.9,29.4,68.8,30.1,68.6,30.9z M48,25.6h14.6c-0.4-1.6-1.2-2.8-2.5-3.7
		c-1.3-0.8-2.9-1.3-4.8-1.3c-1.9,0-3.5,0.4-4.7,1.3C49.4,22.8,48.5,24,48,25.6z M75.9,40.6V21.2h-3.1v-5.4h3.1V7.5h6.3v8.3H86v5.4
		h-3.8v19.4H75.9z M118,15.8v24.8h-5.8v-3.2c-1.3,1.4-2.6,2.3-3.9,2.9c-1.4,0.6-3,0.9-4.8,0.9c-2.5,0-4.8-0.6-6.8-1.7
		c-2-1.1-3.6-2.7-4.7-4.6c-1.1-2-1.7-4.2-1.7-6.7c0-2.5,0.6-4.7,1.7-6.7c1.1-2,2.8-3.6,4.8-4.7c2-1.1,4.4-1.7,6.9-1.7
		c1.9,0,3.5,0.3,4.9,0.9c1.4,0.6,2.6,1.6,3.7,3v-3.3C112.2,15.8,118,15.8,118,15.8z M104.1,20.7c-2.2,0-4,0.7-5.5,2.2
		c-1.4,1.5-2.2,3.3-2.2,5.6c0,2.2,0.7,3.9,2.2,5.3c1.4,1.3,3.3,2,5.6,2c2.3,0,4.1-0.7,5.5-2.1c1.4-1.4,2.1-3.2,2.1-5.4
		c0-2.2-0.7-4.1-2.2-5.5C108.3,21.4,106.4,20.7,104.1,20.7z M128.9,36.1c-1.4,0-2.6,1.1-2.6,2.5c0,0,0,0,0,0c0,1.3,1.2,2.4,2.6,2.4
		c1.5,0,2.7-1.1,2.7-2.4C131.6,37.3,130.3,36.1,128.9,36.1z M160.2,15.8h6v20.1c0,2.5-0.2,4.5-0.7,6.1c-0.4,1.5-1.2,3-2.2,4.2
		c-2.5,2.9-6.1,4.3-10.8,4.3c-3.2,0-6-0.7-8.4-2.1c-2.3-1.3-4.1-3.4-5.2-5.8h7.2c0.9,1,1.9,1.6,2.9,2c1,0.4,2.2,0.6,3.7,0.6
		c2.4,0,4.1-0.7,5.4-2c1.2-1.3,1.9-3.3,2-6c-1.2,1.4-2.5,2.4-3.9,3c-1.3,0.6-2.9,0.9-4.8,0.9c-2.5,0-4.7-0.6-6.7-1.7
		c-2-1.1-3.6-2.7-4.6-4.7c-1.1-2-1.7-4.3-1.7-6.8c0-3.7,1.2-6.7,3.7-9.2s5.6-3.7,9.3-3.7c3.8,0,6.7,1.2,8.6,3.7
		C160.2,18.9,160.2,15.8,160.2,15.8z M152.2,20.7c-2.2,0-3.9,0.7-5.2,2.1c-1.3,1.4-2,3.2-2,5.5c0,2.3,0.7,4.1,2,5.4
		c1.3,1.3,3.1,2,5.4,2c2.3,0,4.1-0.7,5.5-2c1.4-1.4,2-3.2,2-5.5c0-2.2-0.7-4.1-2.1-5.4C156.4,21.4,154.5,20.7,152.2,20.7z
		 M186.7,15.2c2.5,0,4.8,0.6,7,1.8c2.1,1.1,3.8,2.8,5.1,4.8c1.2,2,1.9,4.2,1.9,6.5c0,2.3-0.6,4.5-1.9,6.5c-1.3,2-3,3.6-5.1,4.7
		c-2.2,1.2-4.6,1.8-7,1.7c-2.5,0-4.9-0.6-7.1-1.7c-2.1-1.1-3.9-2.7-5.1-4.7c-1.2-1.9-1.9-4.2-1.9-6.5c0-1.8,0.4-3.5,1.1-5.1
		c0.7-1.6,1.7-3,3-4.2c1.3-1.2,2.9-2.1,4.5-2.8C182.9,15.6,184.8,15.2,186.7,15.2z M186.4,20.7c-2,0-3.8,0.7-5.3,2.2
		c-1.5,1.5-2.2,3.2-2.2,5.3c0,2.1,0.7,3.8,2.2,5.3c1.4,1.4,3.4,2.2,5.4,2.2c2.1,0,3.9-0.7,5.4-2.2c1.5-1.5,2.3-3.2,2.3-5.3
		c0-2.1-0.8-3.9-2.3-5.4C190.4,21.4,188.6,20.7,186.4,20.7z M230.2,15.8v24.8h-5.9v-2.4c-1.2,1.1-2.4,1.9-3.5,2.3
		c-1.1,0.4-2.5,0.7-4.1,0.7c-1.8,0-3.4-0.3-4.8-1c-1.4-0.6-2.6-1.7-3.4-2.9c-0.7-1-1.2-2.1-1.4-3.3c-0.3-1.2-0.4-2.8-0.4-4.9V15.8
		h6.3v12.1c0,1.7,0.1,3.1,0.3,4c0.2,1,0.5,1.7,1,2.3c0.9,1,2.1,1.5,3.7,1.5c1.1,0,2.1-0.2,2.9-0.6c0.9-0.4,1.5-1,2-1.8
		c0.3-0.6,0.6-1.3,0.7-2.2c0.1-0.9,0.2-2.1,0.2-3.7V15.8C223.9,15.8,230.2,15.8,230.2,15.8z M245.9,40.6l-10.6-24.8h7l6.1,16.5
		l6-16.5h7.2l-10.6,24.8C250.9,40.6,245.9,40.6,245.9,40.6z M264.9,36.1c-1.3,0-2.5,1.1-2.5,2.6c0,1.3,1.1,2.4,2.4,2.4
		c1.4,0,2.6-1.1,2.6-2.4C267.4,37.3,266.2,36.1,264.9,36.1z"/>
	<path class="st0" d="M273.3,17.6h5.2L273.2,42c-1.4,6.3-3.3,9.4-5.7,9.4c-0.7,0-1.1-0.4-1.1-1c0-0.2,0.1-0.3,0.2-0.6
		c0.2-0.3,0.3-0.6,0.3-1c0-1.2-1-2.2-2.3-2.2c0,0,0,0,0,0c-1.2,0-2.1,1.1-2.1,2.5c0,1.9,2,3.5,4.5,3.5c5.2,0,9.3-5.7,11.8-16.4
		l4.3-18.6h6.3l0.3-1.8h-6.2c1.7-9.1,3.9-13.2,7.1-13.2c0.8,0,1.3,0.3,1.3,0.7c0,0.1-0.1,0.3-0.2,0.6c-0.2,0.4-0.4,0.8-0.3,1.2
		c0,1.4,0.9,2.3,2.1,2.3c1.3,0,2.5-1.1,2.5-2.3c0-2.1-2.1-3.7-5-3.7c-2.8,0-5.1,1.3-7.2,3.9c-1.7,2.3-2.9,4.9-4.7,10.5h-5.4
		C273.7,15.8,273.3,17.6,273.3,17.6z M293.5,40.6c3.1-10,4.1-12.3,6.7-16.8c2-3.3,3.6-5,4.6-5c0.4,0,0.7,0.2,1,0.8
		c0.5,1,0.9,1.3,2.1,1.3c1.7,0,2.7-1,2.7-2.9c0-1.8-1.1-3-2.7-3c-1.3,0-2.9,0.9-4.4,2.5c-2.4,2.4-4.8,5.9-5.7,8.1l-0.9,2.1l3.2-12.6
		l-0.2-0.1c-4.2,0.7-4.8,0.9-9,1.5v1c1.3-0.2,1.5-0.3,1.9-0.3c1.3,0,2,0.6,2,1.6c0,0.7-0.5,3.1-0.9,4.8l-4.9,16.9
		C289.1,40.6,293.5,40.6,293.5,40.6z"/>
</g>
</svg>
