<svg width="58" height="58" viewBox="0 0 58 58" fill="none" xmlns="http://www.w3.org/2000/svg">
<path fill-rule="evenodd" clip-rule="evenodd" d="M57.1753 28.5876C57.1753 44.3761 44.3761 57.1753 28.5876 57.1753C12.7991 57.1753 0 44.3761 0 28.5876C0 12.7991 12.7991 0 28.5876 0C44.3761 0 57.1753 12.7991 57.1753 28.5876ZM37.9661 15.1868C37.1142 14.385 36.024 14 34.9252 14C33.6883 14 32.4392 14.4877 31.5078 15.4202L31.1081 15.8199L30.7085 15.419C29.7771 14.4877 28.528 14 27.2911 14C26.1923 14 25.1021 14.385 24.2502 15.1868C22.3765 16.9505 22.3435 19.9009 24.15 21.7074L31.1081 28.6656L38.0663 21.7074C39.8728 19.9009 39.8398 16.9505 37.9661 15.1868ZM41.3493 32.3345C42.4652 31.6904 43.7253 31.4851 44.7948 32.2099C45.3606 32.5949 45.39 33.4309 44.8779 33.8856L36.497 43.287C35.5767 44.1047 34.3874 44.5569 33.1554 44.5569H20.7779L18.3334 47.0013L11 39.6679L17.5817 33.1877C18.8211 31.9178 20.6288 31.1123 22.6479 31.1123C23.8506 31.1123 24.9775 31.3959 25.9552 31.897C26.6886 32.2893 27.6407 32.3455 28.5794 32.3455C28.5794 32.3455 29.0353 32.3358 31.3783 32.3358C32.7289 32.3358 34.2408 33.118 34.2408 34.7802C34.2408 36.3447 32.7289 37.2247 31.3783 37.2247H27.5197C27.208 37.2247 26.9086 37.4924 26.9086 37.8358C26.9086 38.1279 27.2264 38.4579 27.5197 38.4579L33.8264 38.4567C33.8264 38.4567 40.2334 32.9787 41.3493 32.3345Z" fill="url(#paint0_linear)"/>
<defs>
<linearGradient id="paint0_linear" x1="-10.951" y1="-14.4326" x2="60.6301" y2="22.8077" gradientUnits="userSpaceOnUse">
<stop stop-color="#00BAAF"/>
<stop offset="0.934573" stop-color="#6D69FB"/>
<stop offset="1" stop-color="#6D69FB"/>
</linearGradient>
</defs>
</svg>
