<svg width="58" height="58" viewBox="0 0 58 58" fill="none" xmlns="http://www.w3.org/2000/svg">
<path fill-rule="evenodd" clip-rule="evenodd" d="M57.5874 28.5876C57.5874 44.3761 44.7882 57.1753 28.9997 57.1753C13.2112 57.1753 0.412109 44.3761 0.412109 28.5876C0.412109 12.7991 13.2112 0 28.9997 0C44.7882 0 57.5874 12.7991 57.5874 28.5876ZM24.9663 41.7014V32.0766H20.229V39.7347C20.2291 40.0463 19.9844 40.2988 19.6824 40.2988H17.412C17.18 41.0618 16.4893 41.6154 15.6732 41.6154C14.6669 41.6154 13.8512 40.7736 13.8512 39.7352C13.8512 38.6967 14.6669 37.8549 15.6732 37.8549C16.4889 37.8549 17.1794 38.4081 17.4117 39.1706H19.1358V32.0766H17.8651C14.5416 32.0766 11.8472 29.297 11.8472 25.8667C11.8472 22.8531 13.928 20.3411 16.688 19.7763C16.9562 17.6629 18.7069 16.0309 20.8285 16.0309C21.0107 16.0309 21.1899 16.0429 21.3656 16.0663C21.7584 16.1189 22.1338 16.2272 22.4851 16.3837C24.1264 13.3197 27.2646 11.2274 30.8825 11.1575L30.883 11.1575L30.8829 11.1573C30.9448 11.1565 31.0068 11.1558 31.0687 11.1558C36.4511 11.1558 40.8204 15.6337 40.8685 21.1766C43.2401 21.7429 45.0089 23.9352 45.009 26.5547C45.009 29.6044 42.6133 32.0765 39.658 32.0765H38.2093L38.1766 32.0766H37.7204V39.1706H39.4428C39.6751 38.4081 40.3656 37.8549 41.1813 37.8549C42.1876 37.8549 43.0034 38.6967 43.0034 39.7352C43.0034 40.7736 42.1876 41.6154 41.1813 41.6154C40.3653 41.6154 39.6745 41.0618 39.4425 40.2988H37.1738C36.8719 40.2988 36.6272 40.0463 36.6272 39.7347V32.0766H31.8901V41.7019C32.6289 41.9417 33.1648 42.6542 33.1648 43.4958C33.1648 44.5342 32.349 45.376 31.3427 45.376C30.3364 45.376 29.5207 44.5342 29.5207 43.4958C29.5207 42.6536 30.0572 41.9408 30.7969 41.7014V32.0766H26.0595V41.7019C26.7984 41.9417 27.3342 42.6542 27.3342 43.4958C27.3342 44.5342 26.5185 45.376 25.5122 45.376C24.5059 45.376 23.6901 44.5342 23.6901 43.4958C23.6901 42.6536 24.2267 41.9408 24.9663 41.7014Z" fill="url(#paint0_linear)"/>
<defs>
<linearGradient id="paint0_linear" x1="-10.5389" y1="-14.4326" x2="61.0422" y2="22.8077" gradientUnits="userSpaceOnUse">
<stop stop-color="#00BAAF"/>
<stop offset="0.934573" stop-color="#6D69FB"/>
<stop offset="1" stop-color="#6D69FB"/>
</linearGradient>
</defs>
</svg>
