<svg width="58" height="58" viewBox="0 0 58 58" fill="none" xmlns="http://www.w3.org/2000/svg">
<path fill-rule="evenodd" clip-rule="evenodd" d="M57.1753 28.5876C57.1753 44.3761 44.3761 57.1753 28.5876 57.1753C12.7991 57.1753 0 44.3761 0 28.5876C0 12.7991 12.7991 0 28.5876 0C44.3761 0 57.1753 12.7991 57.1753 28.5876ZM16.9655 29.6795C17.6927 29.6795 18.351 29.3877 18.8374 28.9191L21.5058 30.2532C21.5025 30.2797 21.4989 30.3061 21.4952 30.3325L21.4952 30.3326C21.484 30.4144 21.4727 30.4961 21.4727 30.5809C21.4727 32.0721 22.6859 33.2853 24.177 33.2853C25.6682 33.2853 26.8813 32.0721 26.8813 30.5809C26.8813 30.1647 26.779 29.775 26.6102 29.4224L30.2301 25.8026C30.5827 25.9714 30.9723 26.0737 31.3886 26.0737C32.8797 26.0737 34.0929 24.8605 34.0929 23.3694C34.0929 23.0886 34.0377 22.8231 33.9579 22.5684L37.1031 20.2101C37.5322 20.4967 38.0466 20.6651 38.6001 20.6651C40.0912 20.6651 41.3044 19.4519 41.3044 17.9607C41.3044 16.4696 40.0912 15.2564 38.6001 15.2564C37.109 15.2564 35.8958 16.4696 35.8958 17.9607C35.8958 18.2415 35.9509 18.507 36.0308 18.7617L32.8856 21.12C32.4564 20.8334 31.9421 20.6651 31.3886 20.6651C29.8974 20.6651 28.6842 21.8783 28.6842 23.3694C28.6842 23.7856 28.7866 24.1753 28.9554 24.5279L25.3355 28.1477C24.9829 27.979 24.5932 27.8766 24.177 27.8766C23.4498 27.8766 22.7915 28.1684 22.3051 28.637L19.6367 27.3029C19.64 27.2764 19.6436 27.25 19.6472 27.2236C19.6585 27.1418 19.6698 27.06 19.6698 26.9752C19.6698 25.484 18.4566 24.2708 16.9655 24.2708C15.4743 24.2708 14.2611 25.484 14.2611 26.9752C14.2611 28.4663 15.4743 29.6795 16.9655 29.6795ZM41.3038 44.2228H42.2653C42.7635 44.2228 43.1668 44.6261 43.1668 45.1242C43.1668 45.6223 42.7635 46.0256 42.2653 46.0256H13.299C12.8008 46.0256 12.3975 45.6223 12.3975 45.1242C12.3975 44.6261 12.8008 44.2228 13.299 44.2228H14.2605V34.1867C14.2605 33.6886 14.6638 33.2853 15.162 33.2853H18.7677C19.2659 33.2853 19.6692 33.6886 19.6692 34.1867V44.2228H21.4721V37.7925C21.4721 37.2943 21.8754 36.891 22.3735 36.891H25.9793C26.4774 36.891 26.8807 37.2943 26.8807 37.7925V44.2228H28.6836V30.5809C28.6836 30.0828 29.0869 29.6795 29.585 29.6795H33.1908C33.6889 29.6795 34.0923 30.0828 34.0923 30.5809V44.2228H35.8951V25.1723C35.8951 24.6741 36.2984 24.2708 36.7966 24.2708H40.4023C40.9005 24.2708 41.3038 24.6741 41.3038 25.1723V44.2228Z" fill="url(#paint0_linear)"/>
<defs>
<linearGradient id="paint0_linear" x1="-10.951" y1="-14.4326" x2="60.6301" y2="22.8077" gradientUnits="userSpaceOnUse">
<stop stop-color="#00BAAF"/>
<stop offset="0.934573" stop-color="#6D69FB"/>
<stop offset="1" stop-color="#6D69FB"/>
</linearGradient>
</defs>
</svg>
