<svg width="58" height="58" viewBox="0 0 58 58" fill="none" xmlns="http://www.w3.org/2000/svg">
<path fill-rule="evenodd" clip-rule="evenodd" d="M28.5876 57.9995C44.3761 57.9995 57.1753 45.2004 57.1753 29.4118C57.1753 13.6233 44.3761 0.824219 28.5876 0.824219C12.7991 0.824219 0 13.6233 0 29.4118C0 45.2004 12.7991 57.9995 28.5876 57.9995ZM17.4082 28.5165C17.3106 28.338 17.2109 28.1559 17.1102 27.9689C15.5035 24.9804 13.4122 24.3628 11.1016 23.6805C11.0534 23.6663 11.0052 23.6521 10.9569 23.6378C9.52496 23.2146 9.16832 22.1511 9.14841 20.6816C9.13005 19.3444 9.8001 19.3417 10.4833 19.339C10.6759 19.3382 10.8696 19.3374 11.0493 19.3067C11.4696 19.2352 11.883 19.1028 12.2967 18.9704C12.4798 18.9117 12.663 18.8531 12.8469 18.7997C13.4435 18.6074 13.8966 18.9143 14.3787 19.2408C14.4408 19.2828 14.5033 19.3252 14.5667 19.3668C14.898 19.586 15.2547 19.7772 15.6873 19.8094C17.7783 19.949 18.2218 19.5838 17.2605 17.4054C17.2143 17.3001 17.1641 17.1959 17.1144 17.0927C16.8083 16.4564 16.5193 15.8559 17.2623 15.257C17.909 14.7331 18.3079 15.1218 18.7606 15.5631C18.8592 15.6592 18.9604 15.7578 19.0672 15.85L19.0798 15.8608C20.2173 16.8336 21.5182 17.9461 22.4417 15.4482C22.7295 14.6727 23.3559 14.4471 23.9913 14.4364C25.5971 14.4213 26.2904 13.6973 26.3972 11.6113C26.5041 9.47364 27.755 9.06331 29.2105 10.3502C33.0321 13.7188 37.2303 16.1593 41.7959 17.7448C41.9081 17.7837 42.0185 17.8194 42.1257 17.8541C43.1985 18.2011 43.9557 18.4461 43.0505 20.7117C42.0711 23.1694 41.1152 25.4016 39.4878 27.2857C39.4442 27.3352 39.3905 27.3889 39.3331 27.4462C38.9422 27.8366 38.3812 28.397 39.6978 28.9722C41.3433 29.6897 41.0935 31.967 40.7785 33.5288C40.411 35.3227 40.3205 36.7277 41.8195 37.6107C41.8561 37.6325 41.8918 37.6534 41.9263 37.6737C42.4224 37.9648 42.6902 38.1219 42.4042 38.8911C41.6764 40.8397 38.655 42.3607 36.8628 41.5981C35.5992 41.0567 34.3229 40.6958 32.9651 40.7624C32.1161 40.7967 31.01 41.0373 30.9195 41.8838C30.5023 45.7891 28.6024 45.0283 26.9335 44.3601C26.589 44.2221 26.2544 44.0881 25.9447 43.9999C25.1286 43.7678 24.2765 43.7149 23.4239 43.6619C21.7591 43.5584 20.0926 43.4548 18.6907 42.017C18.5555 41.8793 18.3874 41.7724 18.2217 41.667C17.7281 41.3531 17.2555 41.0526 17.7366 39.9911C18.3998 38.5301 18.52 36.9163 18.64 35.3043C18.6842 34.7118 18.7283 34.1196 18.7993 33.5353C19.046 31.5089 18.3134 30.1703 17.4082 28.5165Z" fill="url(#paint0_linear)"/>
<defs>
<linearGradient id="paint0_linear" x1="-10.951" y1="-13.6084" x2="60.6301" y2="23.6319" gradientUnits="userSpaceOnUse">
<stop stop-color="#00BAAF"/>
<stop offset="0.934573" stop-color="#6D69FB"/>
<stop offset="1" stop-color="#6D69FB"/>
</linearGradient>
</defs>
</svg>
