<svg width="58" height="58" viewBox="0 0 58 58" fill="none" xmlns="http://www.w3.org/2000/svg">
<path fill-rule="evenodd" clip-rule="evenodd" d="M28.5876 57.9995C44.3761 57.9995 57.1753 45.2004 57.1753 29.4118C57.1753 13.6233 44.3761 0.824219 28.5876 0.824219C12.7991 0.824219 0 13.6233 0 29.4118C0 45.2004 12.7991 57.9995 28.5876 57.9995ZM19.6179 40.4965C19.6205 40.5424 19.6307 40.5775 19.687 40.5478C19.6088 40.675 19.673 40.6767 19.7467 40.6787L19.7639 40.6792L19.7791 40.68C19.8029 40.6782 19.8268 40.6836 19.8507 40.6889C19.8626 40.6916 19.8746 40.6943 19.8865 40.6961C19.8805 40.7057 19.8749 40.7166 19.8693 40.7276C19.8559 40.7538 19.8424 40.7802 19.8226 40.7878C19.799 40.7968 19.7755 40.8061 19.7519 40.8154C19.6474 40.8567 19.5423 40.8982 19.4337 40.9092C19.422 40.9105 19.4104 40.9115 19.399 40.9125C19.3126 40.9199 19.2373 40.9264 19.2418 41.036C19.247 41.152 19.2597 41.3354 19.3263 41.3705C19.4286 41.4271 19.4925 41.2814 19.536 41.179C19.547 41.15 19.5606 41.1224 19.574 41.0952L19.5742 41.095C19.5794 41.0843 19.5847 41.0736 19.5898 41.063C19.6036 41.0834 19.5941 41.1141 19.5846 41.1447C19.5679 41.1987 19.5512 41.2525 19.6639 41.2491L19.6542 41.2562C19.6413 41.2659 19.627 41.2766 19.6128 41.2788C19.5104 41.2998 19.5031 41.3826 19.4956 41.4668L19.4951 41.473C19.4951 41.4837 19.4996 41.4945 19.5042 41.5053L19.5064 41.5105C19.5079 41.5142 19.5093 41.5178 19.5105 41.5215C19.524 41.512 19.5377 41.5028 19.5514 41.4937L19.5606 41.4876C19.5982 41.4627 19.6355 41.438 19.6691 41.4082C19.7056 41.3743 19.7388 41.3369 19.772 41.2995C19.7969 41.2714 19.8218 41.2433 19.8481 41.2167C19.8589 41.2072 19.8735 41.2017 19.8875 41.1965C19.8934 41.1943 19.8991 41.1921 19.9044 41.1897C19.9033 41.1924 19.9023 41.1954 19.9013 41.1986L19.898 41.2097C19.893 41.2267 19.8878 41.2445 19.8788 41.2464C19.796 41.269 19.772 41.3363 19.7479 41.404C19.7318 41.4491 19.7157 41.4945 19.6819 41.5269C19.6358 41.5701 19.5872 41.651 19.5949 41.7049C19.6102 41.8155 19.7381 41.8074 19.7944 41.7939C19.9021 41.7685 20.0074 41.7828 20.1116 41.797C20.1956 41.8084 20.279 41.8197 20.3623 41.8101C20.3815 41.8077 20.4014 41.8069 20.4215 41.8062C20.514 41.8025 20.6103 41.7988 20.6565 41.6348C20.692 41.507 20.7745 41.5359 20.8615 41.5664C20.9251 41.5887 20.991 41.6119 21.0428 41.5755C21.0075 41.6513 21.0544 41.6847 21.1004 41.7174C21.1411 41.7463 21.1811 41.7747 21.1631 41.8317C21.1596 41.8408 21.1548 41.8498 21.1502 41.8586C21.1342 41.8887 21.1195 41.9166 21.1631 41.9396C21.1786 41.9482 21.1913 41.9602 21.2041 41.9723C21.2313 41.9979 21.2592 42.0242 21.3166 42.0205C21.3755 42.017 21.4386 41.9974 21.5022 41.9777C21.6843 41.9211 21.8711 41.8631 21.9791 42.1769C21.9985 42.2345 22.0106 42.2013 22.0221 42.1698C22.0273 42.1555 22.0324 42.1415 22.038 42.1365C22.0531 42.1245 22.0654 42.1066 22.0781 42.0883L22.087 42.0756L22.0917 42.0691C22.0958 42.0863 22.1007 42.1036 22.1056 42.1208C22.113 42.1467 22.1203 42.1726 22.1249 42.1985C22.1278 42.2104 22.1121 42.2197 22.0965 42.2289C22.0694 42.2451 22.0424 42.2611 22.1122 42.2902L22.1223 42.2942C22.1751 42.3149 22.2269 42.3352 22.2605 42.2363C22.2784 42.1823 22.3322 42.096 22.3884 42.2687C22.4278 42.3903 22.4721 42.3337 22.5218 42.2703C22.5723 42.2058 22.6284 42.1343 22.6903 42.2363C22.6996 42.2515 22.7085 42.2667 22.7173 42.2817L22.7174 42.2818C22.7787 42.3863 22.8346 42.4818 22.9845 42.5195C23.0608 42.5382 23.1197 42.514 23.1797 42.4894C23.2324 42.4677 23.2859 42.4458 23.3529 42.4521C23.5396 42.4709 23.7571 42.3226 23.9336 42.2012C24.0134 42.1452 24.0663 42.0407 24.1142 41.9465C24.1446 41.8865 24.173 41.8306 24.2048 41.7939C24.4683 41.4972 24.719 41.2113 24.8955 40.8364C24.9508 40.718 25.0924 40.6992 25.2345 40.6804H25.2346C25.3028 40.6714 25.3712 40.6623 25.4302 40.6422C25.5114 40.6149 25.502 40.5736 25.4924 40.5314C25.4887 40.5152 25.485 40.4988 25.4864 40.4831C25.488 40.4729 25.4846 40.4628 25.4813 40.4527C25.48 40.4489 25.4787 40.4451 25.4777 40.4413C25.4771 40.4391 25.4766 40.4368 25.4762 40.4345C25.467 40.4428 25.458 40.4513 25.449 40.4598L25.441 40.4674L25.4409 40.4675C25.4176 40.4897 25.3943 40.5118 25.3688 40.5316C25.3374 40.5549 25.3047 40.5755 25.2717 40.5962L25.2716 40.5963C25.2588 40.6043 25.246 40.6124 25.2332 40.6206C25.2537 40.5882 25.2741 40.5559 25.2895 40.5208C25.2983 40.5008 25.3175 40.4801 25.3368 40.4592C25.3904 40.4013 25.4447 40.3426 25.2792 40.2969L25.2842 40.2875C25.2958 40.2658 25.3084 40.2423 25.315 40.2187C25.3443 40.1225 25.3949 40.0387 25.4462 39.9539C25.507 39.8533 25.5687 39.7512 25.5965 39.6253C25.6134 39.552 25.6166 39.4767 25.6198 39.401C25.6263 39.2483 25.6328 39.0944 25.7525 38.9537C25.9725 38.6975 26.0927 38.3927 26.0262 38.0097C25.9751 37.721 26.0518 37.3947 26.2309 37.1789C26.4151 36.9577 26.4355 36.8094 26.2437 36.6152C26.2336 36.6066 26.2299 36.593 26.2262 36.5797L26.2232 36.5693C26.2288 36.5723 26.2355 36.5741 26.242 36.576C26.2533 36.5792 26.2644 36.5823 26.2693 36.5909C26.4589 36.932 26.6466 36.793 26.8375 36.6517C26.8654 36.631 26.8935 36.6102 26.9216 36.5909C26.9929 36.5429 27.067 36.4996 27.1416 36.456L27.1418 36.4559L27.1418 36.4559L27.1419 36.4558C27.193 36.426 27.2442 36.3961 27.2951 36.3643C27.3063 36.3571 27.3174 36.3504 27.3282 36.3438L27.3285 36.3437C27.4188 36.2888 27.4863 36.2478 27.3744 36.0865C27.3276 36.0179 27.2688 35.9696 27.211 35.9219C27.1551 35.8759 27.0999 35.8305 27.0572 35.7682C27.0943 35.7892 27.1326 35.8087 27.1709 35.8281C27.3148 35.9012 27.4595 35.9748 27.5484 36.1324C27.5535 36.1404 27.5612 36.1512 27.5663 36.1512C27.5822 36.1506 27.5982 36.1502 27.6141 36.1499H27.6141C27.662 36.1489 27.7095 36.1479 27.7556 36.1377C27.7684 36.135 27.7786 36.0676 27.7709 36.0353C27.7454 35.922 27.7965 35.8357 27.8886 35.841C27.9637 35.8466 28.0376 35.8797 28.1119 35.9131C28.1465 35.9286 28.1812 35.9442 28.2161 35.957C28.1926 35.9669 28.1688 35.9765 28.1449 35.986C28.1036 36.0025 28.0621 36.0192 28.0216 36.0379C27.9869 36.053 27.9554 36.0698 27.9233 36.087L27.8988 36.1C27.9103 36.0992 27.9219 36.0981 27.9337 36.0969C27.9639 36.0938 27.9947 36.0907 28.0242 36.0946C28.0706 36.1014 28.1166 36.0845 28.1629 36.0675C28.2444 36.0376 28.3266 36.0074 28.413 36.1054C28.4478 36.1438 28.5049 36.1587 28.562 36.1735C28.589 36.1805 28.6161 36.1875 28.6407 36.1971C28.6382 36.1776 28.6346 36.1579 28.631 36.1381C28.6235 36.0974 28.616 36.0563 28.6177 36.0164C28.6196 35.9826 28.6326 35.9502 28.6455 35.9183C28.65 35.9069 28.6546 35.8955 28.6586 35.8842L28.6607 35.8999L28.6628 35.9145C28.6671 35.9449 28.6714 35.9752 28.6714 36.0056C28.674 36.0784 28.6791 36.1863 28.7584 36.162C28.8684 36.1297 28.9452 36.0056 28.9426 35.8869C28.9426 35.7925 28.9042 35.6846 28.7814 35.6441L28.7724 35.6412C28.695 35.6155 28.6361 35.596 28.5819 35.6765C28.5852 35.5169 28.5239 35.5481 28.4614 35.5799C28.4267 35.5976 28.3917 35.6154 28.367 35.601C28.3435 35.5877 28.3111 35.5932 28.2797 35.5985L28.2796 35.5985C28.2665 35.6007 28.2537 35.6029 28.2416 35.6037C28.2434 35.5489 28.2756 35.5485 28.3073 35.5481C28.3225 35.5479 28.3375 35.5478 28.3491 35.5416C28.361 35.5354 28.3733 35.5329 28.3839 35.5307C28.4143 35.5246 28.4311 35.5211 28.3875 35.4392C28.2468 35.1748 28.2391 34.8754 28.367 34.5949C28.4329 34.4488 28.5613 34.3945 28.6895 34.3403C28.7555 34.3124 28.8213 34.2845 28.8786 34.2443C29.1533 34.0504 29.2689 33.7486 29.3847 33.4464C29.4058 33.3912 29.427 33.3359 29.4491 33.2813C29.4673 33.2371 29.4779 33.188 29.4886 33.1386C29.5124 33.0283 29.5366 32.9166 29.6461 32.8552C29.6721 32.8407 29.7171 32.8387 29.7537 32.837H29.7537C29.7856 32.8355 29.8112 32.8343 29.8124 32.8255C29.8692 32.4938 30.0604 32.2289 30.2409 31.9789L30.2409 31.9789C30.2717 31.9362 30.3022 31.8939 30.3317 31.8518C30.608 31.4607 30.6694 31.2206 30.3547 30.8754C30.2014 30.7065 30.3019 30.57 30.3999 30.4369L30.4 30.4368C30.4115 30.4211 30.423 30.4055 30.434 30.3899C30.4392 30.3818 30.4571 30.3791 30.4673 30.3818C30.475 30.3845 30.4826 30.4033 30.4801 30.4114C30.4673 30.4411 30.4519 30.4708 30.4366 30.5004C30.4528 30.4906 30.4693 30.4819 30.4856 30.4733C30.5182 30.4561 30.55 30.4393 30.5773 30.4141C30.6087 30.3841 30.6298 30.3451 30.651 30.3059C30.687 30.2395 30.7233 30.1725 30.8101 30.1471C30.8269 30.1418 30.8316 30.0875 30.8364 30.0311V30.031C30.8389 30.0016 30.8415 29.9715 30.8459 29.9475C30.8242 29.9569 30.8024 29.9657 30.7807 29.9745C30.7589 29.9832 30.7372 29.992 30.7154 30.0014C30.7853 30.0475 30.761 30.0659 30.7311 30.0884L30.7311 30.0884C30.7173 30.0988 30.7023 30.1101 30.695 30.1255C30.6361 30.2513 30.5357 30.2655 30.4356 30.2797C30.3747 30.2883 30.3139 30.2969 30.2626 30.3305C30.232 30.3496 30.1847 30.3431 30.138 30.3366C30.1185 30.334 30.0991 30.3313 30.081 30.3305L30.0867 30.3264L30.094 30.3209C30.1005 30.3159 30.1069 30.3106 30.1133 30.3054C30.1401 30.2834 30.1668 30.2616 30.1961 30.2577C30.4468 30.2199 30.5773 30.0446 30.6668 29.818C30.6753 29.7936 30.6907 29.7709 30.7059 29.7486L30.7154 29.7344C30.7069 29.7407 30.6987 29.7473 30.6904 29.7539L30.6904 29.7539L30.6904 29.7539C30.6739 29.7671 30.6574 29.7803 30.6387 29.7911C30.6075 29.8086 30.573 29.8243 30.5392 29.8397L30.5159 29.8504C30.5196 29.8376 30.5237 29.8252 30.5277 29.8129C30.5348 29.7914 30.5417 29.7702 30.5466 29.7479C30.55 29.7408 30.5489 29.7325 30.5478 29.7238L30.5472 29.7193C30.5469 29.7163 30.5466 29.7132 30.5466 29.7101L30.5395 29.7108H30.5395C30.5133 29.7133 30.4852 29.716 30.4571 29.7209C30.4459 29.7231 30.4349 29.7256 30.424 29.7279L30.424 29.728L30.4239 29.728C30.3949 29.7343 30.3666 29.7406 30.3368 29.7425C30.3259 29.7436 30.33 29.7268 30.3342 29.7096C30.3408 29.6825 30.3476 29.6543 30.2959 29.694C30.2749 29.7091 30.2545 29.6951 30.2351 29.6819C30.2095 29.6645 30.1858 29.6483 30.1654 29.7021C30.1603 29.7155 30.1558 29.729 30.1514 29.7425C30.1469 29.756 30.1424 29.7695 30.1373 29.783H30.2243C30.2452 29.783 30.2639 29.7807 30.2844 29.7783L30.2845 29.7783L30.2908 29.7776C30.2867 29.785 30.2835 29.7954 30.2804 29.8053C30.2757 29.8204 30.2714 29.8342 30.2652 29.8342C30.2466 29.8362 30.2449 29.8722 30.2433 29.9074C30.2404 29.969 30.2377 30.0285 30.145 29.9016C30.1381 29.9089 30.1311 29.9161 30.1241 29.9231L30.1007 29.9465L30.1007 29.9465C30.0714 29.9756 30.0425 30.0043 30.0171 30.0365C30.0068 30.05 30.0222 30.1066 30.0298 30.1066C30.04 30.1082 30.0509 30.1102 30.0621 30.1123L30.0622 30.1123C30.1103 30.1212 30.1645 30.1312 30.1936 30.1093C30.2397 30.0733 30.2756 30.0878 30.3112 30.1023C30.3288 30.1094 30.3463 30.1165 30.365 30.1174C30.3419 30.1269 30.3189 30.137 30.2959 30.1471C30.2729 30.1572 30.2498 30.1673 30.2268 30.1768C30.2008 30.1878 30.1728 30.1971 30.1446 30.2066L30.1446 30.2066C30.0759 30.2296 30.0061 30.253 29.9608 30.3008C29.925 30.3386 29.907 30.3386 29.8738 30.3386C29.8657 30.3386 29.8575 30.331 29.8494 30.3233L29.8426 30.3171C29.8402 30.315 29.8378 30.3131 29.8354 30.3116C29.8445 30.3064 29.8544 30.302 29.8642 30.2977C29.8848 30.2885 29.9052 30.2795 29.9173 30.2631C29.9429 30.228 29.9633 30.1849 29.9761 30.1417C29.9812 30.1228 29.9659 30.0878 29.9505 30.077C29.9357 30.0652 29.9154 30.0606 29.8947 30.0558L29.8804 30.0525L29.8712 30.05C29.8806 30.0446 29.8908 30.0401 29.9011 30.0356C29.9215 30.0266 29.942 30.0176 29.9557 30.0014C30.0017 29.9502 30.0426 29.8936 30.0836 29.8369C30.0674 29.8387 30.0509 29.8393 30.0344 29.8399C30.0014 29.8411 29.9684 29.8423 29.9377 29.8531C29.915 29.8623 29.8958 29.8842 29.8769 29.9058L29.8769 29.9058L29.8768 29.9059C29.8741 29.909 29.8714 29.9121 29.8686 29.9152C29.8662 29.9179 29.8638 29.9206 29.8614 29.9232L29.8571 29.9277L29.8508 29.934C29.8557 29.9108 29.8594 29.8875 29.8631 29.8646L29.8631 29.8644C29.8671 29.8395 29.871 29.8149 29.8764 29.7911C29.884 29.7566 29.9048 29.7511 29.9287 29.7447C29.9366 29.7426 29.9449 29.7405 29.9531 29.7371C30.0268 29.7041 30.0911 29.6487 30.1558 29.5931C30.181 29.5715 30.2061 29.5498 30.2319 29.5294C30.2257 29.5245 30.2189 29.5179 30.2121 29.5114L30.212 29.5114L30.212 29.5113C30.1967 29.4966 30.1812 29.4817 30.1705 29.4836C30.1339 29.4932 30.107 29.5225 30.08 29.5519C30.0391 29.5964 29.9979 29.6412 29.9224 29.6184C29.9157 29.6516 29.881 29.6597 29.8445 29.6682C29.7828 29.6825 29.7159 29.6981 29.7689 29.8369C29.7854 29.8804 29.7368 29.8678 29.6803 29.8531C29.6319 29.8404 29.5777 29.8263 29.554 29.845C29.3621 29.9907 29.1703 30.1444 29.0117 30.3278C28.9145 30.4411 28.83 30.3656 28.8172 30.317C28.8004 30.2468 28.7687 30.1792 28.7369 30.1114C28.6673 29.9632 28.5974 29.8142 28.6817 29.6346C28.7288 29.5388 28.6973 29.4546 28.6659 29.3707C28.6495 29.327 28.6332 29.2833 28.6279 29.2381C28.6254 29.2327 28.5691 29.2246 28.5512 29.2381C28.3568 29.3784 28.2391 29.23 28.1496 29.0952C28.0651 28.963 28.1112 28.7931 28.1956 28.6798C28.2744 28.5743 28.3832 28.6145 28.4868 28.6527C28.5077 28.6604 28.5284 28.668 28.5486 28.6744L28.5501 28.6749C28.5842 28.6859 28.6634 28.7117 28.6407 28.6771C28.6024 28.615 28.5026 28.5665 28.4284 28.5665C28.396 28.5659 28.3613 28.5624 28.3261 28.5587C28.2001 28.5458 28.0666 28.5321 27.9986 28.6501C27.9779 28.6868 27.9649 28.7153 27.9546 28.7378C27.9255 28.8015 27.9185 28.8169 27.8221 28.8308C27.62 28.8578 27.1595 29.4269 27.1723 29.6508C27.1979 30.077 27.2081 30.4789 26.9549 30.8646C26.94 30.8871 26.9254 30.9096 26.9109 30.9319C26.7483 31.1821 26.6004 31.4096 26.2693 31.4121C26.2437 31.4121 26.1951 31.4445 26.19 31.4688C26.1761 31.5503 26.1629 31.6317 26.1496 31.713L26.1496 31.7133L26.1496 31.7134C26.0823 32.127 26.0155 32.5376 25.8702 32.9388C25.7065 33.3892 25.443 33.7588 25.1513 34.104C25.0518 34.2213 24.9196 34.2976 24.7864 34.3745C24.6011 34.4814 24.4138 34.5895 24.3097 34.8107C24.2397 34.9571 24.1164 35.053 23.9927 35.1493C23.8451 35.2642 23.6967 35.3797 23.6369 35.5821C23.6189 35.6414 23.5192 35.69 23.4501 35.7143C23.1431 35.8249 22.9078 36.0191 22.7005 36.2807C22.6683 36.3215 22.6841 36.3793 22.6957 36.4215C22.7071 36.4632 22.7143 36.4896 22.6673 36.4695C22.5219 36.4062 22.4764 36.4725 22.4182 36.5574L22.4101 36.5692L22.3987 36.5855C22.3322 36.6772 22.2375 36.6799 22.1352 36.6772L22.119 36.6767C21.9457 36.6712 21.7421 36.6647 21.6875 36.8687C21.6648 36.9566 21.5958 37.0131 21.5281 37.0685C21.4274 37.1508 21.3296 37.2308 21.3907 37.4082C21.2439 37.4548 21.1729 37.5724 21.1017 37.6904L21.1016 37.6904L21.1016 37.6905L21.1016 37.6905L21.1016 37.6905C21.0698 37.7432 21.038 37.7959 20.9993 37.8424C20.9743 37.8728 20.9999 37.9211 21.0243 37.9673C21.0649 38.044 21.1024 38.1148 20.8996 38.0879C20.794 38.0743 20.7701 38.1611 20.745 38.2521C20.7202 38.3419 20.6942 38.4359 20.5875 38.4412C20.567 38.4422 20.5926 38.482 20.6171 38.5202C20.6569 38.5821 20.6939 38.6396 20.5261 38.5194C20.5082 38.506 20.4237 38.5545 20.4058 38.595C20.3626 38.6862 20.4084 38.7624 20.4533 38.837L20.4607 38.8493L20.4698 38.8647C20.4718 38.8678 20.474 38.871 20.4765 38.8742L20.4848 38.8846C20.5069 38.9119 20.5307 38.9413 20.4775 38.9672C20.4647 38.9726 20.4161 38.9294 20.4084 38.9025C20.4016 38.8817 20.3988 38.8538 20.396 38.8258C20.3893 38.7592 20.3826 38.6917 20.3214 38.7163C20.2551 38.7428 20.2089 38.8195 20.1625 38.8965C20.1427 38.9294 20.1229 38.9624 20.1014 38.9915C20.1283 39.009 20.1551 39.0259 20.182 39.0427L20.1824 39.043C20.2091 39.0598 20.2359 39.0765 20.2626 39.094C20.2677 39.098 20.2728 39.1014 20.2779 39.1047C20.283 39.1081 20.2881 39.1115 20.2933 39.1155C20.2902 39.1164 20.2871 39.1174 20.284 39.1185C20.2766 39.121 20.269 39.1236 20.26 39.1236L20.2514 39.1246C20.1815 39.1325 20.1488 39.1361 20.1392 39.153C20.1306 39.1679 20.1399 39.193 20.1574 39.2402L20.1602 39.2477C20.1636 39.2582 20.1539 39.2722 20.1439 39.2866C20.1386 39.2943 20.1331 39.3022 20.1295 39.3097L20.1161 39.3008C20.0231 39.2385 19.9314 39.1771 20.0144 39.3907C20.0132 39.3881 20.012 39.3861 20.0108 39.3845C20.0094 39.3827 20.0081 39.3813 20.0067 39.3799C19.9939 39.3744 19.981 39.3584 19.9685 39.3428C19.9438 39.3119 19.9206 39.283 19.9019 39.3421C19.879 39.4143 19.9112 39.5079 19.9402 39.5924L19.9505 39.6226C19.9713 39.6887 20.0217 39.6682 20.0671 39.6497L20.0809 39.6442C20.0973 39.6368 20.1201 39.6429 20.1395 39.6482L20.1395 39.6482L20.1449 39.6496C20.15 39.6496 20.1528 39.6592 20.1557 39.6688C20.1571 39.6736 20.1585 39.6784 20.1602 39.682C20.1532 39.6829 20.146 39.6835 20.1386 39.6841C20.1243 39.6853 20.1098 39.6865 20.0963 39.6901C20.0619 39.7007 20.029 39.7131 19.9953 39.7258L19.9952 39.7258L19.9684 39.7359C19.9793 39.7508 19.9911 39.7653 20.0028 39.7796C20.0187 39.799 20.0345 39.8183 20.0477 39.8384C20.0809 39.8897 20.1116 39.9409 20.1423 39.9949C20.1423 39.9975 20.1347 40.0056 20.1295 40.011C20.0888 39.9695 20.0488 39.9279 20.0087 39.8863L20.008 39.8856C19.9677 39.8438 19.9274 39.802 19.8865 39.7602C19.852 39.7238 19.8723 39.7229 19.8921 39.7221C19.9045 39.7215 19.9166 39.721 19.9146 39.7116L19.8379 39.4122C19.8299 39.4249 19.8192 39.4388 19.8085 39.4526L19.8085 39.4527L19.8085 39.4527C19.785 39.4833 19.7618 39.5134 19.7688 39.5282C19.8127 39.6225 19.7664 39.6737 19.7205 39.7244C19.6995 39.7476 19.6786 39.7708 19.6665 39.7979C19.6619 39.8085 19.6562 39.8194 19.6506 39.8302C19.6216 39.8855 19.5935 39.9391 19.7177 39.9436C19.7485 39.9455 19.7781 39.9759 19.8073 40.006L19.8232 40.0222C19.8298 40.0288 19.8364 40.0351 19.843 40.0407C19.8308 40.0367 19.8186 40.0317 19.8063 40.0267C19.7774 40.0149 19.7482 40.0029 19.7177 40.0029C19.6767 40.0002 19.6077 40.011 19.6 40.0353C19.5747 40.1154 19.5597 40.2001 19.545 40.2836C19.5404 40.3098 19.5358 40.3359 19.5309 40.3617C19.5473 40.3569 19.5639 40.3535 19.5805 40.3501L19.5805 40.3501L19.5806 40.35L19.5806 40.35C19.6106 40.3439 19.6401 40.3378 19.6665 40.3239C19.729 40.291 19.7902 40.2552 19.851 40.2197L19.8519 40.2192C19.8754 40.2054 19.8989 40.1917 19.9223 40.1783C19.9168 40.19 19.9119 40.2023 19.9072 40.2144C19.8966 40.2413 19.8862 40.2676 19.8686 40.2862C19.8492 40.3049 19.8246 40.3151 19.7995 40.3254L19.7995 40.3254C19.7849 40.3315 19.7701 40.3376 19.756 40.3455C19.7442 40.3523 19.7315 40.3582 19.7189 40.3642L19.7188 40.3642C19.6662 40.3891 19.6138 40.4139 19.6179 40.4965ZM19.687 40.5478C19.7133 40.556 19.735 40.5453 19.7571 40.5345C19.7714 40.5274 19.786 40.5202 19.8021 40.5181C19.7863 40.5202 19.772 40.5279 19.758 40.5355C19.7356 40.5476 19.7137 40.5594 19.687 40.5478ZM33.463 20.8116C33.4542 20.6539 33.4465 20.5148 33.2484 20.5094C33.2556 20.4969 33.2629 20.4845 33.2702 20.4722C33.2901 20.4386 33.31 20.4051 33.3253 20.3691C33.3335 20.3485 33.3599 20.341 33.3845 20.334C33.4212 20.3234 33.4542 20.314 33.4174 20.2639C33.37 20.1993 33.3042 20.2345 33.2425 20.2676C33.2244 20.2773 33.2066 20.2868 33.1898 20.2936C33.1799 20.2979 33.1698 20.3097 33.1597 20.3216C33.1382 20.3466 33.1168 20.3717 33.0977 20.3259C33.0448 20.1975 33.0084 20.0625 32.9719 19.9268L32.9595 19.8809C32.9389 19.804 32.8805 19.788 32.8222 19.772C32.7721 19.7582 32.722 19.7444 32.696 19.6921C32.6935 19.6921 32.6142 19.7217 32.6167 19.7298L32.6193 19.7459L32.6215 19.7597L32.6215 19.76C32.6295 19.8121 32.638 19.8678 32.6679 19.8971C32.8572 20.0751 32.8777 20.2909 32.7881 20.5121C32.7407 20.6323 32.7909 20.7302 32.8405 20.8272C32.89 20.9237 32.939 21.0194 32.8904 21.1351C32.8812 21.1579 32.8987 21.1784 32.9171 21.1999C32.9445 21.232 32.9737 21.2663 32.9186 21.3131C32.8316 21.3833 32.7318 21.4183 32.6295 21.3752C32.5297 21.3347 32.5195 21.2187 32.5349 21.1324C32.586 20.8664 32.434 20.8043 32.2825 20.7425C32.1991 20.7085 32.1158 20.6745 32.0667 20.6065C32.0539 20.5903 31.9925 20.5903 32.0027 20.6523C31.9879 20.6491 31.9726 20.6445 31.9572 20.6398C31.8824 20.6173 31.8069 20.5945 31.7879 20.7332C31.7879 20.7197 31.7879 20.7063 31.7827 20.6955L31.7523 20.6106L31.7523 20.6106L31.7523 20.6106L31.7523 20.6105C31.7031 20.4735 31.6533 20.335 31.6088 20.1965L31.6025 20.178C31.5799 20.1123 31.555 20.0402 31.6625 20.0131C31.6768 20.0097 31.6901 19.9991 31.7036 19.9883C31.7119 19.9817 31.7203 19.975 31.729 19.9699L31.7121 19.9734C31.6896 19.9781 31.6671 19.9828 31.6446 19.9807C31.6088 19.9753 31.5448 19.9645 31.5423 19.9483C31.5274 19.8456 31.5214 19.7392 31.5154 19.6336L31.5154 19.6336L31.5154 19.6335L31.5154 19.6335L31.5116 19.568C31.532 19.6031 31.5551 19.6381 31.5781 19.6732C31.5832 19.6759 31.6088 19.6705 31.6088 19.6678C31.6139 19.6381 31.619 19.6058 31.6165 19.5761C31.6146 19.5548 31.6088 19.535 31.6029 19.5145L31.6029 19.5145C31.6005 19.5064 31.5982 19.4982 31.596 19.4898C31.7507 19.5077 31.7203 19.4344 31.6897 19.3604C31.6652 19.3011 31.6405 19.2414 31.7111 19.2281C31.5664 19.1835 31.501 19.0622 31.4353 18.9402C31.386 18.8487 31.3365 18.7569 31.2532 18.6968C31.156 18.6267 31.1099 18.5161 31.1253 18.3947C31.1329 18.3327 31.1688 18.2329 31.2046 18.2248C31.3644 18.1941 31.3218 18.1309 31.28 18.0687C31.2629 18.0434 31.2459 18.0182 31.243 17.9955C31.2409 17.9747 31.2333 17.9526 31.226 17.931C31.2151 17.8992 31.2046 17.8685 31.2123 17.8444C31.2994 17.5942 31.1597 17.4479 31.0165 17.298L30.9922 17.2726C30.9488 17.2268 30.8925 17.1432 30.9053 17.0946C30.9164 17.0497 30.9011 17.0048 30.8859 16.9606C30.8629 16.8932 30.8404 16.8274 30.9129 16.7655C30.8895 16.7799 30.8654 16.7931 30.8412 16.8064C30.802 16.8279 30.7626 16.8494 30.7262 16.8761C30.7162 16.8836 30.708 16.8947 30.7 16.9056L30.7 16.9056C30.6791 16.9338 30.6591 16.9609 30.6111 16.922C30.6029 16.9168 30.5895 16.9193 30.5763 16.9218C30.5688 16.9233 30.5613 16.9247 30.5548 16.9247C30.5601 16.9327 30.5649 16.9411 30.5698 16.9495C30.5812 16.9694 30.5923 16.9888 30.6085 17.0002C30.6266 17.0135 30.6497 17.0201 30.6725 17.0266L30.6726 17.0267C30.6821 17.0294 30.6916 17.0321 30.7006 17.0353C30.6994 17.0361 30.6982 17.0372 30.697 17.0383L30.6928 17.0428C30.6887 17.0473 30.6849 17.0514 30.6801 17.0514C30.6662 17.0522 30.6503 17.0546 30.6342 17.0569L30.6342 17.0569C30.5945 17.0628 30.554 17.0687 30.5394 17.0514C30.5134 17.0199 30.5004 16.9792 30.4874 16.9382C30.4659 16.8705 30.4442 16.8022 30.3629 16.7736C30.4307 16.7343 30.4009 16.7199 30.3723 16.706C30.3576 16.6989 30.3433 16.6919 30.3425 16.6819C30.3425 16.6762 30.3463 16.6691 30.3504 16.6616L30.3526 16.6574L30.3552 16.6522C30.3607 16.6563 30.366 16.6606 30.3713 16.6649L30.3853 16.6765C30.4103 16.6974 30.4352 16.7181 30.4627 16.7278C30.4766 16.7333 30.4963 16.7226 30.5163 16.7119C30.5259 16.7068 30.5355 16.7016 30.5446 16.6981C30.5405 16.6911 30.5367 16.6833 30.5328 16.6754L30.5328 16.6753C30.5218 16.653 30.5104 16.6298 30.4934 16.6199C30.4527 16.5968 30.4121 16.5735 30.3715 16.5501L30.3714 16.55C30.1797 16.4398 29.9879 16.3295 29.7873 16.245C29.7744 16.2395 29.7576 16.2272 29.7384 16.2131C29.6624 16.1575 29.5498 16.0749 29.5008 16.2881C29.4982 16.2962 29.3831 16.2962 29.3396 16.2665C29.2987 16.2369 29.2706 16.1694 29.2578 16.1128C29.2449 16.0626 29.2767 16.058 29.308 16.0535C29.3204 16.0517 29.3328 16.05 29.3422 16.0454C29.3587 16.0357 29.3725 16.0219 29.3866 16.0079L29.3997 15.9951L29.4036 15.9914C29.3703 15.9537 29.3371 15.9159 29.3038 15.8808C29.3038 15.8808 29.2834 15.8943 29.2808 15.9024C29.2742 15.9432 29.239 15.9722 29.2039 16.0013C29.1437 16.0511 29.0833 16.1009 29.1657 16.2099C29.1566 16.2163 29.1477 16.2232 29.1388 16.2301C29.1178 16.2463 29.097 16.2625 29.0736 16.2719C29.0634 16.2746 29.025 16.2369 29.0275 16.2234C29.0613 16.0555 28.9619 15.9527 28.8691 15.8567C28.8352 15.8216 28.8022 15.7874 28.7768 15.7514C28.6182 15.5221 28.5696 15.3144 28.6566 15.0582C28.6592 15.0501 28.6611 15.0413 28.663 15.0325C28.6649 15.0238 28.6668 15.015 28.6694 15.0069L28.6642 15.0055C28.6544 15.0027 28.6422 14.9992 28.6336 15.0015C28.5758 15.0127 28.5197 15.0339 28.4634 15.0552C28.3426 15.1008 28.2214 15.1466 28.0836 15.0932C28.0605 15.0851 27.9991 15.1499 28.0656 15.2119C28.3905 15.5194 28.6233 15.9024 28.8485 16.2908C28.9278 16.4284 28.9585 16.6496 28.8331 16.6846C28.5884 16.7526 28.694 16.8132 28.7732 16.8587C28.8008 16.8745 28.8253 16.8885 28.8306 16.9004C28.8846 17.0185 28.9533 17.1289 29.0222 17.2398C29.0446 17.2757 29.067 17.3118 29.0889 17.3481C29.0966 17.3594 29.1052 17.3688 29.1136 17.378C29.1192 17.3841 29.1247 17.3902 29.1299 17.3967C29.1318 17.3937 29.1344 17.391 29.137 17.3884C29.1412 17.3842 29.1452 17.3802 29.1452 17.3751C29.1437 17.2977 29.184 17.3008 29.225 17.3038C29.2512 17.3058 29.2776 17.3077 29.2936 17.2888C29.3012 17.2977 29.3105 17.3064 29.3199 17.3151C29.3389 17.3327 29.3584 17.3508 29.3652 17.3724C29.384 17.4367 29.3521 17.4345 29.3198 17.4323C29.2993 17.4309 29.2785 17.4295 29.2706 17.4452L29.265 17.4556C29.241 17.5004 29.2176 17.5441 29.2603 17.6017C29.3396 17.7042 29.4113 17.8148 29.4829 17.9281C29.576 18.0761 29.6806 18.2164 29.7852 18.3568L29.7852 18.3568L29.7852 18.3568L29.7852 18.3568C30.0257 18.6795 30.2664 19.0024 30.368 19.4197C30.3936 19.5222 30.5011 19.4763 30.5676 19.4466C30.6443 19.4116 30.6213 19.3468 30.5829 19.2929C30.532 19.2217 30.48 19.1513 30.428 19.0809L30.4279 19.0808L30.4279 19.0807L30.4278 19.0806C30.344 18.9671 30.2602 18.8537 30.1813 18.7372C30.1616 18.7089 30.1594 18.6673 30.1573 18.6255V18.6255V18.6254V18.6254C30.1564 18.6076 30.1554 18.5897 30.1532 18.5727C30.1606 18.582 30.1689 18.5913 30.1774 18.6006C30.2008 18.6267 30.2249 18.6535 30.2325 18.6833C30.272 18.8382 30.3847 18.9088 30.4976 18.9795C30.5676 19.0233 30.6376 19.0671 30.6904 19.131C30.6957 19.1386 30.7211 19.129 30.7455 19.1198C30.756 19.1158 30.7663 19.1119 30.7748 19.1095L30.7649 19.0995L30.7561 19.091L30.7561 19.091C30.7439 19.0793 30.7321 19.068 30.7236 19.0555C30.7178 19.0472 30.7117 19.0388 30.7055 19.0304C30.6818 18.9981 30.6576 18.9651 30.6494 18.9287C30.6443 18.9099 30.6955 18.8505 30.716 18.8532C30.7676 18.858 30.7471 18.8857 30.731 18.9073C30.72 18.9221 30.7111 18.9341 30.7287 18.9341C30.7622 18.9352 30.7875 18.9602 30.812 18.9844C30.8476 19.0194 30.8815 19.0528 30.936 19.0097C30.95 18.9986 30.9484 18.966 30.9468 18.9336C30.9464 18.9257 30.9461 18.9177 30.9459 18.9101C30.9459 18.907 30.9458 18.904 30.9459 18.9011C30.9459 18.8976 30.946 18.8942 30.9462 18.891C30.9529 18.8929 30.9598 18.8947 30.9668 18.8964L30.9897 18.9018C31.0044 18.9051 31.0191 18.9085 31.0332 18.9126L30.9181 19.0744C30.9069 19.0904 30.8919 19.1088 30.8771 19.1271L30.877 19.1272C30.8443 19.1674 30.8121 19.2071 30.8208 19.2201C30.8604 19.2878 30.8925 19.256 30.9233 19.2255C30.9404 19.2086 30.957 19.1921 30.9743 19.1931C31.0485 19.1958 31.0792 19.1553 31.115 19.1068C31.1191 19.1119 31.1232 19.1168 31.1272 19.1215L31.1391 19.1353C31.1413 19.138 31.1436 19.1406 31.1458 19.1433C31.1483 19.1463 31.1509 19.1494 31.1534 19.1526C31.1334 19.1673 31.114 19.1832 31.0946 19.1992C31.0247 19.2565 30.9548 19.3139 30.8567 19.3118C30.8441 19.3118 30.828 19.3096 30.8137 19.3077L30.8136 19.3077C30.796 19.3053 30.7813 19.3034 30.7799 19.3064L30.7784 19.312C30.7685 19.3484 30.7574 19.389 30.7671 19.4223C30.7798 19.4605 30.7963 19.4501 30.8157 19.4379C30.8237 19.4328 30.8323 19.4274 30.8413 19.425C31.0623 19.3578 31.05 19.4916 31.0374 19.6283C31.0358 19.6452 31.0343 19.662 31.0332 19.6786C31.0317 19.7039 31.0363 19.7301 31.041 19.7562C31.0442 19.7746 31.0475 19.7929 31.0485 19.8108C31.0502 19.8377 31.0497 19.8647 31.0491 19.8917C31.0488 19.9052 31.0485 19.9186 31.0485 19.9321C31.0511 20.1075 30.9564 19.9564 30.9539 19.951C30.9391 19.9289 30.9231 19.907 30.907 19.8849C30.8564 19.8155 30.8051 19.7449 30.7876 19.6651C30.7724 19.601 30.7311 19.5999 30.6927 19.5988C30.66 19.5978 30.6293 19.5969 30.6187 19.5572C30.6169 19.5592 30.6146 19.5613 30.6122 19.5634C30.6047 19.5703 30.5963 19.578 30.5983 19.5842C30.6018 19.6037 30.6042 19.6247 30.6066 19.646L30.6066 19.646C30.6128 19.701 30.6192 19.7576 30.6469 19.7946C30.8388 20.0562 30.9948 20.3394 31.069 20.6604C31.1329 20.9274 31.2276 20.949 31.4041 20.7683C31.4809 20.6874 31.5832 20.7036 31.6804 20.7197C31.6729 20.7269 31.6649 20.7339 31.6569 20.7409C31.6347 20.7602 31.6124 20.7796 31.6011 20.8034C31.5806 20.8519 31.6037 20.8816 31.6548 20.9005C31.7054 20.9176 31.7534 20.9414 31.8015 20.9654L31.8016 20.9654L31.8016 20.9654L31.8016 20.9654C31.8217 20.9754 31.8417 20.9854 31.862 20.9949C31.793 21.0191 31.7266 21.0407 31.6601 21.0622L31.6601 21.0622L31.66 21.0623L31.6599 21.0623C31.5755 21.092 31.5064 21.1378 31.4937 21.2403C31.4911 21.27 31.4911 21.297 31.4911 21.3266C31.4757 21.297 31.4604 21.2673 31.4399 21.243C31.3864 21.1846 31.3314 21.1291 31.2761 21.0733L31.2199 21.0164C31.2609 21.1149 31.3018 21.2127 31.3427 21.3104C31.3837 21.4082 31.4246 21.506 31.4655 21.6044C31.4965 21.6786 31.5359 21.6611 31.5796 21.6417C31.5899 21.6371 31.6005 21.6323 31.6113 21.6287C31.635 21.6204 31.6678 21.6362 31.6992 21.6512C31.7085 21.6557 31.7177 21.6601 31.7265 21.6638C31.7316 21.6665 31.7316 21.7069 31.7239 21.7204C31.6983 21.7609 31.6702 21.7825 31.6088 21.769C31.5218 21.7501 31.463 21.8364 31.5039 21.8984C31.5746 22.008 31.5924 22.1304 31.6101 22.2522C31.6238 22.3463 31.6374 22.4399 31.6753 22.5269L31.6806 22.5391C31.6973 22.5776 31.7172 22.6232 31.7495 22.6402C31.771 22.6534 31.8025 22.6455 31.8335 22.6377C31.8468 22.6344 31.86 22.631 31.8723 22.6294C31.8428 22.6416 31.8128 22.6537 31.7827 22.6658C31.7527 22.678 31.7226 22.6901 31.6932 22.7022C31.5473 22.7594 31.5751 22.8556 31.6026 22.9506C31.6127 22.9855 31.6228 23.0203 31.6241 23.0529C31.6241 23.061 31.6314 23.0676 31.6383 23.0739L31.6419 23.0772L31.6446 23.0799C31.6651 23.0016 31.7111 22.9908 31.7725 23.0313C31.7572 23.0583 31.7412 23.0846 31.7252 23.1109C31.7092 23.1372 31.6932 23.1635 31.6778 23.1904C31.6677 23.2103 31.6583 23.232 31.6489 23.2539C31.6417 23.2706 31.6344 23.2874 31.6267 23.3037C31.6292 23.3037 31.6322 23.3043 31.6353 23.3049C31.6418 23.3061 31.6488 23.3074 31.6523 23.3037C31.6576 23.2981 31.663 23.2912 31.6685 23.2843C31.6915 23.2549 31.7159 23.2239 31.7469 23.2741C31.7557 23.2888 31.7393 23.3212 31.7232 23.3531C31.7157 23.3679 31.7083 23.3826 31.7034 23.3954C31.6774 23.4652 31.6419 23.4339 31.6155 23.4106L31.6154 23.4106L31.6154 23.4106C31.6108 23.4065 31.6065 23.4028 31.6026 23.3998C31.6003 23.398 31.598 23.3965 31.596 23.3954C31.5346 23.3631 31.4323 23.3361 31.4553 23.4143C31.5118 23.6094 31.4552 23.784 31.3987 23.958C31.353 24.0991 31.3074 24.2398 31.3223 24.3907C31.3457 24.626 31.2183 24.7885 31.0825 24.9617L31.046 25.0084C30.9438 25.141 30.8087 25.1555 30.6737 25.1699C30.5451 25.1837 30.4167 25.1974 30.3169 25.3132C30.2644 25.3733 30.197 25.4215 30.13 25.4695L30.13 25.4695C29.9682 25.5853 29.8088 25.6994 29.8666 25.974C29.9357 26.3058 30.1813 26.4353 30.4729 26.4757C30.6239 26.4973 30.7287 26.5809 30.8183 26.6996C30.9564 26.883 31.1227 27.0152 31.335 27.1069C31.3964 27.1328 31.4606 27.1405 31.5248 27.1483H31.5248C31.6211 27.16 31.7172 27.1716 31.8032 27.2444C32.2202 27.5924 32.3123 28.0968 32.2279 28.5688C32.1153 29.2027 31.8006 29.7718 31.3146 30.2007C31.2506 30.2573 31.2404 30.3247 31.2685 30.3922C31.2864 30.4353 31.3299 30.492 31.3683 30.4974C31.4325 30.5075 31.4323 30.4678 31.432 30.4274C31.4319 30.4034 31.4317 30.3793 31.4451 30.3652L31.45 30.3602C31.4576 30.3524 31.4656 30.344 31.4737 30.3353L31.4741 30.3349C31.5147 30.2916 31.5606 30.2427 31.5934 30.2492C31.6778 30.2681 31.6651 30.3625 31.6344 30.4272C31.5934 30.5108 31.6369 30.5675 31.6804 30.6187C31.6932 30.6349 31.752 30.6241 31.7802 30.608C32.0334 30.4488 32.1281 30.5729 32.1486 30.8318L32.1503 30.8569C32.1567 30.9511 32.1646 31.0665 32.2841 31.0368C32.6295 30.9532 32.9135 30.7212 33.1693 30.4866C33.4384 30.2416 33.6064 29.9117 33.7742 29.5822C33.8282 29.4763 33.8821 29.3704 33.9393 29.2674C34.0775 29.0166 34.2642 28.7954 34.5047 28.6039C34.5712 28.5519 34.6027 28.4561 34.638 28.3489C34.6815 28.2169 34.7306 28.0676 34.8577 27.9619C35.1366 27.73 35.2568 26.9693 35.1212 26.6942C34.9421 26.3301 35.134 26.0253 35.3412 25.85C35.6431 25.5937 36.0345 25.4508 36.4592 25.5667C36.6075 25.6072 36.6766 25.6369 36.5947 25.8122C36.5749 25.8522 36.5907 25.911 36.6062 25.9687L36.6063 25.9687C36.6127 25.9928 36.6191 26.0166 36.6229 26.0388C36.6359 26.0214 36.6477 26.0031 36.6594 25.985L36.6595 25.9849L36.6595 25.9849C36.6824 25.9494 36.705 25.9144 36.7354 25.8877C36.8182 25.8157 36.7757 25.7449 36.7459 25.6952C36.7333 25.6742 36.7229 25.657 36.7252 25.645C36.7412 25.5638 36.7378 25.4766 36.7344 25.3891C36.7258 25.1684 36.7171 24.9463 37.0194 24.8169C37.3366 24.682 37.5208 24.3368 37.5234 23.9646C37.5234 23.5842 37.5899 23.2336 37.7971 22.9342C37.9711 22.6834 37.9813 22.5458 37.6641 22.4784C37.6308 22.473 37.5976 22.4379 37.5822 22.4055C37.4492 22.1196 37.1703 22.2356 37.0501 22.303C36.7517 22.4701 36.5088 22.7305 36.2662 22.9908L36.2661 22.9908L36.2653 22.9916L36.2646 22.9925C36.2374 23.0216 36.2102 23.0508 36.1829 23.0799C36.0268 23.2471 35.6789 23.4818 35.4001 23.1257C35.3879 23.1086 35.3628 23.1 35.3389 23.0917L35.3388 23.0917L35.3387 23.0917C35.3326 23.0896 35.3265 23.0875 35.3208 23.0853C34.8091 22.8857 34.3205 22.6402 33.8856 22.2896C33.8636 22.2713 33.8406 22.2551 33.8178 22.239C33.8035 22.229 33.7894 22.219 33.7756 22.2086L33.7738 22.2132C33.7685 22.227 33.7608 22.247 33.7654 22.2518C33.8037 22.2896 33.8421 22.3246 33.8856 22.357C33.9026 22.3696 33.922 22.3774 33.9413 22.3852C33.951 22.3891 33.9606 22.393 33.97 22.3974C33.9673 22.3997 33.9646 22.4025 33.9618 22.4055L33.9572 22.4107C33.9485 22.4205 33.9393 22.4307 33.9291 22.4325C33.8233 22.4544 33.7579 22.3894 33.6933 22.3252L33.6932 22.3251C33.6782 22.3101 33.6631 22.2952 33.6477 22.2815C33.594 22.2329 33.5837 22.1736 33.6093 22.09L33.6157 22.0685C33.6324 22.011 33.6355 22.0003 33.6861 22.0657C33.6997 22.0819 33.7202 22.0933 33.7406 22.1046C33.7509 22.1103 33.7611 22.116 33.7705 22.1223C33.7658 22.1095 33.7625 22.0956 33.7592 22.0817L33.7592 22.0817C33.7534 22.0575 33.7476 22.0333 33.7347 22.0144C33.5914 21.7852 33.4814 21.5478 33.5326 21.2646C33.5481 21.1763 33.5241 21.096 33.5005 21.017C33.4852 20.9656 33.4701 20.9148 33.466 20.8627L33.4645 20.8378L33.463 20.8116ZM21.7395 43.1139C21.7609 43.1158 21.7846 43.118 21.8103 43.118C21.8139 43.118 21.824 43.1149 21.8374 43.1108C21.8521 43.1063 21.8708 43.1006 21.8896 43.0964C21.8801 43.0864 21.8696 43.0765 21.859 43.0664L21.859 43.0663C21.8408 43.0491 21.8222 43.0315 21.8077 43.0128C21.7514 42.9399 21.6977 42.8698 21.6491 42.7943C21.598 42.7161 21.5238 42.6351 21.4445 42.6702C21.4312 42.676 21.4161 42.681 21.4004 42.6862L21.4003 42.6863C21.3282 42.7102 21.2426 42.7387 21.2551 42.8671C21.2598 42.9119 21.2805 42.9537 21.3013 42.9957C21.3495 43.0931 21.3983 43.1917 21.25 43.331C21.1943 43.3838 21.1593 43.4896 21.1219 43.6029C21.0923 43.6923 21.0612 43.7863 21.0172 43.8624C21.0036 43.8857 21.0059 43.9174 21.0081 43.9495C21.0093 43.9657 21.0104 43.9819 21.0096 43.9973C21.0243 43.9973 21.043 43.9982 21.0616 43.9991H21.0616C21.0979 44.0009 21.1332 44.0026 21.1349 43.9973C21.1822 43.7564 21.3459 43.7345 21.5118 43.7122C21.6154 43.6983 21.7198 43.6843 21.7975 43.617C21.8212 43.596 21.8488 43.5761 21.8762 43.5562L21.8762 43.5562C21.9582 43.497 22.0386 43.4389 22.0098 43.358C21.9859 43.2888 21.8738 43.2538 21.7698 43.2214C21.7401 43.2121 21.7111 43.2031 21.6849 43.1935C21.6681 43.1882 21.6437 43.2084 21.6187 43.229L21.6187 43.2291C21.6056 43.2399 21.5924 43.2508 21.58 43.2582C21.5864 43.244 21.5918 43.2282 21.5971 43.2124C21.6091 43.1772 21.6211 43.1419 21.644 43.1233C21.6644 43.1072 21.6973 43.1101 21.7395 43.1139Z" fill="url(#paint0_linear)"/>
<defs>
<linearGradient id="paint0_linear" x1="-10.951" y1="-13.6084" x2="60.6301" y2="23.6319" gradientUnits="userSpaceOnUse">
<stop stop-color="#00BAAF"/>
<stop offset="0.934573" stop-color="#6D69FB"/>
<stop offset="1" stop-color="#6D69FB"/>
</linearGradient>
</defs>
</svg>
