<svg width="58" height="58" viewBox="0 0 58 58" fill="none" xmlns="http://www.w3.org/2000/svg">
<path fill-rule="evenodd" clip-rule="evenodd" d="M28.9997 57.1753C44.7882 57.1753 57.5874 44.3761 57.5874 28.5876C57.5874 12.7991 44.7882 0 28.9997 0C13.2112 0 0.412109 12.7991 0.412109 28.5876C0.412109 44.3761 13.2112 57.1753 28.9997 57.1753ZM47.2958 32.7179V28.4366C47.2958 26.1728 45.4914 24.3363 43.2653 24.3363H34.9139V14.0905C34.9074 11.8158 33.0939 9.97578 30.8581 9.97578H27.3305C25.0903 9.97578 23.2739 11.8227 23.2739 14.102V17.1874C23.2739 17.8693 23.8179 18.4222 24.4882 18.4222H26.9199C27.5743 18.4222 28.1365 18.9344 28.1673 19.5987C28.1988 20.308 27.6434 20.8922 26.9545 20.8922H23.2739V20.8928H14.7342C14.5255 20.8928 14.3205 20.9089 14.1204 20.94C12.1856 21.2408 10.7037 22.9408 10.7037 24.9931V28.6342C10.7037 28.7758 10.7107 28.9156 10.7245 29.0535C10.8994 30.8061 12.1592 32.2323 13.81 32.6263C14.1068 32.6971 14.4162 32.7346 14.7342 32.7346H23.2739V43.6095C23.2739 45.8889 25.0903 47.7358 27.3305 47.7358H30.8581C33.0976 47.7358 34.9139 45.8889 34.9139 43.6095V40.5227C34.9139 39.8408 34.3708 39.2874 33.6996 39.2874H30.7259C30.0819 39.2874 29.5108 38.7855 29.4785 38.1137C29.4462 37.4044 30.0009 36.8179 30.6913 36.8179H43.2653C45.4914 36.8179 47.2958 34.9825 47.2958 32.7179Z" fill="url(#paint0_linear)"/>
<defs>
<linearGradient id="paint0_linear" x1="-10.5389" y1="-14.4326" x2="61.0422" y2="22.8077" gradientUnits="userSpaceOnUse">
<stop stop-color="#00BAAF"/>
<stop offset="0.934573" stop-color="#6D69FB"/>
<stop offset="1" stop-color="#6D69FB"/>
</linearGradient>
</defs>
</svg>
