<svg width="58" height="58" viewBox="0 0 58 58" fill="none" xmlns="http://www.w3.org/2000/svg">
<path fill-rule="evenodd" clip-rule="evenodd" d="M57.1753 28.5876C57.1753 44.3761 44.3761 57.1753 28.5876 57.1753C12.7991 57.1753 0 44.3761 0 28.5876C0 12.7991 12.7991 0 28.5876 0C44.3761 0 57.1753 12.7991 57.1753 28.5876ZM28.6765 15.1673C30.7247 15.1673 32.3851 13.7017 32.3851 11.8937C32.3851 10.0857 30.7247 8.62 28.6765 8.62C26.6283 8.62 24.9679 10.0857 24.9679 11.8937C24.9679 13.7017 26.6283 15.1673 28.6765 15.1673ZM27.1332 16.7591C28.0407 16.5702 29.0454 16.563 29.9695 16.7286C36.4469 17.1324 38.5451 23.5955 37.9667 28.4983C37.7215 30.5742 34.0121 30.5952 34.2606 28.4983C34.4795 26.6338 34.3643 23.7567 33.102 21.8704C33.0839 23.2389 33.1107 24.6087 33.1375 25.9785C33.1568 26.9679 33.1762 27.9574 33.1786 28.9464C33.2172 29.0939 33.2428 29.2471 33.2428 29.4157C33.2428 34.848 33.2518 40.2782 33.5061 45.7061C33.6196 48.1191 29.3812 48.1096 29.2684 45.7061C29.0709 41.4534 29.0224 37.197 29.0101 32.9399C28.8093 32.9501 28.6085 32.9501 28.4077 32.9384C28.3962 37.1955 28.346 41.4519 28.1469 45.7061C28.035 48.1096 23.7965 48.1191 23.9093 45.7061C24.1635 40.2782 24.1742 34.848 24.1742 29.4157C24.1742 29.3942 24.1774 29.3749 24.1806 29.3555C24.183 29.3406 24.1855 29.3257 24.1866 29.3096C24.1851 29.2823 24.1831 29.2553 24.181 29.2283C24.1772 29.1782 24.1734 29.1281 24.1734 29.0757V22.2299C23.1193 24.1075 23.0313 26.7492 23.237 28.4997C23.4847 30.5981 19.7761 30.5764 19.5309 28.4997C18.9656 23.6964 20.9676 17.3968 27.1332 16.7591Z" fill="url(#paint0_linear)"/>
<defs>
<linearGradient id="paint0_linear" x1="-10.951" y1="-14.4326" x2="60.6301" y2="22.8077" gradientUnits="userSpaceOnUse">
<stop stop-color="#00BAAF"/>
<stop offset="0.934573" stop-color="#6D69FB"/>
<stop offset="1" stop-color="#6D69FB"/>
</linearGradient>
</defs>
</svg>
