<svg width="58" height="58" viewBox="0 0 58 58" fill="none" xmlns="http://www.w3.org/2000/svg">
<path fill-rule="evenodd" clip-rule="evenodd" d="M57.1753 28.5876C57.1753 44.3761 44.3761 57.1753 28.5876 57.1753C12.7991 57.1753 0 44.3761 0 28.5876C0 12.7991 12.7991 0 28.5876 0C44.3761 0 57.1753 12.7991 57.1753 28.5876ZM28.1239 17.3168C29.6325 17.3168 30.8555 16.1624 30.8555 14.7384C30.8555 13.3144 29.6325 12.16 28.1239 12.16C26.6153 12.16 25.3923 13.3144 25.3923 14.7384C25.3923 16.1624 26.6153 17.3168 28.1239 17.3168ZM26.9869 18.5705C27.6554 18.4217 28.3955 18.416 29.0761 18.5464C31.9907 18.7408 33.7016 20.7161 34.4946 23.1043C35.261 20.796 36.8841 18.8732 39.6213 18.5705C40.2898 18.4217 41.0299 18.416 41.7105 18.5464C46.4815 18.8645 48.027 23.9549 47.6009 27.8165C47.4203 29.4515 44.6881 29.4681 44.8712 27.8165C45.0324 26.3479 44.9475 24.0819 44.0178 22.5962C44.0044 23.6741 44.0242 24.7529 44.0439 25.8318C44.0581 26.6111 44.0724 27.3904 44.0742 28.1695C44.1027 28.2856 44.1214 28.4063 44.1214 28.539C44.1214 32.8176 44.1281 37.0945 44.3154 41.3697C44.399 43.2702 41.2771 43.2627 41.1941 41.3697C41.0486 38.0202 41.0129 34.6677 41.0038 31.3148C40.8559 31.3228 40.708 31.3228 40.5601 31.3136C40.5517 34.6666 40.5147 38.019 40.368 41.3697C40.2856 43.2627 37.1637 43.2702 37.2467 41.3697C37.434 37.0945 37.4419 32.8176 37.4419 28.539C37.4419 28.5222 37.4442 28.5069 37.4466 28.4916C37.4484 28.4799 37.4502 28.4681 37.451 28.4555C37.4499 28.434 37.4484 28.4127 37.4469 28.3914C37.4441 28.352 37.4413 28.3125 37.4413 28.2713V22.8794C36.6649 24.3582 36.6 26.4389 36.7515 27.8176C36.8915 29.0859 35.3156 29.3708 34.4932 28.6957C33.6701 29.3685 32.0964 29.0829 32.2368 27.8165C32.398 26.3479 32.3131 24.0819 31.3834 22.5962C31.37 23.6739 31.3898 24.7526 31.4095 25.8313V25.8315V25.8316V25.8317V25.8318C31.4237 26.6111 31.438 27.3904 31.4398 28.1695C31.4683 28.2856 31.4871 28.4063 31.4871 28.539C31.4871 32.8176 31.4937 37.0945 31.681 41.3697C31.7646 43.2702 28.6427 43.2627 28.5597 41.3697C28.4142 38.0202 28.3785 34.6677 28.3694 31.3148C28.2215 31.3228 28.0736 31.3228 27.9257 31.3136C27.9173 34.6666 27.8803 38.019 27.7336 41.3697C27.6512 43.2627 24.5293 43.2702 24.6123 41.3697C24.7996 37.0945 24.8075 32.8176 24.8075 28.539C24.8075 28.5222 24.8098 28.507 24.8122 28.4917V28.4917V28.4916V28.4916V28.4916C24.814 28.4799 24.8158 28.4681 24.8166 28.4555C24.8155 28.4341 24.814 28.413 24.8125 28.3918L24.8125 28.3917L24.8125 28.3916L24.8125 28.3915L24.8125 28.3914V28.3914V28.3914V28.3913V28.3913C24.8097 28.3519 24.8069 28.3125 24.8069 28.2713V22.8794C24.0305 24.3582 23.9656 26.4389 24.1172 27.8176C24.2571 29.0859 22.6812 29.3708 21.8588 28.6957C21.0357 29.3685 19.462 29.0829 19.6024 27.8165C19.7636 26.3479 19.6787 24.0819 18.749 22.5962C18.7357 23.674 18.7554 24.7528 18.7751 25.8316V25.8317V25.8318C18.7894 26.6111 18.8036 27.3904 18.8054 28.1695C18.8339 28.2856 18.8527 28.4063 18.8527 28.539C18.8527 32.8176 18.8593 37.0945 19.0466 41.3697C19.1302 43.2702 16.0083 43.2627 15.9253 41.3697C15.7799 38.0202 15.7441 34.6677 15.735 31.3148C15.5871 31.3228 15.4392 31.3228 15.2914 31.3136C15.2829 34.6666 15.2459 38.019 15.0992 41.3697C15.0168 43.2627 11.8949 43.2702 11.9779 41.3697C12.1652 37.0945 12.1731 32.8176 12.1731 28.539C12.1731 28.5222 12.1754 28.5069 12.1778 28.4916C12.1796 28.4799 12.1814 28.4681 12.1822 28.4555C12.1811 28.434 12.1796 28.4127 12.1781 28.3914C12.1753 28.352 12.1725 28.3125 12.1725 28.2713V22.8794C11.3961 24.3582 11.3312 26.4389 11.4828 27.8176C11.6652 29.4704 8.9336 29.4532 8.75299 27.8176C8.33662 24.0344 9.8112 19.0728 14.3525 18.5705C15.021 18.4217 15.7611 18.416 16.4417 18.5464C19.3563 18.7408 21.0672 20.7161 21.8602 23.1043C22.6266 20.796 24.2497 18.8732 26.9869 18.5705ZM15.4895 17.3168C16.9981 17.3168 18.2211 16.1624 18.2211 14.7384C18.2211 13.3144 16.9981 12.16 15.4895 12.16C13.9809 12.16 12.7579 13.3144 12.7579 14.7384C12.7579 16.1624 13.9809 17.3168 15.4895 17.3168ZM40.7583 17.3168C42.2669 17.3168 43.4899 16.1624 43.4899 14.7384C43.4899 13.3144 42.2669 12.16 40.7583 12.16C39.2497 12.16 38.0267 13.3144 38.0267 14.7384C38.0267 16.1624 39.2497 17.3168 40.7583 17.3168Z" fill="url(#paint0_linear)"/>
<defs>
<linearGradient id="paint0_linear" x1="-10.951" y1="-14.4326" x2="60.6301" y2="22.8077" gradientUnits="userSpaceOnUse">
<stop stop-color="#00BAAF"/>
<stop offset="0.934573" stop-color="#6D69FB"/>
<stop offset="1" stop-color="#6D69FB"/>
</linearGradient>
</defs>
</svg>
