<svg width="58" height="58" viewBox="0 0 58 58" fill="none" xmlns="http://www.w3.org/2000/svg">
<path fill-rule="evenodd" clip-rule="evenodd" d="M28.5876 57.1753C44.3761 57.1753 57.1753 44.3761 57.1753 28.5876C57.1753 12.7991 44.3761 0 28.5876 0C12.7991 0 0 12.7991 0 28.5876C0 44.3761 12.7991 57.1753 28.5876 57.1753ZM33.5674 24.2418C33.8584 24.2418 34.1495 24.3526 34.371 24.5741C34.8141 25.0173 34.8141 25.7381 34.371 26.1812C33.9279 26.6243 33.2071 26.6243 32.764 26.1812C32.3208 25.7381 32.3208 25.0173 32.764 24.5741C32.9855 24.3526 33.2763 24.2418 33.5674 24.2418ZM36.5298 15.7319C35.1005 16.3082 33.5509 17.0953 32.0838 18.1648L20.2949 21.0481C19.947 21.1332 19.672 21.3993 19.5756 21.7445C19.4792 22.0894 19.5761 22.4595 19.8294 22.7128L24.2477 27.1311C23.9612 27.6608 23.7285 28.1684 23.549 28.6548L30.1978 35.3036C30.6842 35.1238 31.1918 34.8912 31.7213 34.6046L35.9868 38.8701C36.1753 39.0587 36.4286 39.1607 36.6879 39.1607C36.7771 39.1607 36.8669 39.1486 36.9551 39.1239C37.3 39.0275 37.5661 38.7523 37.6512 38.4044L40.4051 27.1454C41.6199 25.5691 42.4948 23.8749 43.1204 22.3228L36.5298 15.7319ZM35.7758 27.5855C35.1675 28.1938 34.3686 28.4979 33.5695 28.4979C32.7706 28.4979 31.9718 28.1938 31.3635 27.5855C30.1469 26.3692 30.1469 24.3898 31.3635 23.1732C32.5798 21.9569 34.5592 21.9569 35.7758 23.1732C36.9923 24.3898 36.9923 26.369 35.7758 27.5855ZM43.963 19.859C43.927 19.9851 43.8887 20.1145 43.8492 20.2459L38.6046 15.0013C38.7357 14.9615 38.8654 14.9232 38.9913 14.8875C41.6867 14.1198 43.7213 14.0058 43.8067 14.0013C44.0874 13.9872 44.3611 14.0916 44.56 14.2903C44.7589 14.4892 44.8639 14.7631 44.849 15.0438C44.8447 15.1289 44.7304 17.1635 43.963 19.859ZM22.3553 30.2671L20.4922 31.0584C20.1889 31.1873 19.9693 31.4585 19.9064 31.782C19.8437 32.1058 19.9456 32.4394 20.1788 32.6725L26.179 38.673C26.3668 38.8608 26.6198 38.9636 26.8804 38.9636C26.9431 38.9636 27.0066 38.9575 27.0695 38.9452C27.393 38.8825 27.6644 38.6629 27.7934 38.3596L28.5847 36.4964L22.3553 30.2671ZM20.265 37.3334C20.6522 36.9462 21.2802 36.9462 21.6674 37.3334C22.0549 37.7207 22.0549 38.3486 21.6674 38.736L13.693 46.7104C13.4994 46.9043 13.2454 47.0009 12.9916 47.0009C12.7378 47.0009 12.484 46.9043 12.2904 46.7104C11.9032 46.3232 11.9032 45.6953 12.2904 45.308L20.265 37.3334ZM13.3807 40.8004C13.6344 40.8004 13.8882 40.7035 14.0818 40.5099L18.7623 35.8294C19.1495 35.4422 19.1495 34.814 18.7623 34.4268C18.375 34.0396 17.7471 34.0396 17.3596 34.4268L12.6792 39.1072C12.292 39.4945 12.292 40.1226 12.6792 40.5099C12.8728 40.7035 13.1266 40.8004 13.3807 40.8004ZM18.4904 44.9186L23.1711 40.2382C23.5583 39.8507 24.1862 39.8507 24.5734 40.2382C24.9609 40.6254 24.9609 41.2536 24.5734 41.6408L19.893 46.3212C19.6994 46.5148 19.4454 46.6118 19.1916 46.6118C18.9378 46.6118 18.684 46.5151 18.4904 46.3212C18.1032 45.934 18.1032 45.3058 18.4904 44.9186Z" fill="url(#paint0_linear)"/>
<defs>
<linearGradient id="paint0_linear" x1="-10.951" y1="-14.4326" x2="60.6301" y2="22.8077" gradientUnits="userSpaceOnUse">
<stop stop-color="#00BAAF"/>
<stop offset="0.934573" stop-color="#6D69FB"/>
<stop offset="1" stop-color="#6D69FB"/>
</linearGradient>
</defs>
</svg>
