<svg width="50" height="50" viewBox="0 0 50 50" fill="none" xmlns="http://www.w3.org/2000/svg">
<path d="M39 17.5019C38.9922 15.4314 37.3071 13.7593 35.2361 13.7671C33.7629 13.7726 32.4293 14.6401 31.8275 15.9845L28.6261 15.4494L28.313 17.2985L31.5304 17.8356C31.6556 19.2303 32.5478 20.439 33.844 20.9697L32.9309 27.8555C31.0502 28.0765 29.631 29.6672 29.6255 31.5604V31.5745L18.8175 34.4237C18.2411 33.3962 17.213 32.7013 16.0445 32.5492L14.1303 17.232C15.0409 16.8694 15.7739 16.1655 16.173 15.2703L19.0706 15.754L19.3791 13.9057L16.4673 13.4193C16.2903 11.3616 14.4783 9.83696 12.4201 10.014C10.3619 10.1909 8.83692 12.0025 9.01398 14.0602C9.16497 15.8153 10.5206 17.227 12.2685 17.4494L14.1846 32.7638C12.2588 33.5253 11.315 35.7034 12.0766 37.6287C12.8382 39.5541 15.0168 40.4977 16.9426 39.7363C18.3746 39.1701 19.3149 37.7862 19.3134 36.2466V36.2325L30.1214 33.3833C31.1281 35.1868 33.4065 35.8329 35.2104 34.8265C37.0143 33.82 37.6606 31.5422 36.6539 29.7387C36.2376 28.9929 35.5785 28.412 34.7861 28.0927L35.6992 21.2068C37.5781 20.9836 38.9947 19.3935 39 17.5019ZM12.7513 15.6274C11.7158 15.6274 10.8764 14.7882 10.8764 13.753C10.8764 12.7177 11.7158 11.8785 12.7513 11.8785C13.7867 11.8785 14.6262 12.7177 14.6262 13.753C14.6262 14.7882 13.7867 15.6274 12.7513 15.6274ZM15.5636 38.1211C14.5282 38.1211 13.6887 37.2818 13.6887 36.2466C13.6887 35.2114 14.5282 34.3721 15.5636 34.3721C16.5991 34.3721 17.4385 35.2114 17.4385 36.2466C17.4385 37.2818 16.5991 38.1211 15.5636 38.1211ZM35.2502 31.5604C35.2502 32.5957 34.4107 33.4349 33.3753 33.4349C32.3398 33.4349 31.5004 32.5957 31.5004 31.5604C31.5004 30.5252 32.3398 29.686 33.3753 29.686C34.4107 29.686 35.2502 30.5252 35.2502 31.5604ZM33.3753 17.5019C33.3753 16.4667 34.2147 15.6274 35.2502 15.6274C36.2857 15.6274 37.1251 16.4667 37.1251 17.5019C37.1251 18.5371 36.2857 19.3764 35.2502 19.3764C34.2147 19.3764 33.3753 18.5371 33.3753 17.5019Z" fill="#6D69FB"/>
<path d="M26.7787 15.1405L24.9297 14.832L24.6211 16.6811L26.4701 16.9896L26.7787 15.1405Z" fill="#6D69FB"/>
<path d="M23.0734 14.5237L21.2246 14.2148L20.9156 16.0636L22.7644 16.3724L23.0734 14.5237Z" fill="#6D69FB"/>
</svg>
