<svg width="28" height="28" viewBox="0 0 28 28" fill="none" xmlns="http://www.w3.org/2000/svg">
<path d="M6.58212 19.3477C5.1864 20.7434 5.11133 23.2874 5.11133 23.2874C5.11133 23.2874 7.65364 23.2124 9.05106 21.8167C10.4485 20.4209 11.0269 18.7369 10.3444 18.0561C9.6619 17.3736 7.97783 17.952 6.58212 19.3477Z" fill="url(#paint0_linear)"/>
<g opacity="0.2">
<path opacity="0.2" d="M9.54758 18.1108C9.79157 18.1108 9.97755 18.1739 10.1021 18.2968C10.5713 18.766 10.155 20.2282 8.80877 21.5762C7.83621 22.5487 6.21698 22.8354 5.48329 22.9173C5.56519 22.1836 5.85184 20.5644 6.8227 19.5918C7.72189 18.6909 8.79171 18.1108 9.54758 18.1108ZM9.54758 17.7695C8.72687 17.7695 7.58027 18.3497 6.58212 19.3495C5.1864 20.7452 5.11133 23.2893 5.11133 23.2893C5.11133 23.2893 7.65364 23.2142 9.05106 21.8185C10.4485 20.4227 11.0269 18.7387 10.3444 18.0579C10.1499 17.86 9.87518 17.7695 9.54758 17.7695Z" fill="#424242"/>
</g>
<path d="M7.00657 19.8389C6.12785 20.7177 6.08008 22.3181 6.08008 22.3181C6.08008 22.3181 7.68054 22.2704 8.55926 21.3916C9.43798 20.5129 9.80311 19.4516 9.37314 19.0234C8.94316 18.5951 7.887 18.9585 7.00657 19.8389Z" fill="url(#paint1_linear)"/>
<path d="M8.80662 19.8535C9.64269 20.7459 10.7398 20.652 10.8302 20.5053L11.5946 19.2631C11.6407 19.1881 11.598 19.0686 11.5656 19.0379L9.50277 16.9751C9.47036 16.9426 9.35604 16.9051 9.28096 16.9512L8.03881 17.7156C7.89378 17.806 7.72998 18.7018 8.80662 19.8535Z" fill="#546E7A"/>
<path d="M14.4239 22.1232C14.2533 22.2614 14.0246 22.2307 13.9956 22.0259C13.9154 21.4594 13.9683 20.3214 13.2551 19.6082C12.559 18.912 11.4277 18.8096 11.4277 18.8096L15.6865 16.7109C15.6865 16.7109 16.4885 17.948 16.0466 19.7088C15.678 21.1643 15.0484 21.613 14.4239 22.1232Z" fill="#0288D1"/>
<g opacity="0.2">
<path opacity="0.2" d="M15.4457 17.3986C15.4764 17.4822 15.5088 17.5777 15.5378 17.6835C15.6539 18.1067 15.7511 18.7806 15.5481 19.5826C15.2904 20.6097 14.9048 21.0499 14.4527 21.4355C14.3947 20.7838 14.2684 19.8965 13.6149 19.2447C13.376 19.0058 13.0962 18.825 12.8215 18.6902L15.4457 17.3986ZM15.6846 16.7109L11.4258 18.8096C11.4258 18.8096 12.5587 18.9137 13.2532 19.6082C13.9664 20.3214 13.9135 21.4594 13.9937 22.0259C14.0107 22.1471 14.0995 22.2085 14.2036 22.2085C14.2752 22.2085 14.3537 22.1795 14.422 22.1232C15.0464 21.613 15.676 21.1642 16.0429 19.7088C16.4882 17.9463 15.6846 16.7109 15.6846 16.7109Z" fill="#424242"/>
</g>
<path d="M6.32549 14.268C6.15828 14.4113 6.218 14.6673 6.42275 14.6963C6.98922 14.7765 8.12729 14.7236 8.8405 15.4368C9.53665 16.1329 9.68168 17.1191 9.68168 17.1191L11.7394 12.7631C11.7394 12.7631 10.6508 12.2529 9.06743 12.6641C7.97543 12.9491 6.89197 13.78 6.32549 14.268Z" fill="#0288D1"/>
<g opacity="0.2">
<path opacity="0.2" d="M10.2962 13.0158C10.5811 13.0158 10.8268 13.0465 11.0213 13.084L9.74165 15.797C9.60515 15.553 9.42941 15.3022 9.20247 15.0769C8.59676 14.4712 7.79141 14.3194 7.15668 14.2545C7.7078 13.8348 8.45684 13.3536 9.19394 13.1608C9.56249 13.0636 9.93275 13.0158 10.2962 13.0158ZM10.2962 12.5039C9.93616 12.5039 9.52154 12.5466 9.06768 12.6643C7.97568 12.9492 6.89392 13.7802 6.32744 14.2682C6.16023 14.4115 6.21995 14.6674 6.4247 14.6964C6.99118 14.7766 8.12924 14.7237 8.84246 15.4369C9.53861 16.1331 9.68364 17.1193 9.68364 17.1193L11.7397 12.7633C11.7397 12.7633 11.1868 12.5039 10.2962 12.5039Z" fill="#424242"/>
</g>
<g opacity="0.2">
<path opacity="0.2" d="M9.32803 17.5213L11.0206 19.2139L10.4866 20.0823C10.4695 20.084 10.4507 20.084 10.4303 20.084C10.2648 20.084 9.68805 20.0414 9.17959 19.4988C8.53633 18.8112 8.43566 18.2737 8.4442 18.0639L9.32803 17.5213ZM9.36386 16.9258C9.33486 16.9258 9.30585 16.9326 9.28026 16.9463L8.03811 17.7107C7.89137 17.8011 7.72757 18.6969 8.80421 19.8486C9.35192 20.4338 10.0122 20.5959 10.4286 20.5959C10.647 20.5959 10.7971 20.5516 10.8278 20.5004L11.5922 19.2582C11.6383 19.1832 11.5956 19.0637 11.5632 19.033L9.50207 16.9719C9.4816 16.9514 9.42358 16.9258 9.36386 16.9258Z" fill="#424242"/>
</g>
<path d="M17.1445 7.07422C17.8356 7.39158 18.7672 7.93758 19.6561 8.82654C19.9701 9.14049 20.238 9.46126 20.47 9.77521C20.9188 10.3809 21.2259 10.9593 21.4272 11.4115C20.9785 12.5905 20.1322 13.9623 19.3047 14.7899C15.9246 18.17 12.1913 20.0997 10.2598 18.733C10.1472 18.6528 10.0363 18.5795 9.93564 18.489C8.27887 16.9995 10.1762 12.7356 13.6228 9.28893C14.4879 8.42386 15.9297 7.54002 17.1445 7.07422Z" fill="url(#paint2_radial)"/>
<path d="M17.317 13.0425C17.9101 12.4495 17.9101 11.488 17.317 10.895C16.724 10.3019 15.7625 10.3019 15.1695 10.895C14.5764 11.488 14.5764 12.4495 15.1695 13.0425C15.7625 13.6356 16.724 13.6356 17.317 13.0425Z" fill="#455A64"/>
<g opacity="0.2">
<path opacity="0.2" d="M16.2449 10.7905C16.5588 10.7905 16.8557 10.9133 17.0775 11.1351C17.2993 11.3569 17.4222 11.6538 17.4222 11.9678C17.4222 12.2817 17.2993 12.5786 17.0775 12.8004C16.8557 13.0222 16.5588 13.1451 16.2449 13.1451C15.9309 13.1451 15.634 13.0222 15.4122 12.8004C14.9532 12.3415 14.9532 11.5941 15.4122 11.1351C15.634 10.9133 15.9292 10.7905 16.2449 10.7905ZM16.2449 10.4492C15.8559 10.4492 15.4668 10.5977 15.1699 10.8946C14.5762 11.4883 14.5762 12.4489 15.1699 13.0427C15.4668 13.3396 15.8559 13.4881 16.2449 13.4881C16.6339 13.4881 17.0229 13.3396 17.3198 13.0427C17.9136 12.4489 17.9136 11.4883 17.3198 10.8946C17.0229 10.5977 16.6339 10.4492 16.2449 10.4492Z" fill="#424242"/>
</g>
<path d="M13.8895 16.0739C14.3186 15.6447 14.3186 14.949 13.8895 14.5199C13.4604 14.0908 12.7647 14.0908 12.3356 14.5199C11.9065 14.949 11.9065 15.6447 12.3356 16.0739C12.7647 16.503 13.4604 16.503 13.8895 16.0739Z" fill="#455A64"/>
<path d="M17.1441 7.07449C16.8284 8.63229 19.5789 11.6831 21.4268 11.4118C22.0018 9.92563 22.2372 8.91724 22.3942 7.18198C22.4744 6.30326 22.2168 6.05244 21.4029 6.14799C19.2445 6.40052 18.3914 6.56432 17.1441 7.07449Z" fill="#E53935"/>
<g opacity="0.2">
<path opacity="0.2" d="M21.6951 6.64078C21.7975 6.64078 21.8487 6.65272 21.8674 6.65955C21.8811 6.69026 21.9152 6.8097 21.8862 7.13559C21.7344 8.81625 21.516 9.77175 20.9512 11.2289C20.5178 12.3635 19.692 13.6791 18.9429 14.4281C16.3307 17.0404 13.587 18.6647 11.7818 18.6647C11.2955 18.6647 10.8826 18.547 10.555 18.3149L10.4987 18.2757C10.4117 18.216 10.3383 18.1631 10.2769 18.1085C10.0005 17.8594 9.85374 17.4789 9.84009 16.9772C9.79231 15.1516 11.4951 12.1383 13.9829 9.65061C14.7626 8.87085 16.1379 8.00749 17.3254 7.55362C17.3288 7.55192 17.3322 7.55021 17.3356 7.54851C18.542 7.0554 19.3814 6.90013 21.4596 6.65614C21.5501 6.6459 21.6286 6.64078 21.6951 6.64078ZM21.6951 6.12891C21.6064 6.12891 21.5108 6.13573 21.4033 6.14768C19.2449 6.4002 18.3918 6.564 17.1445 7.07417C15.9297 7.53827 14.4879 8.42211 13.6228 9.28717C10.1762 12.7338 8.27887 16.9977 9.93564 18.4873C10.0346 18.576 10.1455 18.6511 10.2598 18.7313C10.6864 19.0333 11.2017 19.1749 11.7818 19.1749C13.8259 19.1749 16.6719 17.4226 19.3064 14.7898C20.1339 13.9623 20.9802 12.5905 21.4289 11.4115C22.0039 9.92531 22.2394 8.91692 22.3964 7.18166C22.4629 6.41897 22.2786 6.12891 21.6951 6.12891Z" fill="#424242"/>
</g>
<g opacity="0.2">
<path opacity="0.2" d="M13.1112 14.5366C13.3143 14.5366 13.5037 14.615 13.647 14.7584C13.7903 14.9017 13.8688 15.0911 13.8688 15.2941C13.8688 15.4972 13.7903 15.6866 13.647 15.8299C13.5037 15.9732 13.3143 16.0517 13.1112 16.0517C12.9082 16.0517 12.7188 15.9732 12.5755 15.8299C12.4321 15.6866 12.3536 15.4972 12.3536 15.2941C12.3536 15.0911 12.4321 14.9017 12.5755 14.7584C12.7205 14.615 12.9099 14.5366 13.1112 14.5366ZM13.1112 14.1953C12.8297 14.1953 12.5499 14.3028 12.3349 14.5178C11.9066 14.9461 11.9066 15.6422 12.3349 16.0705C12.5499 16.2855 12.8297 16.393 13.1112 16.393C13.3927 16.393 13.6726 16.2855 13.8876 16.0705C14.3158 15.6422 14.3158 14.9461 13.8876 14.5178C13.6743 14.3028 13.3927 14.1953 13.1112 14.1953Z" fill="#424242"/>
</g>
<defs>
<linearGradient id="paint0_linear" x1="10.6289" y1="20.5282" x2="5.11032" y2="20.5282" gradientUnits="userSpaceOnUse">
<stop stop-color="#FF6D00"/>
<stop offset="0.2487" stop-color="#FF9B00"/>
<stop offset="0.5135" stop-color="#FFC600"/>
<stop offset="0.721" stop-color="#FFE000"/>
<stop offset="0.8439" stop-color="#FFEA00"/>
</linearGradient>
<linearGradient id="paint1_linear" x1="8.75862" y1="19.6114" x2="5.90065" y2="22.5547" gradientUnits="userSpaceOnUse">
<stop offset="0.00444748" stop-color="#C62828"/>
<stop offset="0.2711" stop-color="#D75327"/>
<stop offset="0.5983" stop-color="#E98126"/>
<stop offset="0.8504" stop-color="#F59D25"/>
<stop offset="0.9953" stop-color="#F9A825"/>
</linearGradient>
<radialGradient id="paint2_radial" cx="0" cy="0" r="1" gradientUnits="userSpaceOnUse" gradientTransform="translate(16.7851 9.46467) rotate(180) scale(6.22314)">
<stop offset="0.0112" stop-color="#F5F5F5"/>
<stop offset="0.9995" stop-color="#BDBDBD"/>
</radialGradient>
</defs>
</svg>
