<svg width="58" height="58" viewBox="0 0 58 58" fill="none" xmlns="http://www.w3.org/2000/svg">
<path fill-rule="evenodd" clip-rule="evenodd" d="M28.5876 57.1753C44.3761 57.1753 57.1753 44.3761 57.1753 28.5876C57.1753 12.7991 44.3761 0 28.5876 0C12.7991 0 0 12.7991 0 28.5876C0 44.3761 12.7991 57.1753 28.5876 57.1753ZM37.5957 19.3904C39.4181 19.3834 40.901 20.8883 40.9079 22.7517C40.9032 24.4542 39.6566 25.8853 38.0032 26.0861L37.1997 32.2834C37.8969 32.5708 38.477 33.0936 38.8433 33.7648C39.7292 35.3879 39.1605 37.438 37.573 38.3439C35.9856 39.2496 33.9806 38.6681 33.0947 37.045L23.5837 39.6093V39.6219C23.585 41.0076 22.7576 42.2531 21.4974 42.7626C19.8027 43.448 17.8855 42.5987 17.2153 40.8659C16.5451 39.133 17.3756 37.1728 19.0704 36.4875L17.3841 22.7045C15.8461 22.5043 14.6531 21.2338 14.5202 19.6542C14.3644 17.8022 15.7064 16.1718 17.5176 16.0126C19.3288 15.8533 20.9234 17.2254 21.0791 19.0774L23.6415 19.5152L23.3701 21.1786L20.8201 20.7433C20.4689 21.5489 19.8239 22.1824 19.0225 22.5088L20.7071 36.2943C21.7353 36.4312 22.64 37.0566 23.1473 37.9813L32.6583 35.417V35.4044C32.6632 33.7005 33.9121 32.2689 35.5671 32.07L36.3706 25.8727C35.23 25.3951 34.4448 24.3073 34.3346 23.052L31.5033 22.5687L31.7789 20.9044L34.5961 21.3861C35.1257 20.1761 36.2992 19.3953 37.5957 19.3904ZM16.1591 19.3777C16.1591 20.3094 16.8978 21.0647 17.809 21.0647C18.7202 21.0647 19.4589 20.3094 19.4589 19.3777C19.4589 18.446 18.7202 17.6906 17.809 17.6906C16.8978 17.6906 16.1591 18.446 16.1591 19.3777ZM18.634 39.6219C18.634 40.5537 19.3727 41.309 20.2839 41.309C21.1951 41.309 21.9338 40.5537 21.9338 39.6219C21.9338 38.6902 21.1951 37.9349 20.2839 37.9349C19.3727 37.9349 18.634 38.6902 18.634 39.6219ZM35.9581 37.0914C36.8693 37.0914 37.608 36.3361 37.608 35.4044C37.608 34.4727 36.8693 33.7174 35.9581 33.7174C35.0469 33.7174 34.3082 34.4727 34.3082 35.4044C34.3082 36.3361 35.0469 37.0914 35.9581 37.0914ZM37.608 21.0647C36.6968 21.0647 35.9581 21.82 35.9581 22.7517C35.9581 23.6834 36.6968 24.4387 37.608 24.4387C38.5193 24.4387 39.258 23.6834 39.258 22.7517C39.258 21.82 38.5193 21.0647 37.608 21.0647ZM30.1531 20.6257L28.526 20.3481L28.2544 22.0122L29.8815 22.2898L30.1531 20.6257ZM25.2655 19.7933L26.8925 20.0713L26.6206 21.7351L24.9936 21.4571L25.2655 19.7933Z" fill="url(#paint0_linear)"/>
<defs>
<linearGradient id="paint0_linear" x1="-10.951" y1="-14.4326" x2="60.6301" y2="22.8077" gradientUnits="userSpaceOnUse">
<stop stop-color="#00BAAF"/>
<stop offset="0.934573" stop-color="#6D69FB"/>
<stop offset="1" stop-color="#6D69FB"/>
</linearGradient>
</defs>
</svg>
